<svg viewBox="0 0 70 185" fill="none" xmlns="http://www.w3.org/2000/svg">
<path d="M7.53794 1.64587C0.619903 23.2647 0.524508 43.5642 5.67441 65.7731C9.74843 83.3423 16.9622 113.128 38.3136 115.887M38.3136 115.887C39.211 116.003 40.1333 116.071 41.0814 116.088C49.2738 116.24 61.2425 118.956 65.6361 110.169C69.184 103.073 65.1644 96.7545 58.4013 94.8222C45.8527 91.2369 40.1296 103.002 38.3136 115.887ZM38.3136 115.887C36.9623 125.473 37.7742 135.68 39.5468 140.643C43.998 153.106 51.9442 174.795 64.7592 181.202M64.7607 161.39C64.7703 161.856 67.8177 182.926 67.6109 182.985C64.2204 183.954 57.0915 181.121 52.9219 181.121" stroke="black" stroke-width="3" stroke-linecap="round"/>
</svg>
