<?xml version="1.0" standalone="no"?>
<!DOCTYPE svg PUBLIC "-//W3C//DTD SVG 20010904//EN"
 "http://www.w3.org/TR/2001/REC-SVG-20010904/DTD/svg10.dtd">
<svg version="1.0" xmlns="http://www.w3.org/2000/svg" width="700.000000pt" height="700.000000pt" viewBox="0 0 700 700" preserveAspectRatio="xMidYMid meet">
<g transform="translate(0.000000,700.000000) scale(0.100000,-0.100000)" fill="#000000" stroke="none">
<path d="M3436 6599 c-94 -19 -196 -55 -291 -102 -75 -37 -147 -78 -143 -82 2
-2 29 3 61 10 149 35 303 36 442 5 353 -79 671 -388 867 -842 66 -153 151
-426 174 -558 3 -14 11 -56 19 -95 18 -93 38 -241 52 -395 16 -168 8 -695 -12
-843 -2 -18 -7 -57 -10 -87 -3 -30 -10 -82 -15 -115 -5 -33 -11 -77 -14 -97
-15 -96 -19 -122 -47 -253 -234 -1106 -784 -2000 -1437 -2336 -126 -65 -225
-96 -392 -124 -69 -12 -200 -7 -305 11 -89 15 -231 75 -333 141 -61 38 -56 25
20 -55 103 -108 193 -174 333 -244 316 -159 649 -194 970 -103 107 31 122 37
240 94 81 40 228 130 280 172 187 153 353 321 449 454 14 19 28 20 633 21 652
1 660 2 793 49 176 62 351 202 455 364 69 108 112 236 129 383 8 61 22 161 32
223 1 11 8 58 14 105 11 87 17 126 25 170 2 14 7 48 10 75 10 82 14 106 29
210 8 55 17 118 20 140 3 22 12 90 21 150 9 61 18 126 21 145 2 19 7 51 9 70
3 19 7 53 10 75 8 56 17 116 21 140 2 11 6 38 9 60 2 22 6 56 9 75 10 63 45
314 51 360 3 25 8 56 10 70 2 14 9 61 15 105 6 44 13 91 15 105 3 14 10 61 15
105 14 98 15 106 39 280 11 77 23 163 27 190 3 28 12 86 19 130 7 44 11 121
10 170 -9 296 -229 540 -535 591 -25 4 -340 9 -700 10 -360 1 -658 2 -661 3
-3 0 -27 36 -54 79 -125 199 -278 373 -440 498 -104 80 -141 103 -296 180
-227 112 -467 153 -663 113z m2749 -1223 c68 -18 102 -37 153 -85 66 -63 96
-138 97 -236 0 -69 -7 -145 -19 -211 -2 -11 -7 -44 -11 -74 -4 -30 -9 -62 -10
-70 -1 -8 -6 -44 -11 -80 -4 -36 -8 -67 -9 -70 -1 -3 -5 -30 -9 -60 -16 -112
-36 -256 -41 -290 -2 -14 -6 -43 -9 -65 -3 -22 -17 -119 -30 -215 -14 -96 -28
-197 -32 -225 -3 -27 -7 -57 -9 -65 -6 -34 -20 -132 -30 -215 -4 -27 -13 -93
-21 -145 -8 -52 -17 -111 -19 -132 -3 -21 -7 -56 -10 -79 -3 -23 -7 -53 -10
-68 -3 -15 -7 -43 -9 -62 -3 -19 -10 -68 -16 -109 -5 -41 -13 -93 -16 -115 -3
-22 -7 -51 -9 -65 -2 -14 -22 -158 -45 -320 -23 -162 -43 -306 -45 -320 -2
-14 -7 -48 -10 -76 -17 -169 -135 -316 -310 -388 -48 -20 -73 -21 -578 -24
l-529 -3 47 83 c77 137 192 380 253 535 l57 145 120 -128 c66 -71 165 -174
220 -230 90 -92 104 -103 140 -106 90 -7 171 39 206 116 35 77 21 130 -56 211
-27 28 -109 115 -184 194 -75 80 -171 182 -215 227 -113 119 -107 104 -79 214
49 196 109 515 128 680 3 30 8 71 10 90 18 137 27 312 29 513 1 122 5 190 12
195 12 7 411 316 474 367 21 17 90 71 153 120 127 99 157 139 159 209 2 108
-101 173 -213 134 -19 -6 -166 -114 -326 -239 -200 -156 -293 -223 -294 -211
-1 27 -8 69 -30 187 -35 185 -71 324 -127 488 l-29 87 546 0 c423 0 557 -3
596 -14z"/>
<path d="M3060 6229 c-233 -34 -495 -189 -729 -432 l-70 -72 -403 0 c-443 1
-503 -3 -616 -41 -282 -95 -493 -307 -581 -584 -9 -31 -24 -119 -46 -280 -3
-25 -8 -57 -10 -71 -3 -14 -7 -43 -10 -64 -8 -69 -16 -120 -20 -145 -2 -14 -7
-45 -10 -70 -4 -25 -8 -56 -10 -70 -2 -14 -7 -45 -10 -70 -3 -25 -8 -56 -10
-70 -2 -14 -7 -45 -10 -70 -3 -25 -14 -104 -25 -177 -11 -72 -22 -151 -25
-175 -3 -23 -7 -54 -10 -68 -4 -23 -7 -48 -20 -145 -3 -22 -7 -53 -10 -70 -11
-66 -15 -92 -20 -135 -3 -25 -10 -79 -16 -120 -6 -41 -13 -88 -14 -105 -2 -16
-11 -75 -19 -130 -8 -55 -18 -120 -21 -145 -3 -25 -10 -72 -15 -105 -5 -33
-12 -82 -15 -110 -3 -27 -8 -61 -10 -75 -3 -14 -7 -43 -10 -65 -3 -22 -8 -51
-10 -65 -2 -14 -7 -43 -9 -65 -3 -22 -12 -89 -21 -150 -8 -60 -18 -128 -21
-150 -3 -22 -9 -67 -14 -100 -27 -176 -31 -254 -18 -330 44 -254 215 -439 466
-507 73 -19 105 -21 624 -22 l548 -1 52 -51 c142 -136 296 -219 463 -249 39
-7 193 -7 225 0 14 3 41 8 60 11 103 18 307 107 412 180 80 56 119 86 115 90
-1 2 -37 -8 -80 -21 -220 -70 -407 -68 -582 8 -33 15 -58 27 -55 28 3 1 170 2
372 3 241 1 364 -2 361 -9 -7 -14 101 101 140 148 17 22 37 45 43 51 5 6 32
40 57 76 l48 65 -1333 5 c-1238 5 -1336 6 -1377 22 -90 37 -174 122 -202 207
-21 61 -17 193 11 351 8 44 55 375 86 605 3 22 7 47 9 55 2 8 7 42 11 75 8 76
9 84 23 175 11 71 13 89 26 185 8 58 23 164 30 205 9 60 75 533 81 575 3 22
12 85 20 140 8 55 17 118 19 140 3 22 7 49 9 60 2 11 7 43 10 70 4 28 9 64 11
80 3 17 7 46 9 65 3 19 8 51 10 70 3 19 19 128 36 242 16 113 39 231 51 262
35 95 128 195 226 245 105 53 52 51 1515 51 747 0 1358 3 1358 8 0 15 -51 149
-87 227 -59 129 -139 241 -248 350 -131 131 -267 210 -420 245 -63 15 -223 20
-295 9z m508 -315 c73 -14 184 -53 232 -82 71 -43 128 -82 138 -95 10 -12 -70
-14 -549 -14 -385 0 -555 3 -543 10 11 6 21 13 24 17 11 16 199 110 259 130
148 49 298 61 439 34z"/>
<path d="M1445 5069 c-87 -47 -130 -140 -99 -217 8 -20 130 -149 316 -334 167
-165 470 -466 675 -670 l372 -370 -63 -52 c-35 -28 -161 -130 -281 -226 -120
-96 -223 -180 -229 -185 -6 -6 -56 -46 -111 -90 -55 -44 -127 -102 -161 -130
-33 -27 -78 -64 -100 -81 -122 -98 -524 -421 -550 -443 -17 -14 -44 -36 -60
-49 -16 -13 -61 -49 -100 -80 -89 -71 -116 -109 -122 -171 -10 -109 84 -182
196 -152 38 11 89 47 282 204 184 148 226 182 230 187 3 3 59 48 125 100 66
52 122 97 125 100 3 3 64 52 135 110 72 57 144 115 160 129 17 14 49 40 70 57
22 17 76 60 120 96 44 35 141 113 215 173 150 120 187 150 277 224 34 28 64
51 67 51 2 0 91 -85 197 -190 207 -203 228 -217 307 -206 52 7 58 12 352 239
118 92 217 167 220 167 6 0 105 -103 307 -319 36 -38 54 -51 57 -41 18 54 86
371 86 401 0 9 -36 54 -80 100 -43 46 -79 86 -79 89 0 3 47 40 104 84 58 43
106 86 106 95 1 9 3 25 4 36 7 46 15 148 20 259 6 105 5 117 -8 105 -8 -8
-122 -97 -253 -199 -130 -102 -366 -285 -523 -408 l-285 -222 -71 69 c-289
286 -879 871 -1287 1277 -267 266 -498 488 -513 494 -43 16 -107 12 -150 -11z"/>
</g>
</svg>
