<?xml version="1.0" encoding="UTF-8"?>
<svg viewBox="0 0 60 57" xmlns="http://www.w3.org/2000/svg">
  <path d="m50.68 37.251c0 2.2061-1.7963 4.0024-4.0024 4.0024-2.206 0-4.0023-1.7963-4.0023-4.0024 0-2.206 1.7963-4.0023 4.0023-4.0023s4.0024 1.7963 4.0024 4.0023z" fill="#0084BC"/>
  <path d="m20.042 4.4852c4.6863-4.6863 12.284-4.6863 16.97 0l21.213 21.213c1.5621 1.5621 1.5621 4.0947 0 5.6568s-4.0947 1.5621-5.6568 0l-21.213-21.213c-1.5621-1.5621-4.0948-1.5621-5.6569 0l-15.556 15.556c-1.5621 1.5621-1.5621 4.0947 0 5.6568l15.556 15.556c1.5621 1.5621 4.0948 1.5621 5.6569 0l4.2426-4.2427c1.5621-1.5621 4.0948-1.5621 5.6569 0s1.5621 4.0948 0 5.6569l-4.2427 4.2426c-4.6863 4.6863-12.284 4.6863-16.97 0l-15.556-15.556c-4.6863-4.6863-4.6863-12.284 0-16.971l15.556-15.556z" clip-rule="evenodd" fill="#CCA723" fill-rule="evenodd"/>
</svg>
