<svg width="62" height="62" viewBox="0 0 62 62" fill="none" xmlns="http://www.w3.org/2000/svg">
  <path d="M44.5066 22.3951L18.6434 19.999L16.4781 40.2417L44.2579 40.8793L44.5066 22.3951Z" fill="white"/>
  <path fill-rule="evenodd" clip-rule="evenodd" d="M17.1931 21.4463L17.2025 39.9952L44.2865 39.9816L44.2771 21.366L44.0861 21.5054L43.7356 21.7614L31.9719 30.352C31.2744 30.8613 30.3288 30.8654 29.6269 30.3621L17.5735 21.719L17.2008 21.4518L17.1931 21.4463ZM15.1931 21.32C15.1925 20.2154 16.0875 19.3195 17.192 19.319L44.2761 19.3053C45.3806 19.3048 46.2765 20.1997 46.2771 21.3043L46.2865 39.9806C46.2871 41.0851 45.3921 41.981 44.2875 41.9816L17.2035 41.9952C16.0989 41.9958 15.203 41.1008 15.2025 39.9962L15.1931 21.32ZM30.7924 28.7368L21.0133 21.7246L40.3519 21.7559L30.7924 28.7368Z" fill="#2F3132"/>
  <path d="M7.22656 11.9551C7.22656 9.74593 9.01742 7.95508 11.2266 7.95508H11.5832C13.0794 7.95508 14.4505 8.79011 15.1371 10.1195L15.4675 10.759C16.1541 12.0884 17.5252 12.9234 19.0214 12.9234H24.9631C27.1723 12.9234 28.9631 14.7143 28.9631 16.9234V23.8285C28.9631 26.0377 27.1723 27.8285 24.9631 27.8285H11.2266C9.01743 27.8285 7.22656 26.0377 7.22656 23.8285V11.9551Z" fill="white"/>
  <path d="M23.3737 12.9234H19.0214C17.5252 12.9234 16.1541 12.0884 15.4675 10.759L15.1371 10.1195C14.4505 8.79011 13.0794 7.95508 11.5832 7.95508H11.2266C9.01742 7.95508 7.22656 9.74593 7.22656 11.9551V26.2759C7.22656 27.1334 7.92169 27.8285 8.77918 27.8285V27.8285M26.1837 12.9234V12.9234C27.7188 12.9234 28.9631 14.1678 28.9631 15.7029V23.8285C28.9631 26.0377 27.1723 27.8285 24.9631 27.8285H11.7897" stroke="#2F3132" stroke-width="2"/>
  <path d="M22.7578 17.2695L23.9999 17.2695" stroke="#2F3132" stroke-width="2" stroke-linecap="round"/>
  <path d="M12.2031 17.2695H19.0346" stroke="#2F3132" stroke-width="2" stroke-linecap="round"/>
  <path d="M17.7812 22.2383L23.9917 22.2383" stroke="#2F3132" stroke-width="2" stroke-linecap="round"/>
  <path d="M12.2031 22.2383H14.0663" stroke="#2F3132" stroke-width="2" stroke-linecap="round"/>
  <path d="M25.2251 11.1543L7.3125 29.0669" stroke="#2F3132" stroke-width="2" stroke-linecap="round"/>
</svg>
