<svg width="62" height="62" viewBox="0 0 62 62" fill="none" xmlns="http://www.w3.org/2000/svg">
  <path d="M44.5066 22.3951L18.6434 19.999L16.4781 40.2417L44.2579 40.8793L44.5066 22.3951Z" fill="white"/>
  <path fill-rule="evenodd" clip-rule="evenodd" d="M17.1931 21.4463L17.2025 39.9952L44.2865 39.9816L44.2771 21.366L44.0861 21.5054L43.7356 21.7614L31.9719 30.352C31.2744 30.8613 30.3288 30.8654 29.6269 30.3621L17.5735 21.719L17.2008 21.4518L17.1931 21.4463ZM15.1931 21.32C15.1925 20.2154 16.0875 19.3195 17.192 19.319L44.2761 19.3053C45.3806 19.3048 46.2765 20.1997 46.2771 21.3043L46.2865 39.9806C46.2871 41.0851 45.3921 41.981 44.2875 41.9816L17.2035 41.9952C16.0989 41.9958 15.203 41.1008 15.2025 39.9962L15.1931 21.32ZM30.7924 28.7368L21.0133 21.7246L40.3519 21.7559L30.7924 28.7368Z" fill="#2F3132"/>
  <path d="M23.6315 25.6669V17.2324H11.4766V25.6669C11.4766 28.4283 13.7151 30.6669 16.4766 30.6669H18.6315C21.393 30.6669 23.6315 28.4283 23.6315 25.6669Z" fill="white"/>
  <path d="M9.875 16.9387C9.875 15.0719 11.3883 13.5586 13.2551 13.5586H22L24.75 15.4096L24.2131 16.2964C23.8507 16.8949 23.2019 17.2606 22.5022 17.2606H10.1969C10.0191 17.2606 9.875 17.1164 9.875 16.9387Z" fill="#2F3132"/>
  <path d="M16.4002 12.7437C16.692 12.383 17.1382 12.1523 17.6383 12.1523H18.0298C18.5298 12.1523 18.976 12.383 19.2678 12.7437H16.4002Z" fill="#2F3132" stroke="white" stroke-width="2"/>
  <path fill-rule="evenodd" clip-rule="evenodd" d="M20.6225 13.5585H22.1766C23.4844 13.5585 24.6338 14.2367 25.2924 15.2605C25.6634 15.8373 25.8786 16.5237 25.8786 17.2605H23.8786H23.6371H12.4141V29.0649H10.4141V17.2605H10.2047C10.0269 17.2605 9.88281 17.1164 9.88281 16.9386C9.88281 16.423 9.99826 15.9343 10.2047 15.4971C10.2421 15.4179 10.2825 15.3404 10.3257 15.2648L10.3281 15.2605C10.9108 14.2436 12.0069 13.5585 13.2629 13.5585H15.0612C15.1562 12.2138 16.2772 11.1523 17.6461 11.1523H18.0376C19.4065 11.1523 20.5275 12.2138 20.6225 13.5585ZM23.2591 26.1422V19.4689H25.2591V26.1422C25.2591 29.4559 22.5729 32.1422 19.2591 32.1422H15.6373V30.1422H19.2591C21.4683 30.1422 23.2591 28.3513 23.2591 26.1422ZM21.3984 21.666C21.9507 21.666 22.3984 22.1137 22.3984 22.666V27.7839C22.3984 28.3362 21.9507 28.7839 21.3984 28.7839C20.8462 28.7839 20.3984 28.3362 20.3984 27.7839V22.666C20.3984 22.1137 20.8462 21.666 21.3984 21.666ZM15.3594 19.4688C15.3594 18.9165 14.9117 18.4688 14.3594 18.4688C13.8071 18.4688 13.3594 18.9165 13.3594 19.4688L13.3594 25.8661C13.3594 26.4184 13.8071 26.8661 14.3594 26.8661C14.9117 26.8661 15.3594 26.4184 15.3594 25.8661V19.4688ZM18.2031 18.4688C18.7554 18.4688 19.2031 18.9165 19.2031 19.4688V22.0277C19.2031 22.58 18.7554 23.0277 18.2031 23.0277C17.6508 23.0277 17.2031 22.58 17.2031 22.0277V19.4688C17.2031 18.9165 17.6508 18.4688 18.2031 18.4688ZM19.2031 25.8652C19.2031 25.3129 18.7554 24.8652 18.2031 24.8652C17.6508 24.8652 17.2031 25.3129 17.2031 25.8652V27.7844C17.2031 28.3367 17.6508 28.7844 18.2031 28.7844C18.7554 28.7844 19.2031 28.3367 19.2031 27.7844V25.8652Z" fill="#2F3132"/>
  <path d="M26.8317 13.7129L8.77344 31.7711" stroke="#2F3132" stroke-width="2" stroke-linecap="round"/>
</svg>
