<svg width="61" height="60" viewBox="0 0 61 60" fill="none" xmlns="http://www.w3.org/2000/svg">
  <path d="M43.4385 21.8549L18.1746 19.5144L16.0595 39.288L43.1956 39.9108L43.4385 21.8549Z" fill="white"/>
  <path fill-rule="evenodd" clip-rule="evenodd" d="M16.8184 20.9661L16.8275 39.001L43.1913 38.9877L43.1821 20.8857L42.9849 21.0297L42.6344 21.2856L31.2337 29.6111C30.5362 30.1204 29.5906 30.1245 28.8887 29.6213L17.2066 21.2444L16.8339 20.9772L16.8184 20.9661ZM14.8184 20.8512C14.8178 19.7467 15.7128 18.8508 16.8174 18.8502L43.1811 18.837C44.2857 18.8364 45.1816 19.7314 45.1821 20.8359L45.1913 38.9867C45.1918 40.0913 44.2968 40.9872 43.1923 40.9877L16.8285 41.001C15.724 41.0016 14.8281 40.1066 14.8275 39.002L14.8184 20.8512ZM30.0542 27.9959L20.6465 21.25L39.2506 21.2801L30.0542 27.9959Z" fill="#2F3132"/>
  <path d="M15.7374 14.2213C16.5199 12.9627 18.3518 12.9627 19.1343 14.2213L19.8158 15.3174C20.3665 16.2031 21.2413 16.8387 22.2538 17.0887L23.5068 17.3981C24.9456 17.7534 25.5117 19.4956 24.5565 20.6288L23.7247 21.6156C23.0525 22.413 22.7184 23.4414 22.7935 24.4816L22.8864 25.7689C22.9931 27.2472 21.5111 28.3239 20.1382 27.7656L18.9426 27.2794C17.9765 26.8866 16.8952 26.8866 15.9291 27.2794L14.7335 27.7656C13.3606 28.3239 11.8786 27.2472 11.9853 25.7689L12.0783 24.4816C12.1534 23.4414 11.8192 22.413 11.147 21.6156L10.3152 20.6288C9.36001 19.4956 9.92608 17.7534 11.3649 17.3981L12.6179 17.0887C13.6304 16.8387 14.5052 16.2031 15.0559 15.3174L15.7374 14.2213Z" fill="white" stroke="#2F3132" stroke-width="2"/>
</svg>
