<?xml version="1.0" encoding="UTF-8"?>
<svg fill="none" viewBox="0 0 82 24" xmlns="http://www.w3.org/2000/svg">
<path d="m51.72 14h-49.72c-1.1046 0-2-0.8954-2-2 0-1.1046 0.89543-2 2-2h49.652c0.8666-5.6626 5.7584-10 11.663-10h5.1774c1.9318 0 3.4977 1.566 3.4977 3.4977v1.047h7.0899c1.1046 0 2 0.89543 2 2s-0.8954 2-2 2h-7.0899v7.078h7.0899c1.1046 0 2 0.8954 2 2s-0.8954 2-2 2h-7.0899v0.4789c0 1.9318-1.5659 3.4977-3.4977 3.4977h-5.1774c-5.7648 0-10.564-4.134-11.595-9.5993zm3.7952-2.2003c0-4.3077 3.4921-7.7997 7.7997-7.7997h4.6751v15.599h-4.6751c-4.3076 0-7.7997-3.492-7.7997-7.7996z" clip-rule="evenodd" fill="#CCA723" fill-rule="evenodd"/>
</svg>
