<svg width="63" height="62" viewBox="0 0 63 62" fill="none" xmlns="http://www.w3.org/2000/svg">
  <path d="M45.513 22.3995L19.644 20.0029L17.4782 40.2502L45.2643 40.8879L45.513 22.3995Z" fill="white"/>
  <path fill-rule="evenodd" clip-rule="evenodd" d="M18.0908 21.4448L18.1001 40.0045L45.1912 39.9908L45.1818 21.3759L44.9988 21.5096L44.6483 21.7656L32.881 30.3587C32.1835 30.8681 31.2379 30.8722 30.536 30.3689L18.4789 21.7232L18.1063 21.4559L18.0908 21.4448ZM16.0907 21.3241C16.0902 20.2195 16.9851 19.3237 18.0897 19.3231L45.1808 19.3095C46.2854 19.3089 47.1812 20.2039 47.1818 21.3085L47.1912 39.9898C47.1918 41.0944 46.2968 41.9903 45.1922 41.9908L18.1011 42.0045C16.9966 42.0051 16.1007 41.1101 16.1001 40.0055L16.0907 21.3241ZM31.7015 28.7436L21.9188 21.7287L41.2645 21.7601L31.7015 28.7436Z" fill="#2F3132"/>
  <rect x="11.2344" y="12.8184" width="10.9" height="10.4393" rx="1" fill="white" stroke="#2F3132" stroke-width="2"/>
  <path d="M11.2344 10.5937C11.2344 10.0415 11.6821 9.59375 12.2344 9.59375H21.1344C21.6867 9.59375 22.1344 10.0415 22.1344 10.5937V12.2009H11.2344V10.5937Z" stroke="#2F3132" stroke-width="2"/>
  <path d="M17.4258 28.9584L21.0011 24.3105H12.2652L15.8406 28.9584C16.2409 29.4788 17.0255 29.4788 17.4258 28.9584Z" fill="white" stroke="#2F3132" stroke-width="2"/>
</svg>
