<svg width="61" height="60" viewBox="0 0 61 60" fill="none" xmlns="http://www.w3.org/2000/svg">
  <path d="M44.0446 21.6429L19.0101 19.3236L16.9141 38.9177L43.8039 39.5349L44.0446 21.6429Z" fill="white"/>
  <path fill-rule="evenodd" clip-rule="evenodd" d="M17.5672 20.7635L17.5762 38.6164L43.6643 38.6032L43.6553 20.7013L43.4683 20.8378L43.1179 21.0938L31.856 29.3178C31.1585 29.8272 30.2129 29.8313 29.511 29.328L17.971 21.0531L17.5983 20.7858L17.5672 20.7635ZM15.5671 20.6677C15.5666 19.5631 16.4616 18.6672 17.5661 18.6667L43.6543 18.6535C44.7588 18.653 45.6547 19.5479 45.6553 20.6525L45.6643 38.6022C45.6649 39.7068 44.7699 40.6027 43.6653 40.6032L17.5772 40.6164C16.4726 40.6169 15.5767 39.722 15.5762 38.6174L15.5671 20.6677ZM30.6765 27.7027L21.4109 21.0586L39.7341 21.0883L30.6765 27.7027Z" fill="#2F3132"/>
  <path d="M17.3351 13.2383C13.5731 13.2383 10.5234 16.2372 10.5234 19.9366C10.5234 21.7391 11.2475 23.3753 12.4251 24.5794C12.8243 24.9875 13.0986 25.5157 13.0986 26.0865C13.0986 27.1112 13.9293 27.9419 14.954 27.9419H17.3351H19.7162C20.7409 27.9419 21.5716 27.1112 21.5716 26.0865C21.5716 25.5157 21.8459 24.9875 22.245 24.5794C23.4227 23.3753 24.1467 21.7391 24.1467 19.9366C24.1467 16.2372 21.097 13.2383 17.3351 13.2383Z" fill="white"/>
  <path d="M14.2615 30.4742H20.2425M24.1467 19.9366C24.1467 16.2372 21.097 13.2383 17.3351 13.2383C13.5731 13.2383 10.5234 16.2372 10.5234 19.9366C10.5234 21.7391 11.2475 23.3753 12.4251 24.5794C12.8243 24.9875 13.0986 25.5157 13.0986 26.0865V26.0865C13.0986 27.1112 13.9293 27.9419 14.954 27.9419H17.3351H19.7162C20.7409 27.9419 21.5716 27.1112 21.5716 26.0865V26.0865C21.5716 25.5157 21.8459 24.9875 22.245 24.5794C23.4227 23.3753 24.1467 21.7391 24.1467 19.9366Z" stroke="#2F3132" stroke-width="2" stroke-linecap="round"/>
</svg>
