<svg width="62" height="62" viewBox="0 0 62 62" fill="none" xmlns="http://www.w3.org/2000/svg">
  <path d="M44.5066 22.3951L18.6434 19.999L16.4781 40.2417L44.2579 40.8793L44.5066 22.3951Z" fill="white"/>
  <path fill-rule="evenodd" clip-rule="evenodd" d="M17.1931 21.4463L17.2025 39.9952L44.2865 39.9816L44.2771 21.366L44.0861 21.5054L43.7356 21.7614L31.9719 30.352C31.2744 30.8613 30.3288 30.8654 29.6269 30.3621L17.5735 21.719L17.2008 21.4518L17.1931 21.4463ZM15.1931 21.32C15.1925 20.2154 16.0875 19.3195 17.192 19.319L44.2761 19.3053C45.3806 19.3048 46.2765 20.1997 46.2771 21.3043L46.2865 39.9806C46.2871 41.0851 45.3921 41.981 44.2875 41.9816L17.2035 41.9952C16.0989 41.9958 15.203 41.1008 15.2025 39.9962L15.1931 21.32ZM30.7924 28.7368L21.0133 21.7246L40.3519 21.7559L30.7924 28.7368Z" fill="#2F3132"/>
  <path d="M4.32812 22.1352C14.0909 10.7165 25.3356 11.3278 33.878 22.1352C24.8125 33.2069 13.0449 32.5968 4.32812 22.1352Z" fill="white"/>
  <path d="M27.8373 16.2614C29.9534 17.6355 31.9823 19.5317 33.878 21.9301C28.1158 28.9675 21.2619 31.2853 14.7937 29.3535M12.7008 28.5739C9.7426 27.2499 6.90233 25.0196 4.32812 21.9301C11.3311 13.7393 19.0965 11.7385 26.0801 15.2505" stroke="#2F3132" stroke-width="2"/>
  <path d="M23.7713 20.3676C23.9346 20.8599 24.0231 21.3863 24.0231 21.9334C24.0231 24.6775 21.7986 26.902 19.0545 26.902C18.4952 26.902 17.9575 26.8096 17.4558 26.6392M22.586 18.4384C21.6855 17.5285 20.4358 16.9648 19.0545 16.9648C16.3104 16.9648 14.0859 19.1893 14.0859 21.9334C14.0859 23.3396 14.6701 24.6093 15.609 25.5132" stroke="#2F3132" stroke-width="2"/>
  <path d="M28.7458 12.5684L10.6875 30.6266" stroke="#2F3132" stroke-width="2" stroke-linecap="round"/>
</svg>
