<svg width="411" height="414" viewBox="0 0 411 414" fill="none" xmlns="http://www.w3.org/2000/svg">
<g opacity="0.3" filter="url(#filter0_f_361_1514)">
<path d="M94.555 245.918L94.5657 245.907L190.843 149.016L286.818 245.903C310.324 269.321 310.224 307.448 286.848 330.946L233.016 385.058C209.726 408.686 171.803 408.58 148.427 385.076L94.5944 330.948C71.0941 307.534 71.19 269.418 94.5533 245.919L94.555 245.918Z" fill="#D9D9D9"/>
</g>
<path d="M266.94 399.889L259.369 401.611L249.121 373.23L260.296 370.688L266.94 399.889Z" fill="#FFB6B6"/>
<path d="M269.004 407.726L245.72 413.023L245.653 412.728C245.107 410.325 245.537 407.803 246.85 405.717C248.163 403.631 250.25 402.152 252.654 401.605L252.654 401.605L256.173 397.411L264.843 398.832L266.875 398.37L269.004 407.726Z" fill="#191919"/>
<path d="M389.083 261.548L393.245 268.102L369.943 287.276L363.799 277.602L389.083 261.548Z" fill="#FFB6B6"/>
<path d="M395.775 256.975L408.576 277.13L408.321 277.291C406.24 278.613 403.72 279.053 401.314 278.516C398.908 277.98 396.814 276.509 395.493 274.429L395.492 274.428L390.361 272.521L388.791 263.878L387.674 262.118L395.775 256.975Z" fill="#191919"/>
<path d="M147.726 191.475L145.856 180.637L174.287 167.8L180.427 156.931C180.229 155.977 180.298 154.987 180.627 154.07C180.957 153.153 181.533 152.345 182.292 151.735C183.052 151.125 183.966 150.737 184.932 150.613C185.898 150.49 186.88 150.636 187.769 151.035C188.658 151.435 189.419 152.072 189.968 152.876C190.517 153.681 190.833 154.622 190.881 155.595C190.929 156.568 190.708 157.535 190.24 158.39C189.773 159.245 189.079 159.954 188.234 160.439L178.133 176.052L147.726 191.475Z" fill="#A0616A"/>
<path d="M139.083 182.615L151.887 176.076L155.276 188.801L146.383 195.392L139.083 182.615Z" fill="#0084BC"/>
<path d="M110.353 398.903L118.095 398.903L121.777 369.047L110.352 369.047L110.353 398.903Z" fill="#A0616A"/>
<path d="M120.671 399.6V394.353L118.636 394.477L110.351 394.968L108.434 395.085L106.968 412.66L106.889 413.602H112.386L112.563 412.666L113.361 408.414L115.422 412.666L115.874 413.602H130.447C131.315 413.597 132.145 413.249 132.757 412.636C133.37 412.022 133.716 411.191 133.719 410.324C134.334 407.452 122.215 401.242 120.671 399.6Z" fill="#191919"/>
<path d="M18.4589 280.417L16.6543 287.944L44.833 298.486L47.4962 287.377L18.4589 280.417Z" fill="#A0616A"/>
<path d="M15.9884 290.286L21.092 291.51L21.4456 289.502L22.9 281.332L23.2325 279.441L6.48175 273.918L5.58369 273.622L4.30202 278.966L5.17082 279.356L9.121 281.124L4.50405 282.137L3.48877 282.358L0.0908566 296.527C-0.106005 297.372 0.0382555 298.26 0.49234 298.999C0.946424 299.737 1.67365 300.267 2.5161 300.473C5.16629 301.741 14.0311 291.405 15.9884 290.286Z" fill="#191919"/>
<path d="M122.323 205.676L112.359 201.019L92.4874 225.063L80.3835 228.124C79.5155 227.681 78.542 227.488 77.5707 227.564C76.5993 227.64 75.6679 227.983 74.8793 228.555C74.0907 229.127 73.4756 229.906 73.1019 230.806C72.7282 231.705 72.6106 232.691 72.7619 233.653C72.9132 234.615 73.3276 235.517 73.9594 236.259C74.5911 237.001 75.4156 237.553 76.3417 237.856C77.2678 238.158 78.2596 238.199 79.2074 237.973C80.1552 237.748 81.0223 237.265 81.7127 236.577L99.4367 230.946L122.323 205.676Z" fill="#A0616A"/>
<path d="M263.593 116.666C261.481 116.666 259.416 116.04 257.66 114.867C255.904 113.694 254.535 112.026 253.726 110.075C252.918 108.124 252.707 105.977 253.119 103.905C253.531 101.834 254.548 99.9314 256.042 98.438C257.535 96.9447 259.438 95.9277 261.51 95.5157C263.581 95.1037 265.728 95.3152 267.68 96.1234C269.631 96.9316 271.299 98.3002 272.473 100.056C273.646 101.812 274.272 103.877 274.272 105.988C274.269 108.819 273.143 111.534 271.141 113.535C269.139 115.537 266.424 116.663 263.593 116.666V116.666ZM263.593 96.536C261.723 96.536 259.895 97.0903 258.341 98.129C256.786 99.1677 255.574 100.644 254.859 102.371C254.143 104.098 253.956 105.999 254.321 107.833C254.686 109.666 255.586 111.35 256.908 112.672C258.23 113.994 259.915 114.895 261.749 115.259C263.582 115.624 265.483 115.437 267.211 114.721C268.938 114.006 270.415 112.794 271.454 111.24C272.492 109.686 273.047 107.858 273.047 105.988C273.044 103.482 272.047 101.08 270.275 99.3077C268.502 97.5356 266.099 96.5388 263.593 96.536V96.536Z" fill="#C7C7C7"/>
<path d="M262.84 110.011C262.818 110.011 262.797 110.01 262.775 110.009C262.586 110 262.4 109.95 262.232 109.863C262.063 109.775 261.916 109.652 261.799 109.502L260.117 107.34C260.011 107.203 259.932 107.047 259.887 106.881C259.841 106.714 259.828 106.54 259.85 106.368C259.871 106.196 259.926 106.031 260.011 105.88C260.097 105.73 260.211 105.598 260.348 105.492L260.408 105.445C260.545 105.338 260.701 105.26 260.868 105.214C261.035 105.168 261.209 105.156 261.381 105.177C261.552 105.199 261.718 105.254 261.868 105.339C262.019 105.425 262.151 105.539 262.257 105.676C262.342 105.785 262.45 105.874 262.572 105.938C262.695 106.002 262.83 106.038 262.968 106.045C263.106 106.052 263.244 106.028 263.373 105.977C263.501 105.925 263.617 105.847 263.712 105.747L267.128 102.141C267.368 101.888 267.699 101.74 268.048 101.731C268.397 101.721 268.736 101.851 268.99 102.09L269.046 102.144C269.171 102.263 269.272 102.405 269.343 102.563C269.413 102.721 269.452 102.891 269.457 103.064C269.461 103.237 269.432 103.409 269.37 103.571C269.308 103.732 269.215 103.88 269.096 104.005L263.795 109.6C263.672 109.73 263.524 109.833 263.36 109.904C263.195 109.975 263.018 110.011 262.84 110.011Z" fill="#C7C7C7"/>
<path d="M93.2399 101.962C91.1277 101.962 89.063 101.335 87.3068 100.162C85.5506 98.9887 84.1818 97.321 83.3735 95.3699C82.5652 93.4188 82.3537 91.2718 82.7657 89.2005C83.1778 87.1292 84.1949 85.2265 85.6885 83.7332C87.182 82.2399 89.0849 81.2229 91.1565 80.8109C93.2281 80.3989 95.3754 80.6103 97.3268 81.4185C99.2782 82.2267 100.946 83.5953 102.12 85.3513C103.293 87.1073 103.919 89.1717 103.919 91.2836C103.916 94.1146 102.79 96.8288 100.788 98.8306C98.7858 100.832 96.0713 101.958 93.2399 101.962ZM93.2399 81.8311C91.3701 81.8311 89.5424 82.3855 87.9877 83.4242C86.433 84.4628 85.2213 85.9391 84.5057 87.6663C83.7902 89.3935 83.603 91.2941 83.9678 93.1277C84.3325 94.9613 85.2329 96.6456 86.5551 97.9676C87.8772 99.2895 89.5617 100.19 91.3956 100.555C93.2294 100.919 95.1303 100.732 96.8578 100.017C98.5852 99.3012 100.062 98.0896 101.101 96.5352C102.139 94.9807 102.694 93.1532 102.694 91.2836C102.691 88.7775 101.694 86.3749 99.9217 84.6028C98.1494 82.8308 95.7464 81.834 93.2399 81.8311V81.8311Z" fill="#C7C7C7"/>
<path d="M92.4865 95.3063C92.4651 95.3063 92.4436 95.3056 92.4221 95.3046C92.2325 95.2954 92.0471 95.2454 91.8787 95.1579C91.7103 95.0704 91.5628 94.9475 91.4463 94.7976L89.764 92.6351C89.6577 92.4986 89.5794 92.3425 89.5335 92.1758C89.4876 92.009 89.475 91.8348 89.4965 91.6632C89.5179 91.4916 89.573 91.3259 89.6585 91.1755C89.744 91.0252 89.8583 90.8931 89.9948 90.787L90.0553 90.7399C90.1919 90.6336 90.348 90.5552 90.5148 90.5093C90.6817 90.4634 90.8559 90.4508 91.0276 90.4723C91.1993 90.4937 91.3651 90.5488 91.5155 90.6343C91.6659 90.7199 91.7979 90.8342 91.9041 90.9709C91.9891 91.0799 92.0966 91.1694 92.2193 91.2331C92.3421 91.2968 92.4771 91.3333 92.6153 91.34C92.7534 91.3467 92.8913 91.3235 93.0197 91.2721C93.148 91.2206 93.2637 91.142 93.3589 91.0417L96.7746 87.4361C97.0151 87.1829 97.3462 87.0354 97.6952 87.0259C98.0443 87.0164 98.383 87.1457 98.6368 87.3855L98.6928 87.4389C98.8184 87.5578 98.9194 87.7003 98.9899 87.8582C99.0604 88.0162 99.099 88.1865 99.1037 88.3594C99.1084 88.5322 99.0789 88.7044 99.017 88.8659C98.9552 89.0274 98.8621 89.1751 98.7431 89.3007L93.4423 94.895C93.3193 95.0249 93.1711 95.1284 93.0068 95.1991C92.8425 95.2699 92.6654 95.3063 92.4865 95.3063Z" fill="#C7C7C7"/>
<path d="M144.769 99.8713C147.628 99.8713 149.945 96.764 149.945 92.931C149.945 89.098 147.628 85.9907 144.769 85.9907C141.91 85.9907 139.592 89.098 139.592 92.931C139.592 96.764 141.91 99.8713 144.769 99.8713Z" fill="#C7C7C7"/>
<path d="M190.934 81.8133C194.657 81.8133 197.675 78.7959 197.675 75.0737C197.675 71.3514 194.657 68.334 190.934 68.334C187.211 68.334 184.193 71.3514 184.193 75.0737C184.193 78.7959 187.211 81.8133 190.934 81.8133Z" fill="#CCA723"/>
<path d="M112.277 244.407C112.277 244.407 95.9275 255.052 100.251 262.125C100.4 262.369 80.7214 288.355 80.7214 288.355L43.5734 285.997L42.2646 298.429L75.3364 308.006C75.3364 308.006 83.427 313.949 89.6773 307.401C95.9275 300.853 116.746 280.801 116.746 280.801L117.751 321.286L107.3 377.386L122.904 376.397L138.092 320.114L143.698 256.36L112.277 244.407Z" fill="#191919"/>
<path d="M123.923 180.522L117.048 185.731L109.211 202.454L116.746 212.687C116.746 212.687 123.085 223.67 112.939 234.307C102.794 244.944 95.0027 256.305 103.123 255.899C111.244 255.493 144.134 272.22 144.35 258.516C144.567 244.813 145.005 234.307 145.005 234.307L153.627 212.439C153.627 212.439 158.765 199.394 155.158 195.489C151.551 191.584 146.722 186.594 146.722 186.594L137.939 177.813H130.009L123.923 180.522Z" fill="#0084BC"/>
<path d="M136.757 148.391C152.181 157.167 139.519 180.321 123.807 172.076C108.384 163.301 121.046 140.146 136.757 148.391Z" fill="#A0616A"/>
<path d="M145.005 153.257C143.924 154.662 141.666 154.003 137.244 155.006C137.254 153.508 137.081 152.013 136.729 150.557C136.4 152.36 135.679 154.07 134.617 155.564C130.777 155.99 135.484 167.652 133.518 176.227C130.985 158.137 125.658 162.877 128.349 166.465C130.072 168.762 128.923 175.653 123.754 172.207C115.226 176.26 103.078 156.128 116.541 146.686C116.301 141.583 121.98 140.777 125.477 142.346C133.965 136.024 143.662 144.124 145.005 153.257Z" fill="#191919"/>
<path d="M105.43 140.057C101.996 161.167 83.5907 136.175 74.9365 156.949C72.2155 164.472 76.884 169.854 79.8371 176.099C80.5111 181.231 73.8338 183.835 73.1344 188.559C72.9398 199.389 90.4148 198.726 95.3001 191.893C100.32 184.741 94.3255 175.144 97.3427 167.466C101.583 156.807 118.829 156.728 120.331 144.326C117.422 140.183 109.598 135.439 105.43 140.057Z" fill="#191919"/>
<path d="M119.341 142.12C119.229 142.167 119.116 142.215 119.016 142.268H119.01C118.915 142.315 118.821 142.362 118.726 142.416C118.714 142.421 118.708 142.427 118.696 142.433C118.572 142.315 118.448 142.197 118.318 142.079C118.284 142.271 118.292 142.469 118.342 142.658L118.359 142.729C118.478 142.853 118.602 142.971 118.732 143.095C118.85 143.007 118.962 142.912 119.081 142.823C119.152 142.764 119.223 142.705 119.3 142.646C119.311 142.492 119.329 142.315 119.347 142.12L119.341 142.12ZM122.9 135.546C120.263 134.943 119.412 138.39 119.158 140.051C118.2 134.021 114.215 135.918 115.592 140.033C116.031 141.251 116.722 142.363 117.62 143.296C117.744 143.438 117.88 143.58 118.022 143.722C117.863 144.55 118.667 144.337 119.755 143.574C120.558 143.003 121.301 142.351 121.972 141.629C124.142 139.353 125.833 136.309 122.9 135.546V135.546ZM122.983 138.939C122.169 139.988 121.257 140.956 120.257 141.83C119.944 142.114 119.625 142.386 119.299 142.646C119.294 142.699 119.294 142.747 119.288 142.788C119.265 142.845 119.237 142.901 119.205 142.954C118.874 143.551 118.501 143.225 118.359 142.729C118.348 142.711 118.33 142.693 118.318 142.676C117.845 142.188 117.434 141.644 117.094 141.056C114.652 136.823 118.584 133.944 118.389 141.848C118.353 141.921 118.329 141.998 118.318 142.079C118.284 142.271 118.292 142.469 118.342 142.658L118.359 142.729C118.478 142.853 118.602 142.971 118.732 143.095C118.85 143.007 118.962 142.912 119.081 142.823C119.152 142.764 119.223 142.705 119.3 142.646C119.311 142.492 119.329 142.315 119.347 142.12V142.114C119.501 140.53 119.92 137.68 120.695 136.906C122.398 135.599 124.603 137.012 122.983 138.939V138.939ZM119.341 142.12C119.229 142.167 119.116 142.215 119.016 142.268H119.01C118.915 142.315 118.821 142.362 118.726 142.416C118.714 142.421 118.708 142.427 118.696 142.433C118.572 142.315 118.448 142.197 118.318 142.079C118.284 142.271 118.292 142.469 118.342 142.658L118.359 142.729C118.478 142.853 118.602 142.971 118.732 143.095C118.85 143.007 118.962 142.912 119.081 142.823C119.152 142.764 119.223 142.705 119.3 142.646C119.311 142.492 119.329 142.315 119.347 142.12L119.341 142.12Z" fill="#191919"/>
<path d="M261.9 258.507L256.204 273.361L229.481 326.065L252.962 387.376L265.081 384.178L255.092 326.065L283.748 291.252L317.78 314.33C317.78 314.33 332.873 326.112 338.614 314.943C344.356 303.775 381.509 280.019 381.509 280.019L372.317 270.216L329.534 290.235L300.004 248.677L261.9 258.507Z" fill="#191919"/>
<path d="M290.644 188.443L281.267 178.37L265.181 176.157L245.472 189.953L245.67 205.223L255.413 241.206C255.413 241.206 251.702 267.059 262.068 266.799C272.434 266.54 278.084 261.373 282.306 262.425C286.528 263.477 304.475 267.953 305.612 263.264C306.75 258.575 312.796 261.932 312.53 257.497C312.265 253.061 296.163 221.086 296.163 221.086L300.167 189.108L290.644 188.443Z" fill="#0084BC"/>
<path d="M350.017 142.074C350.101 142.909 350.001 143.753 349.723 144.545C349.446 145.338 348.998 146.06 348.411 146.66C347.825 147.261 347.113 147.726 346.328 148.022C345.542 148.318 344.701 148.438 343.863 148.374L322.299 189.38L316.51 180.493L338.551 141.793C338.752 140.394 339.459 139.117 340.539 138.204C341.619 137.291 342.996 136.806 344.409 136.841C345.822 136.876 347.174 137.428 348.207 138.392C349.241 139.356 349.885 140.666 350.017 142.074V142.074Z" fill="#FFB6B6"/>
<path d="M282.13 196.068C282.13 196.068 281.275 203.361 289.488 205.167C297.7 206.973 320.453 193.974 324.183 191.988C325.351 191.367 326.936 188.319 328.562 184.426C329.292 182.679 330.031 180.76 330.743 178.815C331.156 177.689 333.131 177.382 333.519 176.265C333.906 175.155 332.706 173.235 333.056 172.188C334.718 167.221 335.895 163.28 335.895 163.28L330.452 153.056C322.839 157.08 318.935 165.944 316.063 176.156L282.13 196.068Z" fill="#0084BC"/>
<path d="M186.218 151.49C186.346 152.32 186.654 153.112 187.121 153.81C187.588 154.507 188.202 155.094 188.92 155.529C189.639 155.964 190.444 156.236 191.279 156.326C192.113 156.416 192.958 156.322 193.752 156.05L224.894 190.355L228.275 180.303L197.248 148.349C196.704 147.045 195.699 145.986 194.426 145.372C193.152 144.759 191.697 144.634 190.338 145.021C188.978 145.408 187.808 146.28 187.048 147.473C186.289 148.665 185.993 150.095 186.218 151.49V151.49Z" fill="#FFB6B6"/>
<path d="M265.459 186.779C265.459 186.779 268.112 193.627 260.613 197.43C253.114 201.234 227.831 194.341 223.723 193.353C222.437 193.043 220.139 190.489 217.591 187.127C216.446 185.617 215.251 183.945 214.074 182.24C213.393 181.253 211.404 181.45 210.748 180.466C210.096 179.487 210.777 177.328 210.176 176.403C207.324 172.009 205.198 168.488 205.198 168.488L207.909 157.228C216.287 159.219 222.286 166.824 227.622 175.992L265.459 186.779Z" fill="#0084BC"/>
<path d="M273.545 173.595C281.997 173.595 288.849 166.743 288.849 158.292C288.849 149.84 281.997 142.989 273.545 142.989C265.092 142.989 258.24 149.84 258.24 158.292C258.24 166.743 265.092 173.595 273.545 173.595Z" fill="#FFB6B6"/>
<path d="M291.015 149.53C289.405 147.039 286.384 145.38 283.456 145.846C283.183 143.977 282.403 142.219 281.2 140.763C279.997 139.307 278.418 138.208 276.634 137.587C274.85 136.967 272.93 136.847 271.083 137.242C269.236 137.636 267.532 138.53 266.158 139.826C265.706 139.507 265.18 139.311 264.63 139.256C264.08 139.201 263.525 139.289 263.019 139.511C262.011 139.97 261.134 140.673 260.468 141.558C258.788 143.654 257.707 146.166 257.341 148.827C256.975 151.488 257.337 154.198 258.389 156.669C258.032 155.368 259.336 154.144 260.653 153.852C261.971 153.56 263.353 153.837 264.689 153.646C266.401 153.403 267.941 152.41 269.656 152.186C271.11 152.091 272.569 152.279 273.952 152.738C275.335 153.197 276.792 153.393 278.247 153.315C279.691 153.143 281.55 158.613 281.526 162.466C281.521 163.196 281.671 164.133 282.385 164.288C283.264 164.479 283.773 163.266 284.609 162.936C284.995 162.825 285.408 162.869 285.762 163.057C286.116 163.245 286.383 163.564 286.507 163.945C286.613 164.333 286.624 164.74 286.54 165.133C286.457 165.526 286.28 165.893 286.026 166.204C285.512 166.821 284.901 167.35 284.218 167.772L284.563 168.058C284.89 168.404 285.327 168.625 285.799 168.683C286.271 168.742 286.749 168.635 287.15 168.38C287.94 167.845 288.58 167.117 289.008 166.265C290.623 163.768 291.777 161.003 292.416 158.1C292.955 155.184 292.625 152.02 291.015 149.53Z" fill="#191919"/>
<path d="M320.776 412.955C320.306 414.348 51.8628 414.348 51.3555 412.959C51.8251 411.563 320.268 411.563 320.776 412.955Z" fill="#CCCCCC"/>
<path d="M189.051 103.992C189.033 104.009 189.017 104.027 189 104.045C186.276 101.339 181.888 101.316 179.135 103.991C176.372 106.677 176.279 111.086 178.926 113.887L178.924 113.889L178.99 113.957L188.737 124L198.841 114.18L198.813 114.151C198.83 114.135 198.847 114.12 198.864 114.103C201.654 111.391 201.719 106.93 199.009 104.138C196.3 101.345 191.841 101.28 189.051 103.992L189.051 103.992V103.992Z" fill="#0084BC"/>
<defs>
<filter id="filter0_f_361_1514" x="73" y="145.016" width="235.414" height="261.726" filterUnits="userSpaceOnUse" color-interpolation-filters="sRGB">
<feFlood flood-opacity="0" result="BackgroundImageFix"/>
<feBlend mode="normal" in="SourceGraphic" in2="BackgroundImageFix" result="shape"/>
<feGaussianBlur stdDeviation="2" result="effect1_foregroundBlur_361_1514"/>
</filter>
</defs>
</svg>
