<svg width="551" height="529" viewBox="0 0 551 529" fill="none" xmlns="http://www.w3.org/2000/svg">
<g opacity="0.3" filter="url(#filter0_f_361_1732)">
<path d="M120.088 175.272L120.103 175.257L257.694 37L394.854 175.214C428.446 208.621 428.304 263.018 394.897 296.547L317.964 373.763C284.68 407.477 230.484 407.334 197.077 373.804L120.144 296.589C86.5598 263.188 86.6969 208.805 120.086 175.275L120.088 175.272Z" fill="#D9D9D9"/>
</g>
<path d="M523.762 223.996C539.081 200.031 533.24 168.932 516.953 158.522C500.666 148.111 469.989 155.867 454.671 179.833C440.492 202.015 445.176 230.762 458.114 242.692C457.865 242.732 457.626 242.818 457.41 242.948L453.621 245.323C453.332 245.504 453.094 245.756 452.93 246.054C452.766 246.353 452.681 246.689 452.683 247.03C452.685 247.371 452.774 247.705 452.942 248.002C453.11 248.299 453.351 248.548 453.642 248.725L461.778 253.683C462.069 253.861 462.401 253.961 462.742 253.974C463.082 253.987 463.421 253.913 463.725 253.759C464.029 253.604 464.288 253.375 464.478 253.092C464.669 252.809 464.784 252.482 464.812 252.142L465.186 247.686C465.195 247.53 465.187 247.374 465.16 247.221C481.426 254.046 509.552 246.227 523.762 223.996Z" fill="#CCA723"/>
<path d="M515.975 176.719C518.463 184.701 517.82 193.331 514.177 200.856C510.533 208.382 504.162 214.238 496.357 217.237C494.575 217.924 495.349 220.826 497.155 220.13C505.712 216.897 512.719 210.529 516.752 202.318C520.784 194.108 521.541 184.67 518.868 175.921C518.31 174.079 515.413 174.864 515.975 176.719Z" fill="white"/>
<path d="M28.2293 216.981C44.0442 195.816 72.9892 190.709 87.3726 201.457C101.756 212.205 105.06 241.411 89.2451 262.575C74.6065 282.165 48.0849 287.507 33.4769 280.168C33.5241 280.397 33.527 280.633 33.4855 280.863L32.6619 284.935C32.5992 285.245 32.4581 285.535 32.2521 285.775C32.0461 286.016 31.7821 286.2 31.485 286.309C31.188 286.419 30.8678 286.451 30.5549 286.402C30.2421 286.354 29.9468 286.226 29.6973 286.031L22.7231 280.582C22.4736 280.387 22.278 280.132 22.1549 279.84C22.0319 279.548 21.9855 279.23 22.0201 278.915C22.0548 278.6 22.1693 278.3 22.3528 278.041C22.5363 277.783 22.7828 277.576 23.0687 277.44L26.8202 275.656C26.9523 275.597 27.0908 275.553 27.233 275.527C15.9731 263.623 13.5588 236.613 28.2293 216.981Z" fill="#C7C7C7"/>
<path d="M62.8222 208.99C55.0861 210.219 48.117 214.371 43.3535 220.589C38.5901 226.807 36.3958 234.617 37.2236 242.406C37.3936 244.191 34.6058 244.179 34.4369 242.406C33.6395 234.011 36.0455 225.624 41.1725 218.928C46.2995 212.233 53.7684 207.723 62.0814 206.303C63.8355 206.005 64.5893 208.69 62.8222 208.99Z" fill="white"/>
<path d="M422.792 438.65C435.222 419.205 430.483 393.971 417.268 385.524C404.052 377.077 379.161 383.37 366.731 402.816C355.226 420.815 359.027 444.14 369.525 453.821C369.323 453.853 369.129 453.923 368.954 454.028L365.879 455.955C365.645 456.102 365.452 456.306 365.319 456.549C365.186 456.791 365.117 457.064 365.118 457.34C365.12 457.617 365.193 457.888 365.329 458.129C365.465 458.37 365.661 458.572 365.897 458.716L372.498 462.739C372.735 462.883 373.004 462.964 373.28 462.974C373.556 462.985 373.831 462.925 374.078 462.8C374.324 462.675 374.535 462.488 374.689 462.259C374.844 462.029 374.937 461.764 374.96 461.488L375.263 457.872C375.271 457.746 375.264 457.62 375.242 457.495C388.44 463.033 411.262 456.689 422.792 438.65Z" fill="#C7C7C7"/>
<path d="M245.646 194.642C262.41 194.642 276 181.053 276 164.289C276 147.525 262.41 133.935 245.646 133.935C228.882 133.935 215.293 147.525 215.293 164.289C215.293 181.053 228.882 194.642 245.646 194.642Z" fill="#2F2E41"/>
<path d="M297.112 457.499L286.085 462.857L260.169 422.876L276.443 414.967L297.112 457.499Z" fill="#A0616A"/>
<path d="M276.678 463.534L297.943 453.2L304.45 466.59L269.795 483.431C268.94 481.673 268.441 479.763 268.324 477.812C268.207 475.86 268.476 473.905 269.116 472.057C269.755 470.21 270.751 468.506 272.049 467.044C273.346 465.581 274.919 464.389 276.678 463.534Z" fill="#3B4954"/>
<path d="M275.11 456.454C274.753 456.454 274.397 456.412 274.05 456.33C273.387 456.17 272.766 455.867 272.232 455.442C271.698 455.018 271.264 454.481 270.959 453.871L241.369 395.224C240.885 394.256 240.738 393.153 240.952 392.092C241.166 391.03 241.729 390.071 242.551 389.366L259.028 375.506C259.583 375.031 260.245 374.697 260.956 374.532C261.667 374.367 262.408 374.375 263.115 374.556C263.838 374.737 264.506 375.089 265.065 375.582C265.623 376.075 266.055 376.695 266.324 377.389L291.616 440.896C292.013 441.882 292.072 442.97 291.785 443.993C291.498 445.016 290.88 445.915 290.029 446.55L277.848 455.549C277.056 456.135 276.096 456.453 275.11 456.454Z" fill="black"/>
<path d="M264.604 485.706L253.307 490.467L229.566 449.157L246.24 442.13L264.604 485.706Z" fill="#A0616A"/>
<path d="M243.877 490.64L265.665 481.458L271.446 495.177L235.94 510.14C235.18 508.338 234.784 506.405 234.772 504.45C234.76 502.495 235.133 500.557 235.87 498.746C236.607 496.936 237.693 495.288 239.067 493.897C240.441 492.506 242.075 491.399 243.877 490.64Z" fill="#67788B"/>
<path d="M246.604 485.574C245.809 485.574 245.028 485.363 244.341 484.962C243.654 484.561 243.086 483.985 242.696 483.293C238.583 476.007 227.447 455.758 212.899 425.132C195.634 388.784 233.875 348.499 241.716 340.793C242.069 340.444 242.344 340.025 242.522 339.562C242.7 339.099 242.778 338.604 242.749 338.109L241.051 307.538C240.987 306.428 241.338 305.333 242.035 304.467C242.732 303.6 243.726 303.023 244.824 302.847L289.977 295.522C290.758 295.398 291.557 295.48 292.296 295.76C293.036 296.04 293.689 296.508 294.192 297.118C301.82 306.378 305.097 316.339 303.932 326.725C301.554 347.931 281.576 363.942 279.306 365.698C279.214 365.769 279.125 365.845 279.041 365.926L238.168 404.898C237.657 405.382 237.304 406.009 237.157 406.697C237.009 407.385 237.074 408.101 237.342 408.752L262.628 470.817C263.01 471.751 263.067 472.786 262.789 473.756C262.511 474.726 261.914 475.574 261.095 476.163L249.245 484.72C248.476 485.275 247.552 485.574 246.604 485.574Z" fill="#191919"/>
<path d="M207.044 275.35C206.033 275.352 205.051 275.014 204.256 274.389L167.821 245.757C167.481 245.876 167.135 245.978 166.784 246.061C164.667 246.559 162.449 246.418 160.411 245.655C158.374 244.892 156.608 243.543 155.338 241.776C154.068 240.01 153.35 237.907 153.274 235.733C153.199 233.559 153.771 231.411 154.916 229.562C156.062 227.712 157.73 226.244 159.71 225.342C161.69 224.441 163.893 224.147 166.04 224.498C168.187 224.848 170.182 225.828 171.772 227.312C173.363 228.796 174.478 230.719 174.975 232.837C175.085 233.314 175.162 233.799 175.204 234.288L206.351 256.917L218.258 244.71L229.969 260.042L209.655 274.52C208.892 275.062 207.979 275.352 207.044 275.35Z" fill="#A0616A"/>
<path d="M241.965 202.352C255.529 202.352 266.526 191.355 266.526 177.791C266.526 164.226 255.529 153.23 241.965 153.23C228.4 153.23 217.404 164.226 217.404 177.791C217.404 191.355 228.4 202.352 241.965 202.352Z" fill="#A0616A"/>
<path d="M238.919 265C238.024 264.999 237.154 264.735 236.443 264.246L212.608 247.899C212.14 247.578 211.754 247.169 211.478 246.701C211.201 246.234 211.041 245.717 211.007 245.189C210.972 244.659 211.067 244.13 211.281 243.637C211.496 243.144 211.827 242.698 212.252 242.331L235.158 222.5C236.716 221.151 238.72 220.297 240.866 220.064C243.014 219.832 245.186 220.235 247.055 221.212C248.925 222.189 250.389 223.687 251.225 225.478C252.062 227.271 252.226 229.259 251.693 231.142L242.885 262.231C242.66 263.023 242.148 263.724 241.43 264.226C240.712 264.728 239.829 265 238.919 265Z" fill="#BFD5DF"/>
<path d="M253.561 322.629C251.564 322.644 249.58 322.289 247.712 321.582C244.927 320.5 242.597 318.495 241.112 315.901C233.527 302.666 217.175 261.649 232.403 231.193C242.657 210.685 254 205.81 261.709 205.331C268.827 204.891 270.206 206.466 272.584 212.871C273.903 216.423 276.468 221.5 279.438 227.379C290.101 248.484 306.214 280.379 292.731 296.241C278.174 313.367 264.291 322.628 253.561 322.629Z" fill="#E8F0F3"/>
<path d="M251.22 305.035C248.844 305.024 246.535 304.246 244.637 302.818C242.739 301.389 241.352 299.385 240.685 297.105C240.252 295.617 240.139 294.054 240.352 292.519C240.565 290.983 241.101 289.511 241.923 288.197C242.745 286.883 243.835 285.757 245.123 284.894C246.41 284.031 247.865 283.449 249.393 283.187C249.877 283.108 250.366 283.061 250.857 283.048L283.351 242.917L272.5 231.226L288.522 220.478L301.726 241.643C302.238 242.47 302.469 243.441 302.386 244.41C302.303 245.379 301.909 246.295 301.264 247.023L261.85 291.123C261.949 291.469 262.029 291.821 262.091 292.176C262.352 293.703 262.288 295.269 261.901 296.771C261.515 298.272 260.816 299.675 259.85 300.887C258.884 302.099 257.673 303.094 256.296 303.805C254.918 304.517 253.406 304.929 251.859 305.015C251.646 305.028 251.432 305.035 251.22 305.035Z" fill="#A0616A"/>
<path d="M272.871 241.214C272.311 241.213 271.759 241.069 271.27 240.796C270.78 240.523 270.369 240.129 270.074 239.652L256.668 217.905C255.814 216.511 255.406 214.889 255.499 213.257C255.593 211.624 256.183 210.059 257.191 208.772C258.332 207.333 259.933 206.328 261.725 205.927C263.518 205.526 265.393 205.752 267.039 206.568L292.685 219.39C293.17 219.633 293.588 219.992 293.9 220.436C294.213 220.88 294.411 221.394 294.476 221.933C294.542 222.472 294.472 223.018 294.275 223.524C294.077 224.029 293.757 224.478 293.343 224.83L274.998 240.43C274.404 240.936 273.65 241.213 272.871 241.214Z" fill="#E8F0F3"/>
<path d="M259 139.855C259 139.855 247.487 151.163 222.496 154.733C197.504 158.303 217.141 197.575 217.141 197.575C217.141 197.575 210 183.295 224.281 170.799C238.562 158.303 259 155.921 259 139.855Z" fill="#2F2E41"/>
<path d="M246.763 131.855C246.763 131.855 253.904 156.847 264.614 160.417C275.325 163.987 269.97 201.474 252.119 205.044C252.119 205.044 267.292 184.516 258.366 168.45C249.441 152.384 244.086 139.888 246.763 131.855Z" fill="#2F2E41"/>
<path d="M263.41 150.322C263.3 150.298 263.191 150.268 263.084 150.232L235.098 140.677C234.646 140.522 234.242 140.253 233.926 139.896C233.61 139.539 233.392 139.105 233.294 138.638C233.196 138.171 233.221 137.687 233.367 137.233C233.512 136.778 233.774 136.37 234.125 136.047L256.552 115.442C256.914 115.109 257.358 114.88 257.839 114.777C258.32 114.674 258.82 114.702 259.286 114.858C259.752 115.014 260.169 115.292 260.491 115.663C260.813 116.035 261.031 116.486 261.12 116.969L266.679 147.13C266.761 147.574 266.732 148.031 266.596 148.461C266.459 148.892 266.218 149.282 265.895 149.597C265.572 149.912 265.177 150.144 264.743 150.27C264.31 150.396 263.852 150.414 263.41 150.322Z" fill="#022B3D"/>
<path d="M250.411 121.83L261.905 124.276L261.283 120.896L253.283 119.193L250.411 121.83Z" fill="#075171"/>
<path d="M248.022 124.028L262.426 127.093L263.049 130.473L245.15 126.664L248.022 124.028Z" fill="#075171"/>
<path d="M416.474 400.29C418.493 406.766 417.971 413.769 415.015 419.875C412.058 425.981 406.889 430.733 400.556 433.166C399.109 433.723 399.738 436.078 401.203 435.513C408.147 432.89 413.832 427.723 417.104 421.061C420.376 414.399 420.99 406.741 418.821 399.642C418.368 398.147 416.018 398.785 416.474 400.29Z" fill="white"/>
<path d="M116.959 37.5864C99.9333 14.8022 68.7726 9.30336 53.2881 20.8742C37.8036 32.445 34.2467 63.8866 51.2722 86.6708C67.0314 107.76 95.5832 113.512 111.309 105.611C111.259 105.858 111.256 106.112 111.3 106.36L112.187 110.743C112.254 111.077 112.406 111.388 112.628 111.647C112.85 111.906 113.134 112.104 113.454 112.222C113.774 112.341 114.118 112.375 114.455 112.323C114.792 112.27 115.11 112.132 115.378 111.922L122.886 106.057C123.155 105.847 123.366 105.572 123.498 105.258C123.631 104.944 123.681 104.601 123.643 104.262C123.606 103.923 123.483 103.599 123.285 103.322C123.088 103.044 122.822 102.821 122.514 102.675L118.476 100.754C118.334 100.69 118.184 100.643 118.031 100.614C130.153 87.7989 132.752 58.7218 116.959 37.5864Z" fill="#0084BC"/>
<path d="M79.7178 28.984C88.0461 30.307 95.5487 34.7769 100.677 41.4712C105.805 48.1654 108.167 56.5731 107.276 64.9586C107.093 66.8794 110.094 66.8669 110.276 64.9586C111.134 55.9204 108.544 46.8917 103.025 39.6833C97.5053 32.4748 89.4647 27.6196 80.5153 26.0912C78.6269 25.7702 77.8155 28.6607 79.7178 28.984Z" fill="white"/>
<path d="M19.4455 385.002C26.8894 385.471 34.1161 387.697 40.5333 391.498C46.9505 395.299 52.3756 400.567 56.3638 406.87C57.4815 408.657 58.9405 410.62 58.1668 412.82C57.8972 413.663 57.3496 414.39 56.6134 414.881C55.8772 415.373 54.996 415.6 54.1138 415.526C51.8326 415.249 50.3604 413.017 50.0794 410.879C49.7606 408.453 51.4718 406.549 53.5845 405.648C58.7472 403.446 63.956 406.849 68.1613 409.565C77.7436 415.754 88.2832 421.351 99.8943 422.057C110.638 422.709 122.158 418.497 128.133 409.181C129.179 407.551 126.583 406.045 125.543 407.667C119.617 416.906 107.636 420.224 97.2197 418.796C91.0122 417.817 85.0182 415.782 79.4975 412.78C76.6344 411.294 73.8576 409.647 71.137 407.915C68.5481 406.109 65.804 404.536 62.9369 403.214C58.1553 401.25 51.8255 401.404 48.4855 405.926C45.3696 410.145 47.7777 417.169 52.9893 418.355C57.9283 419.479 62.2551 414.834 61.2386 409.977C60.7186 407.492 58.8479 405.061 57.3998 403.03C53.0489 396.91 47.3804 391.843 40.8118 388.204C34.2432 384.565 26.9418 382.445 19.4454 382.002C17.5157 381.906 17.5207 384.906 19.4454 385.002H19.4455Z" fill="#CCA723"/>
<path d="M460.766 289.457C453.893 293.124 446.219 295.029 438.429 295.003C430.64 294.976 422.979 293.019 416.131 289.306C414.58 288.451 413.276 287.476 413.101 285.581C413.01 284.801 413.157 284.011 413.523 283.315C413.888 282.619 414.456 282.051 415.151 281.684C417.305 280.632 419.868 281.859 421.214 283.654C422.662 285.586 422.083 288.091 420.743 289.91C417.278 294.613 410.728 294.167 405.545 294.062C394.382 293.837 382.646 294.729 372.647 300.151C363.251 305.246 355.705 314.804 355.497 325.801C355.46 327.732 358.46 327.732 358.497 325.801C358.702 314.949 366.904 306.006 376.347 301.65C382.208 299.109 388.475 297.634 394.854 297.295C397.968 297.063 401.092 297.002 404.213 297.04C407.327 297.205 410.448 297.138 413.552 296.841C418.906 296.107 424.662 292.658 425.057 286.704C425.415 281.315 419.293 276.744 414.247 278.821C413.323 279.236 412.499 279.845 411.832 280.607C411.165 281.369 410.671 282.266 410.383 283.237C410.095 284.208 410.02 285.23 410.163 286.233C410.306 287.236 410.664 288.195 411.213 289.047C412.563 291.103 414.962 292.155 417.111 293.173C424.203 296.535 431.984 298.185 439.83 297.99C447.675 297.794 455.365 295.759 462.28 292.048C463.973 291.119 462.461 288.527 460.766 289.457Z" fill="#0084BC"/>
<path d="M357.809 63.9818C371.305 68.6238 380.755 82.3038 381.558 96.3888C381.965 103.538 380.269 111.803 374.936 116.948C373.757 118.197 372.284 119.133 370.651 119.669C369.019 120.206 367.278 120.327 365.588 120.021C362.643 119.381 359.571 117.373 359.067 114.183C358.581 111.102 360.686 108.556 363.239 107.152C364.688 106.366 366.281 105.881 367.923 105.725C369.564 105.569 371.22 105.746 372.791 106.246C376.956 107.54 380.482 110.317 383.843 112.997C387.124 115.718 390.613 118.178 394.278 120.354C408.735 128.681 425.874 131.03 442.039 126.9C458.203 122.77 472.115 112.488 480.806 98.2458C481.862 96.5368 482.829 94.7778 483.709 92.9708C484.556 91.2438 481.969 89.7218 481.119 91.4568C477.304 99.3338 471.841 106.298 465.098 111.878C458.356 117.458 450.492 121.522 442.041 123.795C433.59 126.069 424.748 126.498 416.116 125.055C407.485 123.611 399.264 120.328 392.013 115.428C385.03 110.748 378.334 102.709 369.252 102.652C362.564 102.61 354.52 107.665 356.234 115.274C357.013 118.735 359.939 121.229 363.145 122.428C364.869 123.066 366.712 123.319 368.545 123.169C370.377 123.019 372.154 122.468 373.751 121.557C380.833 117.58 383.926 108.752 384.514 101.08C385.668 86.0058 377.147 70.3718 363.758 63.3038C362.101 62.4338 360.378 61.6938 358.607 61.0888C356.777 60.4598 355.991 63.3568 357.809 63.9818Z" fill="#E6E6E6"/>
<path d="M126.422 529H423.578C423.955 529 424.317 528.947 424.584 528.854C424.85 528.76 425 528.633 425 528.5C425 528.367 424.85 528.24 424.584 528.146C424.317 528.053 423.955 528 423.578 528H126.422C126.045 528 125.683 528.053 125.416 528.146C125.15 528.24 125 528.367 125 528.5C125 528.633 125.15 528.76 125.416 528.854C125.683 528.947 126.045 529 126.422 529Z" fill="#CCCCCC"/>
<defs>
<filter id="filter0_f_361_1732" x="91" y="33" width="333" height="370" filterUnits="userSpaceOnUse" color-interpolation-filters="sRGB">
<feFlood flood-opacity="0" result="BackgroundImageFix"/>
<feBlend mode="normal" in="SourceGraphic" in2="BackgroundImageFix" result="shape"/>
<feGaussianBlur stdDeviation="2" result="effect1_foregroundBlur_361_1732"/>
</filter>
</defs>
</svg>
