<svg width="497" height="340" viewBox="0 0 497 340" fill="none" xmlns="http://www.w3.org/2000/svg">
<g clip-path="url(#clip0_361_1769)">
<g opacity="0.3" filter="url(#filter0_f_361_1769)">
<path d="M158.902 338.295L158.887 338.295L22.2958 338.729L22.9408 202.354C22.8789 169.174 49.9091 142.285 83.0539 142.199L159.382 142.001C192.558 141.762 219.299 168.653 219.209 201.802L219 278.141C219.061 311.314 192.04 338.199 158.904 338.295L158.902 338.295Z" fill="#D9D9D9"/>
</g>
<path d="M54.7656 302.478L58.9955 306.953L78.636 292.389L72.3934 285.785L54.7656 302.478Z" fill="#A0616A"/>
<path d="M61.7024 304.953L56.9138 300.451L55.7379 299.348L43.5469 309.103L46.7181 312.457L50.4509 310.061L48.7361 314.592L57.1441 323.487C57.5469 323.913 58.0755 324.2 58.6525 324.304C59.2296 324.409 59.825 324.326 60.3519 324.069C60.8787 323.811 61.3094 323.391 61.581 322.871C61.8527 322.35 61.9511 321.757 61.8619 321.177L60.0473 309.427L63.2449 306.4L61.7024 304.953Z" fill="#A5830A"/>
<path d="M94.9141 325.308L101.042 325.878L106.206 301.965L97.1607 301.124L94.9141 325.308Z" fill="#A0616A"/>
<path d="M128.979 244.099C126.648 256.797 116.78 286.571 110.811 303.998C108.095 311.961 106.197 317.351 106.197 317.351L103.102 316.373H103.095L97.8622 314.721L95.9573 314.116H95.9503L93.6398 313.379C93.6398 313.379 93.9081 299.16 93.9356 285.45C93.9561 279.702 93.9286 274.038 93.8188 269.551C93.6949 264.657 93.4817 261.154 93.1311 260.459C91.6799 257.609 94.1075 257.306 96.6725 256.591C99.2442 255.868 97.2363 254.781 96.239 252.468C95.5655 250.926 96.8925 248.868 97.8347 247.698C98.0946 247.369 98.3724 247.054 98.6667 246.755C98.6667 246.755 98.2128 246.597 97.4015 246.322C99.8494 243.183 101.954 240.41 101.954 240.41C101.954 240.41 101.995 238.923 102.057 236.555C102.146 233.052 102.277 227.608 102.415 222.157C102.408 222.15 102.408 222.15 102.415 222.15C102.463 220.099 102.511 218.048 102.559 216.1C106.492 219.122 110.316 222.081 113.782 224.821C113.786 224.824 113.789 224.828 113.792 224.833C113.794 224.838 113.795 224.843 113.795 224.848C122.123 231.435 128.374 236.721 129.254 238.4C129.653 239.157 129.516 241.181 128.979 244.099Z" fill="#002433"/>
<path d="M147.725 139.566L146.383 154.219C146.383 154.219 144.043 165.259 145.663 164.364C147.284 163.469 144.378 167.496 145.144 170.989C145.909 174.481 138.606 200.525 141.914 197.827C145.221 195.129 140.002 213.767 136.701 222.962C135.69 225.805 134.652 228.682 133.607 231.538C133.4 232.117 133.194 232.687 132.981 233.266C131.626 236.982 130.271 240.644 128.972 244.099C128.786 244.581 128.607 245.062 128.429 245.538C128.421 245.551 128.421 245.565 128.415 245.565C124.137 256.832 120.472 265.697 119.007 267.163C118.244 267.927 106.134 276.681 93.9282 285.45C81.117 294.652 68.2023 303.875 68.2023 303.875L56.1406 291.211C56.1406 291.211 56.4294 291.128 56.9727 290.963C57.9767 290.674 59.8335 290.13 62.2679 289.407C72.4177 286.413 59.5239 281.754 68.739 278.423C71.3382 277.487 73.0712 276.757 73.463 276.372C75.753 274.135 78.827 268.801 80.2779 271.038C81.7288 273.274 88.31 256.653 90.2078 255.008C91.2256 254.12 94.5471 249.97 97.3941 246.322C99.8419 243.183 101.946 240.41 101.946 240.41C101.946 240.41 101.988 238.923 102.049 236.556C102.139 233.052 102.27 227.608 102.407 222.157C102.4 222.15 102.4 222.15 102.407 222.15C102.455 220.099 102.503 218.048 102.552 216.1C102.586 214.593 102.62 213.141 102.655 211.799C102.744 207.779 102.806 204.737 102.806 203.98C102.806 201.496 102.806 203.43 104.766 201.929C105.058 201.699 105.336 201.451 105.598 201.186C106.017 200.808 106.403 200.396 106.753 199.954C106.898 199.644 105.997 200.064 104.828 199.83C104.194 199.703 103.609 199.403 103.136 198.963C100.674 196.747 103.329 189.933 103.329 189.933C97.7309 178.728 98.1369 169.539 100.757 162.457C102.716 157.375 105.825 152.817 109.841 149.14C111.369 147.682 113.034 146.375 114.813 145.237L114.985 144.308L116.876 134.06C117.882 133.507 118.927 133.031 120.005 132.635C123.363 131.429 126.968 131.07 130.498 131.589C134.007 132.097 137.405 133.198 140.545 134.844C143.113 136.135 145.522 137.72 147.725 139.566Z" fill="#05364B"/>
<path d="M112.56 334.681L103.455 327.048L103.868 322.657L101.75 322.588L95.1899 322.375H95.1829L93.5738 322.32L90.8438 337.696L95.4441 338.122L96.6613 333.855L98.36 338.398L100.794 338.625L110.539 339.533C110.621 339.54 110.711 339.547 110.793 339.547C111.181 339.548 111.564 339.466 111.917 339.307C112.27 339.148 112.586 338.915 112.842 338.625C113.241 338.188 113.485 337.632 113.537 337.042C113.577 336.599 113.509 336.152 113.339 335.741C113.169 335.33 112.902 334.966 112.56 334.681Z" fill="#A5830A"/>
<path d="M333.987 19.8859C335.134 19.7786 336.277 20.1233 337.173 20.8465C338.069 21.5698 338.648 22.6145 338.787 23.7585C338.811 23.9915 338.817 24.2261 338.802 24.4599L352.983 30.5209L352.442 38.8049L333.913 28.4C332.949 28.2661 332.056 27.8164 331.374 27.1212C330.692 26.426 330.259 25.5244 330.143 24.5571C330.082 24.006 330.13 23.4484 330.285 22.9159C330.439 22.3835 330.697 21.8868 331.043 21.4541C331.389 21.0213 331.817 20.6611 332.303 20.394C332.788 20.1268 333.321 19.958 333.872 19.8971C333.91 19.8928 333.949 19.8891 333.987 19.8859Z" fill="#FFB6B6"/>
<path d="M430.468 71.022C430.118 69.4159 429.467 67.8908 428.549 66.5274C428.295 66.1395 428.017 65.7671 427.717 65.4124C426.604 64.0842 425.565 62.866 424.602 61.7785C424.018 61.0969 423.447 60.4638 422.911 59.879C419.796 56.4582 417.753 54.6482 416.818 54.4966C416.364 54.421 415.917 54.3659 415.484 54.3108C413.263 54.0355 411.653 53.8359 411.605 51.4888C411.601 51.1526 411.624 50.8165 411.674 50.484C411.757 49.9257 411.879 49.3738 412.039 48.8322C412.13 48.5253 412.201 48.2126 412.252 47.8963C412.321 47.4903 412.293 47.1872 412.073 47.0013C411.798 46.7745 411.337 46.8088 410.471 47.1529C410.333 47.208 410.175 47.2698 410.01 47.3455C409.955 47.3663 409.9 47.3939 409.838 47.4214C409.728 47.4695 409.604 47.5246 409.481 47.5864C408.442 48.0821 406.84 48.144 405.011 47.9581C399.613 47.4076 392.309 44.6821 392.22 44.6475L346.229 26.7598L345.802 27.448L344.791 29.086L344.441 29.6503L344.042 30.2972L342.302 33.1054L341.422 34.5232L356.276 45.735L357.891 46.9532L359.281 48.0064L387.64 69.4182L398.216 76.404L400.575 77.9593L410.629 84.5942C412.074 85.5498 413.696 86.206 415.398 86.5241C417.101 86.8422 418.85 86.8157 420.542 86.4462C422.234 86.0767 423.835 85.3716 425.251 84.3727C426.666 83.3738 427.867 82.1012 428.783 80.63C430.569 77.7671 431.173 74.3221 430.468 71.022Z" fill="#E6E6E6"/>
<path d="M496.312 340H0.68767C0.505289 340 0.330376 339.928 0.201413 339.798C0.0724502 339.669 0 339.494 0 339.312C0 339.129 0.0724502 338.954 0.201413 338.825C0.330376 338.696 0.505289 338.624 0.68767 338.624H496.312C496.495 338.624 496.67 338.696 496.799 338.825C496.928 338.954 497 339.129 497 339.312C497 339.494 496.928 339.669 496.799 339.798C496.67 339.928 496.495 340 496.312 340Z" fill="#E6E6E6"/>
<path d="M113.406 114.796L114.695 126.759L113.937 142.446L148.654 138.319L151.916 114.796L147.759 114.837L113.406 114.796Z" fill="#FFB6B6"/>
<path d="M201.427 145.804C201.636 144.907 201.645 143.974 201.455 143.073C201.264 142.172 200.878 141.323 200.325 140.587C199.771 139.851 199.063 139.245 198.25 138.812C197.437 138.38 196.539 138.131 195.62 138.083L157.919 94.9888L149.922 104.54L188.921 144.501C188.943 146.052 189.533 147.541 190.579 148.686C191.625 149.831 193.054 150.552 194.595 150.712C196.137 150.873 197.684 150.462 198.943 149.558C200.202 148.653 201.086 147.318 201.428 145.804H201.427Z" fill="#A0616A"/>
<path d="M135.051 75.0787C135.051 75.0787 137.025 72.3983 141.758 77.6254C145.547 81.8101 171.248 105.233 174.785 112.23C175.852 111.97 176.975 112.073 177.977 112.523C178.979 112.973 179.803 113.743 180.32 114.713L166.703 123.65C163.132 122.724 161.076 120.145 161.647 118.812L154.349 111.692L128 90.5405L133.59 76.9908L135.051 75.0787Z" fill="#DEC878"/>
<path d="M142.937 76.1557L129.872 65.8317L123.013 65.4326L112.836 71.9579L110.344 84.682L104.45 99.0104L113.095 137.678C113.095 137.678 113.905 140.453 111.781 140.786C109.656 141.12 109.911 145.21 109.911 145.21C109.911 145.21 110.344 148.754 108.281 149.067C106.218 149.379 100.717 149.379 105.53 155.573C110.344 161.767 148.417 138.339 148.417 138.339L153.947 109.299C153.947 109.299 164.672 94.8821 153.122 86.6256L142.937 76.1557Z" fill="#EBDDAD"/>
<path d="M85.8989 163.949C85.3232 163.23 84.912 162.394 84.6942 161.498C84.4765 160.603 84.4576 159.671 84.6388 158.768C84.82 157.864 85.1969 157.012 85.7429 156.27C86.2889 155.528 86.9908 154.915 87.7992 154.474L104.234 99.272L114.51 104.45L96.6126 157.361C97.2628 158.769 97.3742 160.367 96.9258 161.852C96.4774 163.337 95.5003 164.606 94.1797 165.418C92.8591 166.23 91.2867 166.529 89.7605 166.258C88.2343 165.988 86.8603 165.166 85.8989 163.949Z" fill="#A0616A"/>
<path d="M115.2 71.4471C115.2 71.4471 112.262 69.8846 110.253 76.6463C108.644 82.0595 95.5914 114.303 95.4249 122.142C94.3507 122.37 93.3828 122.949 92.6736 123.788C91.9644 124.627 91.5543 125.679 91.5078 126.777L107.647 128.941C110.467 126.561 111.207 123.345 110.115 122.391L113.62 112.812L128.238 82.3366L117.343 72.5389L115.2 71.4471Z" fill="#EBDDAD"/>
<path d="M275.758 193.401C328.929 193.401 372.032 150.261 372.032 97.0447C372.032 43.8283 328.929 0.687988 275.758 0.687988C222.588 0.687988 179.484 43.8283 179.484 97.0447C179.484 150.261 222.588 193.401 275.758 193.401Z" fill="#0084BC"/>
<path opacity="0.4" d="M276 184C324.049 184 363 145.049 363 97C363 48.9512 324.049 10 276 10C227.951 10 189 48.9512 189 97C189 145.049 227.951 184 276 184Z" fill="#191919"/>
<path opacity="0.6" d="M276 179C321.287 179 358 142.287 358 97C358 51.7127 321.287 15 276 15C230.713 15 194 51.7127 194 97C194 142.287 230.713 179 276 179Z" fill="#0084BC"/>
<path d="M276 174C318.526 174 353 139.526 353 97C353 54.4741 318.526 20 276 20C233.474 20 199 54.4741 199 97C199 139.526 233.474 174 276 174Z" fill="#0084BC"/>
<path d="M359.282 48.0063C355.238 41.1335 350.372 34.7797 344.792 29.0858C343.547 27.8196 342.262 26.5805 340.948 25.376C340.219 24.7086 339.484 24.0546 338.734 23.4144C337.31 22.1894 335.846 21.0055 334.354 19.8632C317.496 6.95761 296.857 -0.0239489 275.633 6.17253e-05C222.174 6.17253e-05 178.672 43.5326 178.672 97.045C178.669 102.945 179.206 108.834 180.274 114.637C180.276 114.669 180.28 114.701 180.288 114.733C180.776 117.397 181.381 120.026 182.083 122.607C187.052 140.824 197.223 157.195 211.351 169.712C225.479 182.228 242.949 190.348 261.619 193.074C280.289 195.8 299.348 193.014 316.46 185.059C333.572 177.103 347.992 164.323 357.954 148.286C359.295 146.125 360.556 143.908 361.736 141.637C369.266 127.095 372.991 110.879 372.561 94.5052C372.132 78.1314 367.563 62.1337 359.282 48.0063ZM275.633 192.713C263.08 192.718 250.648 190.246 239.049 185.44C227.45 180.634 216.911 173.587 208.034 164.702C199.157 155.818 192.117 145.27 187.314 133.661C182.512 122.052 180.043 109.61 180.047 97.045C180.047 44.2894 222.93 1.37659 275.633 1.37659C288.387 1.38382 301.011 3.94643 312.76 8.91337C324.509 13.8803 335.146 21.151 344.043 30.297C346.363 32.6678 348.553 35.1631 350.603 37.7718C352.633 40.3245 354.526 42.9825 356.276 45.7349C363.571 57.2048 368.338 70.1 370.259 83.56C372.18 97.0201 371.211 110.735 367.416 123.791C366.571 126.709 365.58 129.565 364.466 132.367C363.346 135.175 362.101 137.928 360.725 140.598C352.683 156.261 340.49 169.408 325.482 178.6C310.474 187.792 293.228 192.674 275.633 192.713Z" fill="#0084BC"/>
<path d="M407.54 325.527L401.22 325.473L398.422 300.503L407.751 300.583L407.54 325.527Z" fill="#FFB6B6"/>
<path d="M409.212 322.609L407.562 322.499L400.83 322.038L398.663 321.893L398.622 326.415L388.527 333.27C388.029 333.609 387.651 334.099 387.451 334.667C387.25 335.236 387.236 335.854 387.411 336.432C387.586 337.009 387.941 337.515 388.424 337.876C388.907 338.237 389.492 338.434 390.095 338.439L402.659 338.542L404.859 334.082L405.664 338.57L410.409 338.611L409.212 322.609Z" fill="black"/>
<path d="M474.083 320.904L468.042 322.763L457.844 299.804L466.761 297.061L474.083 320.904Z" fill="#FFB6B6"/>
<path d="M474.805 317.619L473.195 318.011L466.642 319.601L464.531 320.117L465.858 324.446L458.3 334.027C457.972 334.445 457.768 334.946 457.712 335.474C457.655 336.003 457.747 336.536 457.979 337.014C458.211 337.492 458.572 337.895 459.022 338.177C459.471 338.46 459.991 338.61 460.522 338.611C460.802 338.61 461.08 338.568 461.347 338.487L473.361 334.791L474.11 329.87L476.235 333.903L480.767 332.506L474.805 317.619Z" fill="black"/>
<path d="M394.824 115.57L382.762 150.653L382.364 153.461C379.325 156.349 383.143 157.3 381.711 158.062C380.28 158.824 379.317 160.959 381.246 161.34C383.175 161.722 389.395 298.561 397.599 303.874C405.804 309.187 410.797 313.031 409.29 305.251C408.683 302.116 409.541 285.31 410.783 266.359C410.924 264.211 413.148 261.937 411.219 259.849C409.29 257.761 411.456 256.386 411.578 254.653C413.308 229.906 415.306 205.473 415.306 205.473C415.306 205.473 428.093 249.424 431.413 246.021C434.733 242.619 433.419 250.996 434.434 253.499C435.282 255.591 431.664 259.699 436.981 259.762C442.298 259.825 454.785 302.546 456.051 302.498C458.561 302.402 465.616 302.672 469.805 301.809C471.873 301.383 462.69 269.039 455.022 241.11C454.411 238.882 451.083 238.83 453.223 234.53C455.364 230.23 444.714 202.406 445.627 201.119C448.053 197.704 448.977 196.219 446.585 195.995C444.192 195.772 443.486 197.085 443.356 193.772C443.227 190.459 442.814 182.288 442.814 182.288C442.814 182.288 441.082 149.975 428.947 132.123L427.912 121.515L394.824 115.57Z" fill="#002433"/>
<path d="M424.962 48.5869L408.966 50.8664L408.001 62.4589L400.108 74.8167C400.108 74.8167 382.562 87.1745 394.799 106.696C390.142 123.512 385.513 139.64 381.099 150.392C377.66 171.728 408.463 173.773 443.677 166.222C443.677 166.222 443.191 157.099 439.996 152.713C436.8 148.327 438.54 147.369 438.54 147.369L436.307 139.176C437.57 127.332 433.304 126.269 431.299 120.797L437.386 64.0187L424.962 48.5869Z" fill="#E6E6E6"/>
<path d="M348.17 147.829C348.34 146.689 348.947 145.66 349.862 144.962C350.778 144.263 351.93 143.95 353.073 144.088C353.305 144.12 353.534 144.171 353.757 144.241L363.023 131.904L370.931 134.407L356.413 149.933C356.053 150.838 355.404 151.599 354.566 152.096C353.729 152.593 352.751 152.798 351.785 152.68C351.235 152.608 350.706 152.428 350.226 152.151C349.746 151.874 349.326 151.504 348.989 151.065C348.652 150.625 348.404 150.123 348.261 149.587C348.118 149.052 348.081 148.493 348.153 147.943C348.158 147.905 348.164 147.867 348.17 147.829Z" fill="#FFB6B6"/>
<path d="M430.473 71.022C430.246 70.7397 429.998 70.4644 429.737 70.1959C427.921 68.3223 425.582 67.0414 423.026 66.5207C420.47 66 417.817 66.2639 415.413 67.2778C415.179 67.3739 414.945 67.4841 414.719 67.5944C406.501 71.6342 402.066 74.3255 401.529 75.585C401.343 76.0118 401.185 76.4316 401.027 76.8375C400.876 77.2368 400.731 77.6152 400.58 77.9593C399.948 79.4323 399.219 80.3477 397.362 79.9347C396.746 79.784 396.152 79.5551 395.595 79.2535C395.34 79.1295 395.106 78.9988 394.886 78.8748C394.089 78.4345 393.511 78.118 393.119 78.407C392.741 78.6889 392.727 79.4047 393.071 81.0636C393.185 81.7559 393.166 82.4635 393.016 83.1489C392.561 85.1482 391.849 87.08 390.898 88.8959C389.472 91.7425 387.869 94.4964 386.098 97.1413L369.738 120.487L368.631 122.063L367.421 123.791L357.766 137.57L358.336 138.155L360.73 140.598L361.259 141.142L361.741 141.637L362.985 142.911L364.154 144.101L390.238 122.834L393.146 120.459L398.359 116.206L409.038 107.5L429.249 88.779C430.525 87.6066 431.551 86.1885 432.266 84.6096C432.981 83.0307 433.37 81.3236 433.409 79.5906C433.409 79.4737 433.416 79.3634 433.416 79.2465C433.424 76.2453 432.383 73.3359 430.473 71.022Z" fill="#E6E6E6"/>
<path d="M415.358 48.1651C425.23 48.1651 433.232 40.1558 433.232 30.2759C433.232 20.396 425.23 12.3867 415.358 12.3867C405.487 12.3867 397.484 20.396 397.484 30.2759C397.484 40.1558 405.487 48.1651 415.358 48.1651Z" fill="#FFB6B6"/>
<path d="M439.043 55.0819C441.442 58.518 443.047 62.4454 443.741 66.5793C441.808 67.8171 439.557 68.4673 437.262 68.451C437.185 68.1502 437.107 67.8494 437.018 67.5485C436.353 65.2193 435.363 62.9953 434.079 60.942C434.255 63.1561 433.955 65.3822 433.2 67.4706C431.987 66.919 430.687 66.5834 429.359 66.4791C428.277 66.479 427.21 66.7307 426.242 67.2143C425.118 63.4821 424.083 60.0507 423.348 57.5886C423.326 63.7607 414.287 69.1417 404.425 68.3619C404.069 68.1391 407.642 57.9897 407.297 57.7557C406.507 57.2321 405.739 56.6639 404.97 56.1069C408.199 51.1157 411.705 45.7681 411.104 44.966C411.148 45.9575 407.609 50.7258 403.757 55.2267C401.62 53.6559 413.764 28.0986 407.764 26.0264C407.664 26.9288 406.34 26.9288 404.726 26.7395C404.3 25.2505 403.667 23.829 402.844 22.517C402.951 23.8386 402.792 25.1684 402.377 26.4275C400.783 26.4279 399.194 26.5959 397.635 26.9288C397.274 26.3608 396.876 25.8174 396.444 25.3022C396.487 25.9301 396.468 26.5607 396.388 27.185C394.796 27.5304 393.483 27.9315 393.294 28.2546C392.047 27.7978 394.173 25.7367 393.394 24.6672C391.413 21.9934 394.351 18.0941 396.21 15.3311C400.028 9.67155 408.41 7.71074 414.343 11.1087C414.61 10.184 415.979 9.57126 417.738 9.15905C418.483 8.99461 419.246 8.92351 420.009 8.94737C427.578 9.08105 438.086 15.3311 438.498 22.8958C438.532 23.6534 438.587 24.4778 438.643 25.3579C439.177 33.825 438.52 41.6348 444.298 47.8292C446.39 50.0684 446.412 60.6746 445.611 66.1337C443.529 63.9389 442.049 55.405 439.043 55.0819Z" fill="#5F563A"/>
<path d="M298.873 93.3457H251.939C248.236 93.3457 245.234 96.3501 245.234 100.056V123.543C245.234 127.249 248.236 130.254 251.939 130.254H298.873C302.576 130.254 305.577 127.249 305.577 123.543V100.056C305.577 96.3501 302.576 93.3457 298.873 93.3457Z" stroke="#E6E6E6" stroke-width="6" stroke-linecap="round" stroke-linejoin="round"/>
<path d="M258.648 93.3454V79.9244C258.648 75.4751 260.414 71.2078 263.558 68.0616C266.701 64.9155 270.965 63.1479 275.41 63.1479C279.856 63.1479 284.119 64.9155 287.263 68.0616C290.406 71.2078 292.172 75.4751 292.172 79.9244V93.3454" stroke="#E6E6E6" stroke-width="6" stroke-linecap="round" stroke-linejoin="round"/>
<path d="M124.488 59.9739C134.805 62.4927 145.208 56.1641 147.725 45.8386C150.242 35.5131 143.918 25.1008 133.602 22.582C123.285 20.0632 112.882 26.3919 110.365 36.7173C107.849 47.0428 114.172 57.4552 124.488 59.9739Z" fill="#A0616A"/>
<path d="M115.808 54.8162C115.402 56.9061 115.199 57.9511 114.851 57.9985C113.805 58.1413 103.285 47.8734 103.017 42.6828C102.892 40.2619 103.472 40.3561 104.544 33.8173C105.569 27.5635 105.052 27.3855 106.047 26.0193C107.152 24.5008 109.779 22.9387 115.033 19.8146C117.019 18.6333 118.012 18.0426 118.617 17.7596C120.45 16.9019 127.282 13.7064 132.377 15.5788C134.512 16.3637 133.923 17.1498 141.042 23.6068C141.654 24.163 142.478 24.9008 143.646 25.8017C146.483 27.9929 148.369 28.8418 149.311 29.4899C155.029 33.4181 149.936 46.2793 149.377 46.2234C149.173 46.203 149.539 44.4637 148.54 44.0684C147.641 43.7128 146.73 44.8789 145.872 44.7201C143.531 44.2865 146.635 42.6994 141.582 38.8609C139.617 37.3686 144.681 43.1705 138.878 41.6791C129.803 39.347 135.483 41.3486 131.583 42.3222C128.739 43.0323 120.376 33.2601 120.219 35.692C120.11 37.4072 121.186 38.1717 120.565 39.9717C119.964 41.7157 118.155 43.3121 116.957 43.0941C115.852 42.8934 115.627 41.2173 115.229 41.2751C114.795 41.3378 114.761 43.364 115.132 45.5449C115.603 48.3136 116.245 48.4909 116.345 50.5563C116.404 51.7444 116.206 52.7683 115.808 54.8162Z" fill="black"/>
<path d="M343.854 189.376C343.341 186.459 340.561 184.511 337.645 185.024C334.756 185.532 332.819 188.265 333.281 191.151L333.196 191.166L335.054 201.726L344.772 200.017C345.082 200.017 345.396 199.992 345.712 199.936C348.628 199.423 350.577 196.643 350.064 193.727C349.55 190.811 346.77 188.862 343.854 189.375V189.376Z" fill="#AEAEAE"/>
</g>
<defs>
<filter id="filter0_f_361_1769" x="18.2959" y="137.999" width="204.913" height="204.73" filterUnits="userSpaceOnUse" color-interpolation-filters="sRGB">
<feFlood flood-opacity="0" result="BackgroundImageFix"/>
<feBlend mode="normal" in="SourceGraphic" in2="BackgroundImageFix" result="shape"/>
<feGaussianBlur stdDeviation="2" result="effect1_foregroundBlur_361_1769"/>
</filter>
<clipPath id="clip0_361_1769">
<rect width="497" height="340" fill="white"/>
</clipPath>
</defs>
</svg>
