<svg width="689" height="511" viewBox="0 0 689 511" fill="none" xmlns="http://www.w3.org/2000/svg">
<g clip-path="url(#clip0_361_1705)">
<g opacity="0.3" filter="url(#filter0_f_361_1705)">
<path d="M215.529 444.986L215.511 444.986L46.7395 445.523L47.5365 277.019C47.46 236.022 80.8584 202.798 121.812 202.691L216.124 202.446C257.115 202.151 290.157 235.377 290.044 276.336L289.786 370.661C289.862 411.65 256.476 444.868 215.532 444.986L215.529 444.986Z" fill="#D9D9D9"/>
</g>
<path d="M463 69H196C189.104 69 182.491 66.2607 177.615 61.3848C172.739 56.5088 170 49.8956 170 43C170 36.1044 172.739 29.4912 177.615 24.6152C182.491 19.7393 189.104 17 196 17H463C469.896 17 476.509 19.7393 481.385 24.6152C486.261 29.4912 489 36.1044 489 43C489 49.8956 486.261 56.5088 481.385 61.3848C476.509 66.2607 469.896 69 463 69V69Z" fill="#C7C7C7"/>
<path d="M196 25.5C191.359 25.5 186.908 27.3437 183.626 30.6256C180.344 33.9075 178.5 38.3587 178.5 43C178.5 47.6413 180.344 52.0925 183.626 55.3744C186.908 58.6563 191.359 60.5 196 60.5H463C467.641 60.5 472.092 58.6563 475.374 55.3744C478.656 52.0925 480.5 47.6413 480.5 43C480.5 38.3587 478.656 33.9075 475.374 30.6256C472.092 27.3437 467.641 25.5 463 25.5H196Z" fill="white"/>
<path d="M557.354 18.6812C550.95 18.6811 544.809 21.225 540.281 25.7532C535.752 30.2814 533.209 36.4229 533.208 42.8267C533.208 49.2306 535.752 55.3721 540.281 59.9003C544.809 64.4285 550.95 66.9725 557.354 66.9725H557.354C563.758 66.9725 569.9 64.4286 574.428 59.9004C578.956 55.3722 581.5 49.2306 581.5 42.8268C581.5 36.423 578.956 30.2814 574.428 25.7533C569.9 21.2251 563.758 18.6812 557.354 18.6812V18.6812Z" fill="#0084BC"/>
<path d="M555.063 52.8548C554.428 52.8559 553.809 52.6502 553.3 52.2689L553.269 52.2452L546.629 47.1658C546.321 46.9301 546.063 46.6361 545.869 46.3005C545.675 45.965 545.548 45.5945 545.498 45.2103C545.447 44.826 545.472 44.4355 545.572 44.061C545.672 43.6866 545.845 43.3355 546.081 43.0279C546.317 42.7203 546.611 42.4622 546.947 42.2682C547.282 42.0743 547.653 41.9484 548.037 41.8978C548.421 41.8471 548.812 41.8726 549.186 41.9729C549.561 42.0732 549.912 42.2462 550.219 42.4822L554.52 45.7803L564.683 32.5212C564.919 32.2138 565.213 31.9558 565.548 31.762C565.884 31.5682 566.254 31.4423 566.638 31.3916C567.022 31.3409 567.412 31.3663 567.786 31.4664C568.161 31.5665 568.511 31.7393 568.819 31.975L568.82 31.9756L568.757 32.0632L568.821 31.9756C569.442 32.4523 569.847 33.1555 569.95 33.9309C570.052 34.7064 569.842 35.4907 569.367 36.1119L557.413 51.7005C557.136 52.0597 556.781 52.3504 556.374 52.5499C555.967 52.7495 555.519 52.8526 555.066 52.8513L555.063 52.8548Z" fill="white"/>
<path d="M463 157H196C189.104 157 182.491 154.261 177.615 149.385C172.739 144.509 170 137.896 170 131C170 124.104 172.739 117.491 177.615 112.615C182.491 107.739 189.104 105 196 105H463C469.896 105 476.509 107.739 481.385 112.615C486.261 117.491 489 124.104 489 131C489 137.896 486.261 144.509 481.385 149.385C476.509 154.261 469.896 157 463 157V157Z" fill="#C7C7C7"/>
<path d="M196 113.5C191.359 113.5 186.908 115.344 183.626 118.626C180.344 121.908 178.5 126.359 178.5 131C178.5 135.641 180.344 140.092 183.626 143.374C186.908 146.656 191.359 148.5 196 148.5H463C467.641 148.5 472.092 146.656 475.374 143.374C478.656 140.092 480.5 135.641 480.5 131C480.5 126.359 478.656 121.908 475.374 118.626C472.092 115.344 467.641 113.5 463 113.5H196Z" fill="white"/>
<path d="M557.354 106.681C550.95 106.681 544.809 109.225 540.281 113.753C535.752 118.281 533.209 124.423 533.208 130.827C533.208 137.231 535.752 143.372 540.281 147.9C544.809 152.429 550.95 154.972 557.354 154.973H557.354C563.758 154.973 569.9 152.429 574.428 147.9C578.956 143.372 581.5 137.231 581.5 130.827C581.5 124.423 578.956 118.281 574.428 113.753C569.9 109.225 563.758 106.681 557.354 106.681V106.681Z" fill="#0084BC"/>
<path d="M555.063 140.855C554.428 140.856 553.809 140.65 553.3 140.269L553.269 140.245L546.629 135.166C546.321 134.93 546.063 134.636 545.869 134.301C545.675 133.965 545.548 133.595 545.498 133.21C545.447 132.826 545.472 132.435 545.572 132.061C545.672 131.687 545.845 131.336 546.081 131.028C546.317 130.72 546.611 130.462 546.947 130.268C547.282 130.074 547.653 129.948 548.037 129.898C548.421 129.847 548.812 129.873 549.186 129.973C549.561 130.073 549.912 130.246 550.219 130.482L554.52 133.78L564.683 120.521C564.919 120.214 565.213 119.956 565.548 119.762C565.884 119.568 566.254 119.442 566.638 119.392C567.022 119.341 567.412 119.366 567.786 119.466C568.161 119.566 568.511 119.739 568.819 119.975L568.82 119.976L568.757 120.063L568.821 119.976C569.442 120.452 569.847 121.155 569.95 121.931C570.052 122.706 569.842 123.491 569.367 124.112L557.413 139.701C557.136 140.06 556.781 140.35 556.374 140.55C555.967 140.749 555.519 140.853 555.066 140.851L555.063 140.855Z" fill="white"/>
<path d="M463 245H196C189.104 245 182.491 242.261 177.615 237.385C172.739 232.509 170 225.896 170 219C170 212.104 172.739 205.491 177.615 200.615C182.491 195.739 189.104 193 196 193H463C469.896 193 476.509 195.739 481.385 200.615C486.261 205.491 489 212.104 489 219C489 225.896 486.261 232.509 481.385 237.385C476.509 242.261 469.896 245 463 245V245Z" fill="#C7C7C7"/>
<path d="M196 201.5C191.359 201.5 186.908 203.344 183.626 206.626C180.344 209.908 178.5 214.359 178.5 219C178.5 223.641 180.344 228.092 183.626 231.374C186.908 234.656 191.359 236.5 196 236.5H463C467.641 236.5 472.092 234.656 475.374 231.374C478.656 228.092 480.5 223.641 480.5 219C480.5 214.359 478.656 209.908 475.374 206.626C472.092 203.344 467.641 201.5 463 201.5H196Z" fill="white"/>
<path d="M557.354 194.681C550.95 194.681 544.809 197.225 540.281 201.753C535.752 206.281 533.209 212.423 533.208 218.827C533.208 225.231 535.752 231.372 540.281 235.9C544.809 240.429 550.95 242.972 557.354 242.973H557.354C563.758 242.973 569.9 240.429 574.428 235.9C578.956 231.372 581.5 225.231 581.5 218.827C581.5 212.423 578.956 206.281 574.428 201.753C569.9 197.225 563.758 194.681 557.354 194.681Z" fill="#C7C7C7"/>
<path d="M105.157 436.103L115.83 436.102L120.906 394.932L105.153 394.934L105.157 436.103Z" fill="#FFB8B8"/>
<path d="M123.455 433.052H102.87V446.013H136.416C136.416 444.311 136.08 442.626 135.429 441.053C134.778 439.481 133.823 438.052 132.619 436.848C131.416 435.645 129.987 434.69 128.415 434.039C126.842 433.387 125.157 433.052 123.455 433.052Z" fill="black"/>
<path d="M147.638 436.103L158.311 436.102L163.387 394.932L147.634 394.934L147.638 436.103Z" fill="#FFB8B8"/>
<path d="M165.936 433.052H145.351V446.013H178.896C178.896 444.311 178.561 442.626 177.91 441.053C177.259 439.481 176.304 438.052 175.1 436.848C173.897 435.645 172.468 434.69 170.896 434.039C169.323 433.387 167.638 433.052 165.936 433.052Z" fill="black"/>
<path d="M96.9343 293.768C97.7934 292.819 98.4339 291.694 98.8109 290.471C99.1878 289.248 99.292 287.957 99.1161 286.689C98.9402 285.421 98.4885 284.207 97.7928 283.133C97.097 282.059 96.1742 281.15 95.0893 280.471L98.3953 260.74L86.8946 255.806L82.6174 283.736C81.5975 285.634 81.3092 287.841 81.8073 289.937C82.3054 292.034 83.5553 293.875 85.32 295.111C87.0848 296.348 89.2418 296.894 91.3824 296.647C93.523 296.399 95.4984 295.375 96.9343 293.768V293.768Z" fill="#FFB8B8"/>
<path d="M186.974 284.445C185.97 283.651 185.152 282.647 184.578 281.503C184.004 280.359 183.688 279.103 183.652 277.823C183.616 276.544 183.861 275.272 184.37 274.098C184.879 272.923 185.639 271.875 186.597 271.026L180.076 252.112L190.604 245.346L199.437 272.186C200.756 273.889 201.405 276.018 201.26 278.168C201.115 280.318 200.186 282.34 198.65 283.851C197.114 285.362 195.077 286.257 192.925 286.366C190.773 286.476 188.655 285.792 186.974 284.445V284.445Z" fill="#FFB8B8"/>
<path d="M132.308 145.107C119.643 145.107 109.377 134.841 109.377 122.176C109.377 109.511 119.643 99.2446 132.308 99.2446C144.973 99.2446 155.24 109.511 155.24 122.176C155.24 134.841 144.973 145.107 132.308 145.107Z" fill="#FFB8B8"/>
<path d="M187.683 270.295C188.076 270.294 188.467 270.239 188.845 270.13L195.529 268.211C196.596 267.903 197.498 267.185 198.038 266.214C198.578 265.243 198.713 264.098 198.412 263.028L184.618 214.327L165.383 167.108C163.471 162.413 159.475 159.335 154.954 159.074C152.89 158.973 150.841 159.473 149.055 160.513C147.269 161.553 145.823 163.089 144.892 164.934V164.934C143.857 166.909 143.289 169.095 143.231 171.324C143.173 173.552 143.627 175.765 144.558 177.791L166.422 225.603L183.803 267.696C184.119 268.464 184.657 269.121 185.348 269.584C186.039 270.047 186.851 270.294 187.683 270.295V270.295Z" fill="#BFD5DF"/>
<path d="M119.368 141.407L132.109 141.633C133.436 141.66 134.75 141.374 135.947 140.798C137.143 140.223 138.187 139.375 138.996 138.322C139.804 137.269 140.353 136.041 140.6 134.736C140.846 133.432 140.783 132.088 140.414 130.813C140.142 129.891 139.937 128.951 139.802 128C139.659 126.962 139.631 125.912 139.718 124.869C139.799 123.824 140.233 122.837 140.948 122.071C141.663 121.305 142.617 120.804 143.654 120.651C144.691 120.498 145.749 120.702 146.655 121.23C147.56 121.757 148.26 122.577 148.639 123.554V123.554C150.781 123.584 155.345 122.886 157.488 122.917C162.036 111.255 152.124 95.9964 141.453 90.2651C130.575 84.4224 116.455 90.3666 112.285 102.544C106.498 102.648 101.796 108.356 101.05 114.781C100.304 121.206 102.947 127.915 106.991 132.839C111.034 137.764 116.344 141.353 119.368 141.407Z" fill="#B8A976"/>
<path d="M161.249 432.26C162.281 432.254 163.276 431.87 164.044 431.18C164.811 430.489 165.299 429.542 165.415 428.516L170.142 269.576L110.587 273.815L110.541 274.198C97.0829 386.854 101.683 425.852 101.732 426.233C101.765 426.809 101.916 427.373 102.177 427.888C102.437 428.403 102.801 428.859 103.246 429.227C103.691 429.595 104.206 429.868 104.761 430.028C105.316 430.188 105.898 430.232 106.47 430.157L119.632 430.472C120.629 430.359 121.554 429.892 122.237 429.157C122.92 428.421 123.317 427.465 123.356 426.461L135.653 311.342C135.729 311.043 135.908 310.781 136.158 310.6C136.409 310.42 136.715 310.334 137.022 310.356C137.339 310.355 137.646 310.464 137.891 310.665C138.136 310.865 138.304 311.145 138.366 311.455L143.117 426.951C143.066 428.023 143.43 429.074 144.132 429.885C144.834 430.697 145.822 431.208 146.89 431.312L160.832 432.239C160.97 432.253 161.11 432.26 161.249 432.26V432.26Z" fill="#25231D"/>
<path d="M136.537 288.567C136.893 288.567 137.249 288.561 137.606 288.55C154.731 288.035 168.129 275.078 171.827 271.12C172.298 270.615 172.636 270.001 172.813 269.334C172.989 268.666 172.997 267.966 172.836 267.294L162.957 225.5L165.578 189.165C165.99 184.123 165.328 179.05 163.638 174.281C161.947 169.512 159.266 165.156 155.769 161.498C152.856 158.421 149.316 156.005 145.387 154.416C141.459 152.827 137.235 152.101 133.001 152.287C116.331 153.083 103.179 167.983 103.06 186.209C102.876 214.438 103.707 216.377 103.98 217.014C112.299 236.431 107.756 263.687 106.165 271.578C106.023 272.282 106.063 273.011 106.281 273.695C106.5 274.379 106.889 274.996 107.413 275.488C116.563 284.17 126.357 288.566 136.537 288.567Z" fill="#BFD5DF"/>
<path d="M93.5287 277.943C94.479 277.942 95.4009 277.619 96.1438 277.027C96.8867 276.434 97.4066 275.607 97.6184 274.681L107.811 230.279L121.471 179.528C122.054 177.376 122.136 175.119 121.711 172.931C121.286 170.742 120.365 168.68 119.018 166.903C117.794 165.238 116.114 163.963 114.181 163.232C112.248 162.501 110.145 162.346 108.125 162.786C103.71 163.79 100.278 167.487 99.167 172.432L88.0054 222.13L82.4386 272.492C82.3188 273.596 82.6405 274.703 83.3335 275.571C84.0265 276.44 85.0347 276.999 86.1383 277.127L93.0472 277.915C93.207 277.934 93.3678 277.943 93.5287 277.943V277.943Z" fill="#BFD5DF"/>
</g>
<defs>
<filter id="filter0_f_361_1705" x="42.7395" y="198.444" width="251.305" height="251.079" filterUnits="userSpaceOnUse" color-interpolation-filters="sRGB">
<feFlood flood-opacity="0" result="BackgroundImageFix"/>
<feBlend mode="normal" in="SourceGraphic" in2="BackgroundImageFix" result="shape"/>
<feGaussianBlur stdDeviation="2" result="effect1_foregroundBlur_361_1705"/>
</filter>
<clipPath id="clip0_361_1705">
<rect width="688.134" height="510.5" fill="white"/>
</clipPath>
</defs>
</svg>
