<svg width="749" height="487" viewBox="0 0 749 487" fill="none" xmlns="http://www.w3.org/2000/svg">
<g clip-path="url(#clip0_397_1514)">
<g opacity="0.3" filter="url(#filter0_f_397_1514)">
<path d="M151.947 484.857L151.932 484.857L15.3003 485.291L15.9455 349.039C15.8835 315.889 42.9218 289.024 76.0766 288.938L152.428 288.74C185.614 288.502 212.363 315.368 212.272 348.487L212.063 424.757C212.124 457.901 185.096 484.761 151.95 484.857L151.947 484.857Z" fill="#D9D9D9"/>
</g>
<path d="M484.278 84.8018C484.008 84.4521 483.738 84.1024 483.448 83.7627C479.137 78.5774 473.125 75.2504 466.403 74.3113C459.561 73.3621 452.749 75.0107 447.127 78.9471C437.985 67.7172 421.44 65.6491 409.786 74.4512C408.986 75.0506 408.236 75.69 407.525 76.3594C407.025 76.829 406.555 77.3186 406.105 77.8181C406.155 77.898 406.205 77.968 406.265 78.0479L437.995 120.679L438.795 120.08C440.475 118.841 479.767 89.6574 481.007 88.7283C482.358 87.7092 483.588 86.5802 484.689 85.3713C484.559 85.1815 484.419 84.9916 484.278 84.8018V84.8018Z" fill="#CCA723"/>
<path d="M486.279 50.8325C481.918 45.0577 475.566 41.3411 468.404 40.342C461.562 39.3928 454.75 41.0414 449.128 44.9778C439.985 33.7479 423.44 31.6797 411.787 40.4819C400.123 49.2739 397.613 65.9788 406.105 77.8181C406.155 77.898 406.205 77.968 406.265 78.0479L437.995 120.679L438.795 120.08C440.475 118.841 479.767 89.6574 481.008 88.7283C482.358 87.7092 483.588 86.5802 484.689 85.3713C493.311 75.9398 494.272 61.383 486.279 50.8325V50.8325ZM483.448 83.7627C482.358 84.9916 481.138 86.1206 479.797 87.1297C478.667 87.9889 444.147 113.616 438.405 117.882L407.876 76.859C407.756 76.6992 407.636 76.5293 407.525 76.3594C399.903 65.4093 402.294 50.1531 412.997 42.0704C417.519 38.6635 422.82 37.015 428.092 37.015C435.694 37.015 443.216 40.4419 448.138 46.956L448.738 47.7553L449.538 47.1458C460.571 38.8233 476.346 41.0113 484.689 52.0314C488.73 57.3766 490.44 63.9606 489.52 70.5946C488.83 75.5701 486.719 80.106 483.448 83.7627L483.448 83.7627Z" fill="#DEC878"/>
<path d="M701.748 101.908L695.216 100.909C694.316 96.333 692.985 91.827 691.255 87.491C691.995 91.7071 691.715 96.0932 690.495 100.189L620.164 89.4492C623.605 74.3428 625.555 60.2256 624.395 48.1465C622.664 30.0229 636.108 13.7076 654.324 13.0681C654.824 13.0482 655.334 13.0382 655.844 13.0382C672.719 13.0382 686.654 22.8893 688.684 35.6178C689.404 40.1737 690.415 44.6896 691.255 49.2355C694.406 66.2601 707.59 88.9496 701.748 101.908V101.908Z" fill="#022B3D"/>
<path d="M516.875 129.016C519.144 129.956 521.012 131.33 522.281 132.854L544.46 140.448L540.534 150.884L518.457 142.057C516.481 142.236 514.188 141.886 511.919 140.945C506.736 138.797 503.644 134.385 505.013 131.091C506.381 127.797 511.692 126.868 516.875 129.016V129.016V129.016Z" fill="#FFB6B6"/>
<path d="M588.194 463.989L579.422 464.196L574.532 424.835L587.477 424.529L588.194 463.989Z" fill="#FFB7B7"/>
<path d="M558.099 482.268C558.099 483.748 559.15 484.947 560.447 484.947H577.859C577.859 484.947 579.572 478.068 586.558 475.108L587.04 484.947H596.022L594.934 469.126C594.934 469.126 597.337 460.661 592.347 456.334C587.357 452.007 591.398 452.61 591.398 452.61L589.435 442.817L575.863 444.411L575.763 459.783L569.176 475.041L559.515 479.808C558.655 480.232 558.099 481.199 558.099 482.268L558.099 482.268H558.099Z" fill="#022B3D"/>
<path d="M682.489 463.989L673.717 464.196L668.828 424.835L681.773 424.529L682.489 463.989Z" fill="#FFB7B7"/>
<path d="M652.394 482.268C652.394 483.748 653.446 484.947 654.743 484.947H672.154C672.154 484.947 673.868 478.068 680.853 475.108L681.336 484.947H690.317L689.229 469.126C689.229 469.126 691.632 460.661 686.642 456.334C681.652 452.007 685.694 452.61 685.694 452.61L683.731 442.817L670.158 444.411L670.058 459.783L663.472 475.041L653.811 479.808C652.951 480.232 652.394 481.199 652.394 482.268L652.394 482.268V482.268Z" fill="#022B3D"/>
<path d="M611.721 177.839L665.737 186.831C672.818 198.523 686.743 242.781 686.743 242.781C686.743 242.781 683.095 365.733 686.214 436.868L663.736 437.605L633.727 278.748L593.715 433.608L571.889 435.151L574.71 324.707C574.71 324.707 604.87 179.208 611.721 177.839V177.839Z" fill="#022B3D"/>
<path d="M637.218 79.7094L664.725 80.568L693.091 118.344C682.09 146.112 671.744 166.161 672.195 185.96C672.234 187.638 674.972 191.406 675.196 192.954C675.499 195.046 671.518 198.116 672.195 199.948L605.719 185.832C607.064 183.937 605.906 181.543 606.72 179.838C607.435 178.339 610.179 177.516 610.512 176.063C612.313 168.215 613.273 155.12 606.499 139.743C601.682 128.81 622.884 103.303 621.745 90.8707L637.218 79.7094V79.7094Z" fill="#E6E6E6"/>
<path d="M643.524 97.3479V97.3479L592.926 165.565L533.614 149.252L536.193 133.798L581.357 142.342L606.553 103.653C614.78 87.7688 630.996 84.5698 643.524 97.3479V97.3479Z" fill="#E6E6E6"/>
<path d="M650.047 71.0062C663.226 71.0062 673.911 60.3349 673.911 47.1712C673.911 34.0074 663.226 23.3361 650.047 23.3361C636.867 23.3361 626.183 34.0074 626.183 47.1712C626.183 60.3349 636.867 71.0062 650.047 71.0062Z" fill="#FFB7B7"/>
<path d="M672.238 261.088C672.909 258.728 674.059 256.715 675.427 255.279L680.397 232.393L691.231 235.074L685.022 258.001C685.431 259.941 685.349 262.256 684.678 264.616C683.145 270.008 679.118 273.589 675.683 272.615C672.248 271.64 670.705 266.48 672.238 261.088L672.238 261.088Z" fill="#FFB6B6"/>
<path d="M673.737 93.5439C673.737 93.5439 693.74 92.5264 695.197 105.775C696.654 119.024 701.313 194.48 701.313 194.48L690.512 245.411L675.11 243.273L681.916 178.443L673.737 93.5439Z" fill="#E6E6E6"/>
<path d="M674.31 26.9157C674.31 32.3008 671.319 39.2345 671.319 47.3772L662.246 45.0193C662.066 43.4407 661.146 38.5052 660.735 36.9666C660.946 38.4153 661.396 43.2809 660.896 44.6597L656.444 43.5007C656.414 42.6714 656.344 41.8422 656.244 41.0229C656.064 39.4443 655.764 37.8858 655.354 36.3472C655.564 37.7958 655.394 39.2845 654.894 40.6633C654.604 41.4225 654.224 42.1419 653.743 42.8013L631.777 37.0765C626.455 35.0767 625.641 42.1143 625.725 50.954C625.725 50.954 622.724 19.9819 645.531 18.1935L648.972 14.7566C669.688 15.9455 674.31 20.2317 674.31 26.9157V26.9157Z" fill="#022B3D"/>
<path d="M625.412 56.236C626.228 64.5543 625.233 72.9232 624.047 81.2066C623.666 83.8725 623.241 86.6013 621.82 88.9746C620.398 91.3478 617.752 93.3294 614.721 93.3909C619.486 94.6764 624.982 93.5497 628.626 90.5398C632.326 87.4841 633.952 82.8526 634.077 78.3716C634.201 73.8906 632.987 69.4749 631.782 65.1218L625.412 56.236V56.236Z" fill="#075171"/>
<path d="M668.969 24.1883C669.786 39.3541 668.79 54.6121 667.605 69.7142C667.223 74.5745 666.799 79.5496 665.377 83.8765C663.955 88.2034 661.31 91.8162 658.279 91.9284C663.044 94.272 668.539 92.2177 672.183 86.7303C675.883 81.1592 677.51 72.7151 677.634 64.5454C677.759 56.3758 676.545 48.3252 675.339 40.3887L668.969 24.1883V24.1883Z" fill="#075171"/>
<path d="M161.724 476.352L176.083 476.35L182.913 421.033L161.721 421.035L161.724 476.352Z" fill="#A0616A"/>
<path d="M210.918 476.026C211.365 476.778 211.601 479.205 211.601 480.08C211.601 482.768 209.419 484.947 206.728 484.947H162.261C160.425 484.947 158.936 483.461 158.936 481.627V479.778C158.936 479.778 156.737 474.22 161.266 467.371C161.266 467.371 166.894 472.734 175.305 464.334L177.785 459.846L195.739 472.96L205.691 474.184C207.868 474.451 209.798 474.142 210.918 476.026V476.026Z" fill="#022B3D"/>
<path d="M117.711 476.352L132.069 476.35L138.9 421.033L117.708 421.035L117.711 476.352Z" fill="#A0616A"/>
<path d="M166.905 476.026C167.352 476.778 167.588 479.205 167.588 480.08C167.588 482.768 165.406 484.947 162.714 484.947H118.248C116.412 484.947 114.923 483.461 114.923 481.627V479.778C114.923 479.778 112.724 474.22 117.252 467.371C117.252 467.371 122.881 472.734 131.292 464.334L133.772 459.846L151.726 472.96L161.677 474.184C163.855 474.451 165.785 474.142 166.905 476.026V476.026Z" fill="#022B3D"/>
<path d="M120.073 199.32L111.07 342.191L115.572 452.426H143.588L161.085 265.26L157.198 452.426L183.092 452.092L210.6 236.786C210.6 236.786 210.1 214.306 201.598 202.817C193.095 191.327 120.073 199.32 120.073 199.32V199.32Z" fill="#022B3D"/>
<path d="M224.319 166.453L201.769 167.341L204.403 192.499L248.612 225.796L254.614 216.804L222.868 180.294L224.319 166.453Z" fill="#A0616A"/>
<path d="M181.591 73.9332L150.582 70.9359L127.575 81.926V172.844L120.259 188.122C117.903 193.043 117.655 198.709 119.573 203.816L201.597 202.817L199.597 191.827L203.598 170.846L206.599 93.9152L181.591 73.9332H181.591Z" fill="#E6E6E6"/>
<path d="M200.097 93.4156C200.097 93.4156 207.099 86.4219 212.101 104.406C217.102 122.389 229.106 186.332 229.106 186.332L200.597 186.831L193.095 118.393L200.097 93.4156Z" fill="#E6E6E6"/>
<path d="M120.073 170.346L117.072 244.134L106.069 245.278L102.068 172.344L120.073 170.346Z" fill="#A0616A"/>
<path d="M139.079 82.4255C139.079 82.4255 121.074 75.4319 116.072 93.4156C111.071 111.399 99.0669 175.342 99.0669 175.342L121.074 176.919L146.081 107.403L139.079 82.4255V82.4255Z" fill="#E6E6E6"/>
<path d="M165.229 65.2303C180.339 65.2303 192.588 52.9962 192.588 37.9046C192.588 22.8131 180.339 10.579 165.229 10.579C150.119 10.579 137.871 22.8131 137.871 37.9046C137.871 52.9962 150.119 65.2303 165.229 65.2303Z" fill="#A0616A"/>
<path d="M112.178 266.345C116.742 266.19 120.231 259.839 119.97 252.161C119.708 244.482 115.796 238.383 111.231 238.538C106.667 238.693 103.178 245.043 103.439 252.722C103.701 260.4 107.613 266.5 112.178 266.345Z" fill="#A0616A"/>
<path d="M270.059 236.817C273.13 233.44 271.003 226.515 265.309 221.349C259.615 216.184 252.509 214.734 249.438 218.111C246.368 221.488 248.495 228.413 254.189 233.578C259.883 238.744 266.989 240.194 270.059 236.817Z" fill="#A0616A"/>
<path d="M186.427 14.3888C183.714 10.126 181.848 11.8505 176.818 11.3244C173.935 11.0228 168.542 6.49699 165.718 7.15202C161.996 8.01547 158.181 8.91835 155.012 11.0499C148.292 7.10166 145.902 14.8297 140.076 20.0034C134.249 25.1771 132.273 34.2224 135.412 41.35C136.907 44.7443 136.793 48.3463 139.224 51.1486C142.024 54.3748 143.565 58.8649 143.781 59.1134C144.946 60.4561 150.433 61.3985 150.657 61.6565C152.854 64.1886 156.394 63.4082 158.591 65.9404L159.858 52.5439C158.079 50.9126 156.238 49.1912 155.408 46.9261C154.579 44.661 155.129 41.6945 157.26 40.5595C158.936 39.6668 161.178 40.0682 162.638 38.855C164.867 37.0032 163.492 33.1295 165.114 30.7298C166.074 29.311 167.854 28.7399 169.5 28.2627C172.168 27.4892 174.837 26.7158 177.505 25.9423C179.987 25.2228 182.536 24.4958 185.113 24.7012C187.689 24.9066 190.339 26.2491 191.357 28.622C190.418 23.6584 189.141 18.6517 186.427 14.3888L186.427 14.3888Z" fill="#022B3D"/>
<path d="M279.496 186.131H279.496C276.103 177.398 266.264 173.065 257.52 176.455H257.52C248.859 179.812 244.526 189.485 247.742 198.155L247.488 198.254L259.777 229.88L288.914 218.586C289.877 218.396 290.838 218.125 291.785 217.758H291.785C300.529 214.368 304.866 204.541 301.473 195.807V195.807C298.079 187.074 288.24 182.742 279.496 186.131L279.496 186.131V186.131Z" fill="#CCA723"/>
<path d="M516.692 16.9847V122.889C516.692 132.255 509.064 139.874 499.687 139.874H393.655C384.279 139.874 376.65 132.255 376.65 122.889V16.9847C376.65 7.6191 384.279 0 393.655 0H499.687C509.064 0 516.692 7.6191 516.692 16.9847ZM499.687 137.875C507.974 137.875 514.692 131.166 514.692 122.889V69.4963C514.692 32.2181 484.436 1.99819 447.113 1.99819H447.112C409.302 1.99819 378.651 32.6125 378.651 70.3772V122.889C378.651 131.166 385.369 137.875 393.655 137.875H499.687V137.875Z" fill="#DEC878"/>
<path d="M494.001 38.1892L494.001 38.1893C484.747 36.6631 476.007 42.9188 474.478 52.1617L474.478 52.1617C472.965 61.317 479.097 69.9646 488.207 71.6111L488.163 71.8792L521.675 77.406L526.766 46.6061C527.093 45.6811 527.348 44.7174 527.513 43.7162V43.7161C529.041 34.4732 522.778 25.7431 513.524 24.2169L513.524 24.2169C504.27 22.6908 495.529 28.9464 494.001 38.1893L494.001 38.1892V38.1892Z" fill="#CCA723"/>
<path d="M383.528 112.198H383.528C380.134 103.464 370.295 99.1321 361.551 102.521H361.551C352.89 105.879 348.557 115.552 351.773 124.222L351.519 124.32L363.808 155.947L392.945 144.653C393.909 144.463 394.869 144.192 395.816 143.825H395.816C404.56 140.435 408.898 130.608 405.504 121.874V121.874C402.111 113.141 392.271 108.808 383.528 112.198L383.528 112.198V112.198Z" fill="#CCA723"/>
<path d="M1.24738 487H747.753C748.442 487 749 486.442 749 485.754C749 485.066 748.442 484.508 747.753 484.508H1.24738C0.558488 484.508 0 485.066 0 485.754C0 486.442 0.558488 487 1.24738 487Z" fill="#E6E6E6"/>
</g>
<defs>
<filter id="filter0_f_397_1514" x="11.3003" y="284.738" width="204.972" height="204.552" filterUnits="userSpaceOnUse" color-interpolation-filters="sRGB">
<feFlood flood-opacity="0" result="BackgroundImageFix"/>
<feBlend mode="normal" in="SourceGraphic" in2="BackgroundImageFix" result="shape"/>
<feGaussianBlur stdDeviation="2" result="effect1_foregroundBlur_397_1514"/>
</filter>
<clipPath id="clip0_397_1514">
<rect width="749" height="487" fill="white"/>
</clipPath>
</defs>
</svg>
