<svg width="518" height="425" viewBox="0 0 518 425" fill="none" xmlns="http://www.w3.org/2000/svg">
<g clip-path="url(#clip0_397_1561)">
<g opacity="0.3" filter="url(#filter0_f_397_1561)">
<path d="M285.715 130.695L285.729 130.709L411 255.176L285.767 379.253C255.498 409.641 206.211 409.512 175.83 379.291L105.867 309.697C75.319 279.588 75.449 230.561 105.829 200.34L175.793 130.746C206.056 100.365 255.331 100.489 285.712 130.693L285.715 130.695Z" fill="#D9D9D9"/>
</g>
<path d="M376.427 394.969C383.034 383.285 390.698 370.299 404.391 366.149C408.199 364.999 412.191 364.587 416.154 364.935C417.403 365.043 417.091 366.966 415.844 366.859C409.202 366.308 402.573 368.061 397.073 371.822C391.781 375.423 387.66 380.428 384.172 385.737C382.035 388.988 380.122 392.377 378.207 395.762C377.596 396.844 375.808 396.063 376.427 394.969V394.969Z" fill="#F2F2F2"/>
<path d="M118.436 89.9855L6.31856 66.5095L4.86154 66.2052C4.11952 66.0487 3.34836 66.1047 2.63677 66.3667C1.92518 66.6288 1.30205 67.0863 0.839034 67.6865C0.376019 68.2868 0.0919335 69.0054 0.0194319 69.7599C-0.0530697 70.5143 0.0889704 71.2739 0.429208 71.9512L45.4237 161.919C45.7149 162.497 46.1408 162.997 46.6655 163.376C47.1902 163.755 47.7983 164.003 48.4388 164.098C49.0813 164.194 49.7375 164.132 50.3507 163.918C50.9639 163.704 51.5157 163.344 51.9585 162.868L82.6448 130.144C82.8631 129.906 83.1284 129.715 83.4241 129.584C83.7198 129.452 84.0394 129.384 84.3629 129.382C84.8026 129.373 85.2363 129.484 85.6178 129.703C85.9993 129.921 86.3141 130.24 86.5285 130.623L92.923 142.278C93.3314 143.055 93.9883 143.674 94.7889 144.035C95.5896 144.396 96.4881 144.479 97.3414 144.27L97.3728 144.263C98.2366 144.075 99.012 143.602 99.5743 142.92C100.137 142.238 100.453 141.387 100.473 140.504L101.58 113.506C101.593 113.169 101.675 112.839 101.821 112.535C101.978 112.234 102.192 111.967 102.452 111.748L120.18 97.0268C120.762 96.543 121.197 95.9049 121.433 95.1856C121.67 94.4663 121.699 93.695 121.517 92.96C121.335 92.225 120.949 91.5561 120.404 91.0301C119.86 90.504 119.178 90.142 118.436 89.9855V89.9855ZM119.155 95.7905L101.427 110.511C101.196 110.7 100.987 110.913 100.804 111.148L6.13044 68.9131C6.04693 68.8748 5.95986 68.8449 5.87049 68.8237C5.50575 68.732 5.12044 68.7707 4.78119 68.9329C4.44194 69.0951 4.17009 69.3707 4.01264 69.7121C3.85518 70.0534 3.82203 70.439 3.91892 70.8022C4.01581 71.1654 4.23665 71.4833 4.54324 71.701L82.5153 128.234C82.1226 128.441 81.7685 128.714 81.4686 129.041L50.7826 161.765C50.5163 162.049 50.1855 162.264 49.8183 162.392C49.4512 162.52 49.0584 162.558 48.6735 162.502C48.2885 162.446 47.9228 162.298 47.6073 162.071C47.2919 161.843 47.036 161.543 46.8615 161.196L1.86701 71.2281C1.66584 70.8216 1.58296 70.3668 1.62781 69.9155C1.67267 69.4642 1.84346 69.0346 2.12072 68.6756C2.39797 68.3166 2.77053 68.0426 3.19599 67.8849C3.62144 67.7272 4.08267 67.6921 4.52712 67.7836L6.01873 68.0964L118.102 91.564C118.547 91.6575 118.956 91.8744 119.284 92.1898C119.611 92.5052 119.843 92.9064 119.953 93.3475C120.063 93.7885 120.046 94.2515 119.905 94.6836C119.764 95.1156 119.504 95.4992 119.155 95.7904L119.155 95.7905Z" fill="#CCCCCC"/>
<path d="M118.436 89.9855L6.31856 66.5095L4.86154 66.2052C4.11952 66.0487 3.34836 66.1047 2.63677 66.3667C1.92518 66.6288 1.30205 67.0863 0.839034 67.6865C0.376019 68.2868 0.0919335 69.0054 0.0194319 69.7599C-0.0530697 70.5143 0.0889704 71.2739 0.429208 71.9512L45.4237 161.919C45.7149 162.497 46.1408 162.997 46.6655 163.376C47.1902 163.755 47.7983 164.003 48.4388 164.098C49.0813 164.194 49.7375 164.132 50.3507 163.918C50.9639 163.704 51.5157 163.344 51.9585 162.868L82.6448 130.144C82.8631 129.906 83.1284 129.715 83.4241 129.584C83.7198 129.452 84.0394 129.384 84.3629 129.382C84.8026 129.373 85.2363 129.484 85.6178 129.703C85.9993 129.921 86.3141 130.24 86.5285 130.623L92.923 142.278C93.3314 143.055 93.9883 143.674 94.7889 144.035C95.5896 144.396 96.4881 144.479 97.3414 144.27L97.3728 144.263C98.2366 144.075 99.012 143.602 99.5743 142.92C100.137 142.238 100.453 141.387 100.473 140.504L101.58 113.506C101.593 113.169 101.675 112.839 101.821 112.535C101.978 112.234 102.192 111.967 102.452 111.748L120.18 97.0268C120.762 96.543 121.197 95.9049 121.433 95.1856C121.67 94.4663 121.699 93.695 121.517 92.96C121.335 92.225 120.949 91.5561 120.404 91.0301C119.86 90.504 119.178 90.142 118.436 89.9855V89.9855ZM119.155 95.7905L101.427 110.511C101.196 110.7 100.987 110.913 100.804 111.148C100.638 111.357 100.496 111.584 100.379 111.823C100.256 112.068 100.16 112.325 100.091 112.59L100.093 112.598C100.021 112.874 99.9799 113.157 99.9711 113.443L98.8649 140.44C98.8574 140.971 98.6694 141.483 98.3318 141.893C97.9943 142.303 97.5272 142.586 97.0075 142.695L96.9918 142.699C96.4798 142.829 95.9387 142.783 95.4564 142.567C94.974 142.352 94.5786 141.98 94.3343 141.511L87.938 129.849C87.6085 129.249 87.131 128.743 86.551 128.38C85.9709 128.016 85.3075 127.806 84.6237 127.771L84.616 127.773C84.5241 127.769 84.4324 127.765 84.3425 127.769C83.7047 127.773 83.0775 127.933 82.5153 128.234C82.1226 128.441 81.7685 128.714 81.4687 129.041L50.7826 161.765C50.5163 162.049 50.1855 162.264 49.8183 162.392C49.4512 162.52 49.0584 162.558 48.6735 162.502C48.2885 162.446 47.9228 162.298 47.6073 162.071C47.2919 161.843 47.036 161.543 46.8615 161.196L1.86701 71.2281C1.66584 70.8216 1.58296 70.3668 1.62781 69.9155C1.67267 69.4642 1.84346 69.0346 2.12072 68.6756C2.39797 68.3166 2.77053 68.0426 3.19599 67.8849C3.62144 67.7272 4.08267 67.6921 4.52712 67.7836L6.01873 68.0964L118.102 91.564C118.547 91.6575 118.956 91.8744 119.284 92.1898C119.611 92.5052 119.843 92.9064 119.953 93.3475C120.063 93.7885 120.046 94.2515 119.905 94.6836C119.764 95.1156 119.504 95.4992 119.155 95.7904L119.155 95.7905Z" fill="#3F3D56"/>
<path d="M101.162 111.306L100.505 112.776L100.093 112.598L100.091 112.59L5.49313 70.3955L84.6161 127.773L84.6238 127.771L84.8333 127.93L83.8912 129.233L82.5154 128.234L4.54331 71.701C4.2367 71.4833 4.01586 71.1654 3.91896 70.8022C3.82206 70.439 3.85519 70.0534 4.01265 69.7121C4.17011 69.3707 4.44199 69.0951 4.78125 68.9329C5.12052 68.7707 5.50586 68.732 5.87061 68.8237C5.95997 68.8449 6.04704 68.8749 6.13055 68.9131L100.804 111.148L101.162 111.306Z" fill="#3F3D56"/>
<path d="M344.58 223.785L348.672 263.766L348.752 264.587L349.968 276.443L359.955 374.064V374.08L361.896 393.02C361.138 394.038 360.467 395.118 359.891 396.248C358.131 399.718 357.271 403.574 357.39 407.462C357.508 411.351 358.6 415.147 360.567 418.504C365.44 417.281 370.245 415.886 374.984 414.319C384.786 411.096 394.346 407.18 403.591 402.599C402.63 397.311 399.867 392.519 395.771 389.036L385.744 268.627L384.866 258.067L382.007 223.785H344.58Z" fill="#FFB8B8"/>
<path d="M373.257 114.893C393.937 94.2254 393.937 60.7172 373.257 40.05C352.578 19.3828 319.05 19.3828 298.371 40.05C277.692 60.7172 277.692 94.2254 298.371 114.893C319.05 135.56 352.578 135.56 373.257 114.893Z" fill="#FFB8B8"/>
<path d="M237.116 295.898C237.124 296.003 237.133 296.108 237.14 296.204C237.316 298.269 238.148 300.223 239.515 301.781C240.881 303.339 242.711 304.42 244.735 304.865L323.761 322.115C324.446 322.264 325.145 322.34 325.847 322.34C327.966 322.339 330.027 321.643 331.713 320.36C333.4 319.076 334.618 317.275 335.181 315.233C335.35 314.605 335.536 313.961 335.737 313.293V313.285C338.403 304.237 343.163 291.922 349.968 276.443C351.507 272.942 353.152 269.274 354.905 265.44C355.228 264.732 355.558 264.015 355.88 263.299C359.496 255.451 363.531 246.956 367.985 237.815C370.164 233.347 371.81 228.638 372.89 223.785C375.759 210.975 374.626 197.593 369.644 185.447C368.629 182.974 367.459 180.568 366.141 178.242C360.939 169.078 353.569 161.329 344.676 155.672C335.782 150.015 325.636 146.624 315.127 145.796C313.46 145.659 311.801 145.595 310.133 145.595C293.458 145.668 277.452 152.16 265.442 163.722C258.355 170.589 252.974 179.019 249.729 188.336C249.519 188.924 249.326 189.519 249.133 190.115C246.157 199.542 243.769 209.145 241.981 218.867C240.91 224.638 240.04 230.329 239.339 235.875C236.883 255.782 236.139 275.864 237.116 295.898V295.898Z" fill="#075171"/>
<path d="M202.315 397.029C250.326 424.302 307.018 431.995 360.567 418.504C365.44 417.281 370.245 415.886 374.984 414.319C370.78 400.619 365.761 387.182 359.955 374.08V374.064C350.274 352.372 341.383 339.098 337.05 333.239C336.337 332.268 335.868 331.141 335.682 329.952C335.496 328.763 335.597 327.547 335.978 326.405L337.324 322.372C337.836 320.846 337.959 319.217 337.681 317.631C337.404 316.046 336.736 314.555 335.737 313.293V313.285C335.648 313.172 335.552 313.059 335.455 312.946C300.251 272.861 238.88 294.731 238.26 294.956L237.954 295.069L237.761 295.335C237.551 295.625 237.342 295.906 237.14 296.204C220.501 319.507 209.443 355.326 202.315 397.029Z" fill="black"/>
<path d="M129.954 138.945C130.219 140.108 130.391 141.29 130.47 142.479L223.084 195.877L245.596 182.925L269.594 214.324L231.972 241.124C228.932 243.289 225.272 244.41 221.541 244.319C217.81 244.228 214.209 242.93 211.279 240.62L115.777 165.322C111.467 166.916 106.773 167.162 102.32 166.025C97.8676 164.889 93.8665 162.424 90.8493 158.959C87.8321 155.495 85.9419 151.194 85.4299 146.63C84.918 142.065 85.8087 137.453 87.9835 133.407C90.1583 129.361 93.5142 126.072 97.6047 123.979C101.695 121.885 106.327 121.086 110.883 121.687C115.439 122.288 119.704 124.261 123.111 127.344C126.518 130.427 128.904 134.474 129.954 138.945V138.945Z" fill="#FFB8B8"/>
<path d="M224.504 195.057V195.065C224.84 196.277 225.409 197.412 226.179 198.406L241.981 218.867L249.511 228.631L256.116 237.179C256.967 238.282 258.046 239.189 259.28 239.838C260.514 240.486 261.873 240.862 263.264 240.938C264.656 241.014 266.048 240.79 267.346 240.28C268.643 239.77 269.815 238.987 270.782 237.984L294.767 213.096L304.665 202.817C310.289 198.431 313.943 191.995 314.826 184.921C315.71 177.846 313.75 170.71 309.376 165.078C305.003 159.445 298.573 155.776 291.497 154.874C284.42 153.973 277.275 155.913 271.628 160.269L265.442 163.722L229.127 184.022C227.235 185.082 225.752 186.744 224.914 188.744C224.077 190.744 223.932 192.966 224.504 195.057H224.504Z" fill="#075171"/>
<path d="M329.254 207.888L330.768 256.223L330.776 256.529C330.818 257.923 331.161 259.29 331.781 260.539C332.401 261.788 333.283 262.888 334.367 263.765C335.451 264.642 336.712 265.275 338.063 265.621C339.414 265.967 340.824 266.018 342.196 265.77L348.752 264.587L350.428 264.281H350.435L355.88 263.299L384.866 258.067L390.415 257.069C391.787 256.819 393.088 256.278 394.231 255.482C395.375 254.685 396.333 253.652 397.042 252.452C397.75 251.252 398.191 249.914 398.336 248.529C398.481 247.144 398.326 245.743 397.881 244.423L382.249 198.164C380.941 191.157 376.907 184.954 371.031 180.914C365.154 176.875 357.915 175.33 350.9 176.617C343.885 177.904 337.667 181.919 333.609 187.78C329.551 193.642 327.985 200.873 329.254 207.888V207.888Z" fill="#6C63FF"/>
<path d="M327.433 65.2987C313.823 74.6081 295.953 84.1776 282.052 74.2639C272.925 67.7543 270.049 55.7001 273.75 45.1218C280.406 26.0989 298.694 17.7241 316.181 11.3046C338.914 2.95935 363.668 -3.67969 387.136 2.29679C410.605 8.27326 431.345 30.9822 427.109 54.8132C423.702 73.9776 405.614 89.9239 408.182 109.219C410.766 128.637 432.617 138.858 451.908 142.329C471.199 145.8 492.786 146.915 506.649 160.763C524.335 178.429 519.919 210.005 503.277 228.657C486.636 247.308 461.523 255.763 437.189 261.511C404.947 269.126 370.076 273.128 339.454 260.49C308.833 247.852 285.004 213.831 293.875 181.93C297.622 168.455 306.448 157.066 314.978 145.98C323.509 134.893 332.147 123.299 335.4 109.697C338.112 98.3615 336.105 85.2007 328.584 76.6979C327.216 75.2096 326.355 73.3264 326.125 71.3186C325.894 69.3108 326.307 67.2817 327.302 65.5227L327.433 65.2987Z" fill="#A5830A"/>
</g>
<defs>
<filter id="filter0_f_397_1561" x="79" y="104" width="336" height="302" filterUnits="userSpaceOnUse" color-interpolation-filters="sRGB">
<feFlood flood-opacity="0" result="BackgroundImageFix"/>
<feBlend mode="normal" in="SourceGraphic" in2="BackgroundImageFix" result="shape"/>
<feGaussianBlur stdDeviation="2" result="effect1_foregroundBlur_397_1561"/>
</filter>
<clipPath id="clip0_397_1561">
<rect width="518" height="425" fill="white"/>
</clipPath>
</defs>
</svg>
