<svg width="665" height="469" viewBox="0 0 665 469" fill="none" xmlns="http://www.w3.org/2000/svg">
<g opacity="0.3" filter="url(#filter0_f_3400_9834)">
<path d="M382.193 33.6446L382.223 33.6446L653.049 33.3319L651.223 303.689C651.213 369.467 597.511 422.666 531.793 422.704L380.452 422.791C314.672 423.131 261.759 369.713 262.072 303.997L262.793 152.656C262.805 86.8909 316.487 33.7012 382.188 33.6446L382.193 33.6446Z" fill="#D9D9D9"/>
</g>
<path d="M112.102 92.8239C112.086 101.64 109.457 110.254 104.545 117.576C99.6342 124.898 92.662 130.6 84.5106 133.959C76.3592 137.319 67.3946 138.186 58.7505 136.45C50.1064 134.715 42.171 130.455 35.9479 124.21C29.7247 117.965 25.4932 110.014 23.7885 101.364C22.0838 92.7137 22.9824 83.7523 26.3708 75.6128C29.7592 67.4734 35.4852 60.5215 42.8245 55.6363C50.1639 50.751 58.7871 48.1519 67.6037 48.1676C73.4619 48.1627 79.2634 49.3157 84.6747 51.5601C90.086 53.8045 95.0003 57.0962 99.1354 61.246C103.27 65.3957 106.545 70.3217 108.77 75.7409C110.995 81.1601 112.128 86.9656 112.102 92.8239Z" fill="#F2F2F2"/>
<path d="M46.8621 78.2443C48.7053 72.3699 52.8969 66.9821 58.6938 64.9962C64.4911 63.0103 72.9798 66.0355 77.338 70.379C85.3101 78.3241 87.2555 105.618 81.7784 114.244C80.689 114.186 76.9298 114.143 75.8272 114.102L74.2674 108.903V114.051C72.5108 113.997 70.7404 113.959 68.9563 113.939C62.9745 113.864 57.2544 111.474 52.9985 107.27C48.7427 103.065 46.2826 97.3749 46.1355 91.3944C45.9928 85.6732 46.1357 80.5592 46.8621 78.2443Z" fill="#CCCCCC"/>
<path d="M66.8644 97.7122C73.8807 97.7122 79.5686 92.0243 79.5686 85.0079C79.5686 77.9916 73.8807 72.3037 66.8644 72.3037C59.848 72.3037 54.1602 77.9916 54.1602 85.0079C54.1602 92.0243 59.848 97.7122 66.8644 97.7122Z" fill="#CCCCCC"/>
<path d="M55.8984 73.8513L70.5261 66.5269C73.5167 67.8745 76.0923 69.9976 77.9857 72.6761C79.8792 75.3545 81.0216 78.4908 81.2945 81.7596L81.6591 86.1269L75.5338 84.5677L74.8627 78.9832L73.8225 84.1321L70.9957 83.4128L71.0226 74.743L68.194 83.4066L58.0979 81.087L55.8984 73.8513Z" fill="#CCCCCC"/>
<path d="M100.603 122.245C92.8801 131.032 82.0113 136.43 70.3429 137.273C58.6745 138.117 47.1425 134.338 38.2363 126.752L42.0598 116.083C42.9239 114.188 44.2874 112.564 46.0043 111.385C47.7211 110.206 49.7264 109.517 51.8052 109.391L54.2376 109.242L60.0377 104.239C60.0377 104.239 75.6658 103.681 75.4339 103.414L84.9003 109.108L84.8924 109.069L88.6137 109.297C90.6927 109.422 92.6983 110.111 94.4152 111.29C96.1321 112.469 97.4956 114.093 98.3592 115.989L100.603 122.245Z" fill="#CCCCCC"/>
<path d="M67.843 342.052C92.4624 342.052 112.42 322.094 112.42 297.474C112.42 272.855 92.4624 252.897 67.843 252.897C43.2236 252.897 23.2656 272.855 23.2656 297.474C23.2656 322.094 43.2236 342.052 67.843 342.052Z" fill="#F2F2F2"/>
<path d="M49.6522 280.038C49.0404 283.325 48.0371 286.527 46.6639 289.575C38.8004 306.21 61.1942 300.788 69.1969 300.788C77.9468 300.788 86.3186 305.389 85.04 284.945C84.4938 276.212 77.9468 269.102 69.1969 269.102C61.7231 269.102 51.215 272.424 49.6522 280.038Z" fill="#CCCCCC"/>
<path d="M67.886 300.786C74.9962 300.786 80.7602 295.022 80.7602 287.911C80.7602 280.801 74.9962 275.037 67.886 275.037C60.7757 275.037 55.0117 280.801 55.0117 287.911C55.0117 295.022 60.7757 300.786 67.886 300.786Z" fill="#CCCCCC"/>
<path d="M59.1401 274.787C61.3961 273.411 63.9801 272.667 66.622 272.633C69.2639 272.598 71.8667 273.273 74.1581 274.589C76.4496 275.904 78.3455 277.811 79.6478 280.11C80.9501 282.409 81.6108 285.015 81.5608 287.657C75.0007 289.304 68.1089 290.565 61.1131 288.051L59.4609 284.008L58.4869 288.054C56.3564 288.925 54.2204 289.662 52.0844 288.046C51.9972 285.411 52.6029 282.8 53.8411 280.474C55.0793 278.147 56.9065 276.186 59.1401 274.787Z" fill="#CCCCCC"/>
<path d="M102.505 327.116C94.7824 335.903 83.9137 341.301 72.2453 342.145C60.5769 342.988 49.0448 339.209 40.1387 331.623L43.9622 320.954C44.8262 319.059 46.1898 317.435 47.9066 316.256C49.6234 315.077 51.6287 314.388 53.7076 314.262L56.14 314.113L61.9401 309.11C61.9401 309.11 77.5681 308.552 77.3362 308.285L86.8026 313.979L86.7948 313.94L90.5161 314.168C92.5951 314.293 94.6006 314.982 96.3176 316.161C98.0345 317.34 99.3979 318.965 100.262 320.86L102.505 327.116Z" fill="#CCCCCC"/>
<path d="M259.628 301.31C299.488 301.31 331.802 268.997 331.802 229.136C331.802 189.275 299.488 156.961 259.628 156.961C219.767 156.961 187.453 189.275 187.453 229.136C187.453 268.997 219.767 301.31 259.628 301.31Z" fill="#F2F2F2"/>
<path d="M262.566 236.499C275.564 236.499 286.101 225.962 286.101 212.964C286.101 199.967 275.564 189.43 262.566 189.43C249.568 189.43 239.031 199.967 239.031 212.964C239.031 225.962 249.568 236.499 262.566 236.499Z" fill="#CCCCCC"/>
<path d="M283.29 197.416C283.29 197.416 289.418 185.702 275.937 184.637C275.937 184.637 264.444 174.211 252.73 182.731C252.73 182.731 246.34 182.731 242.846 189.961C242.846 189.961 237.821 188.055 236.716 193.156C236.716 193.156 233.039 203.805 236.716 213.39C240.394 222.974 241.615 224.039 241.615 224.039C241.615 224.039 239.035 212.145 253.743 211.08C268.451 210.016 281.944 200.802 283.169 212.516C284.395 224.23 285.742 218.938 285.742 218.938C285.742 218.938 297.384 202.208 283.29 197.416Z" fill="#CCCCCC"/>
<path d="M313.506 277.128C301.002 291.356 283.405 300.095 264.513 301.461C245.62 302.826 226.949 296.707 212.529 284.426L218.72 267.152C220.119 264.084 222.327 261.454 225.106 259.546C227.886 257.637 231.133 256.521 234.498 256.317L238.437 256.075L247.828 247.976C247.828 247.976 273.131 247.072 272.755 246.64L288.082 255.859L288.069 255.795L294.095 256.164C297.461 256.367 300.708 257.483 303.488 259.392C306.267 261.301 308.475 263.931 309.873 266.999L313.506 277.128Z" fill="#CCCCCC"/>
<path d="M140.755 229.374C165.374 229.374 185.332 209.416 185.332 184.797C185.332 160.178 165.374 140.22 140.755 140.22C116.136 140.22 96.1777 160.178 96.1777 184.797C96.1777 209.416 116.136 229.374 140.755 229.374Z" fill="#F2F2F2"/>
<path d="M139.528 190.319C147.387 190.319 153.758 183.949 153.758 176.09C153.758 168.231 147.387 161.86 139.528 161.86C131.67 161.86 125.299 168.231 125.299 176.09C125.299 183.949 131.67 190.319 139.528 190.319Z" fill="#CCCCCC"/>
<path d="M174.195 214.623C166.472 223.41 155.603 228.808 143.935 229.651C132.266 230.495 120.734 226.716 111.828 219.13L115.652 208.461C116.516 206.566 117.879 204.942 119.596 203.763C121.313 202.584 123.318 201.895 125.397 201.769L127.829 201.62L133.63 196.617C133.63 196.617 149.258 196.059 149.026 195.792L158.492 201.486L158.484 201.447L162.206 201.675C164.285 201.8 166.29 202.489 168.007 203.668C169.724 204.847 171.087 206.471 171.951 208.367L174.195 214.623Z" fill="#CCCCCC"/>
<path d="M154.534 167.265C153.331 162.961 150.599 159.244 146.851 156.811C143.863 154.901 140.135 153.925 136.751 154.936C133.366 155.946 130.564 159.268 130.786 162.856C130.159 162.692 129.498 162.706 128.879 162.897C128.26 163.088 127.706 163.449 127.281 163.939C126.432 164.941 125.842 166.136 125.562 167.42C124.476 171.444 124.548 175.692 125.769 179.676L125.702 180.248C127.353 179.975 128.606 178.558 129.384 177.049C130.163 175.54 130.611 173.865 131.456 172.392C132.3 170.92 133.701 169.606 135.374 169.56L135.226 172.116L139.542 169.893C139.2 170.711 138.858 171.53 138.516 172.349C139.772 171.823 141.028 171.298 142.285 170.773C142.144 171.56 142.004 172.347 141.863 173.135C142.193 172.451 142.657 171.842 143.229 171.343C143.801 170.845 144.468 170.468 145.19 170.234C145.911 170.001 146.673 169.916 147.428 169.986C148.184 170.055 148.917 170.277 149.584 170.638C151.087 171.649 152.17 173.173 152.631 174.924C153.087 176.671 153.332 178.467 153.36 180.273C155.302 176.219 155.718 171.601 154.534 167.265Z" fill="#CCCCCC"/>
<path d="M235.357 220.701V220.727C235.316 220.63 235.29 220.527 235.277 220.423L235.357 220.701Z" fill="#F2F2F2"/>
<path d="M235.356 220.727C235.422 221.005 235.502 221.283 235.581 221.549C235.473 221.578 235.362 221.6 235.25 221.615L235.356 220.727Z" fill="#F2F2F2"/>
<g filter="url(#filter1_ddi_3400_9834)">
<path d="M331.801 228.987C331.799 247.637 324.577 265.561 311.649 279.003C298.721 292.444 281.092 300.36 262.457 301.089V156.885C281.093 157.611 298.725 165.525 311.653 178.967C324.582 192.41 331.802 210.336 331.801 228.987Z" fill="#5396B3"/>
</g>
<path d="M235.277 220.423L235.357 220.701V220.727C235.316 220.63 235.29 220.527 235.277 220.423Z" fill="#FFB6B6"/>
<path d="M280.675 214.893C280.679 216.798 280.443 218.696 279.972 220.542V220.555C278.912 224.718 276.711 228.503 273.617 231.482C270.522 234.462 266.657 236.519 262.457 237.42V192.353C267.613 193.461 272.233 196.303 275.548 200.404C278.863 204.506 280.673 209.62 280.675 214.893Z" fill="#A0616A"/>
<path d="M313.769 277.276C307.327 284.625 299.454 290.583 290.632 294.787C281.809 298.991 272.223 301.352 262.457 301.726V247.536C268.092 247.271 273.197 246.993 273.024 246.794L288.352 256.009L288.339 255.943L294.358 256.314C297.725 256.514 300.973 257.628 303.753 259.537C306.533 261.446 308.74 264.077 310.136 267.147L313.623 276.865L313.769 277.276Z" fill="#CCA723"/>
<path d="M235.356 220.727C235.422 221.005 235.502 221.283 235.581 221.549C235.473 221.578 235.362 221.6 235.25 221.615L235.356 220.727Z" fill="#2F2E41"/>
<path d="M280.038 221.656C280.012 221.285 279.999 220.927 279.972 220.555V220.542C279.895 217.993 279.522 215.461 278.858 212.998C277.997 210.213 276.379 207.548 273.926 206.063C270.253 203.836 265.096 205.042 262.457 208.384V180.58C264.954 181.232 267.331 182.28 269.498 183.682C275.566 187.618 279.989 193.634 281.934 200.601C283.85 207.619 283.177 215.093 280.038 221.656Z" fill="#2F2E41"/>
<path d="M352.008 206.61L326.901 200.452L293.428 171.994L299.002 163.145L329.325 182.462C329.325 182.462 349.386 187.556 356.248 193.429L352.008 206.61Z" fill="#B98B8B"/>
<path d="M294.595 172.532C297.973 172.532 300.711 169.794 300.711 166.416C300.711 163.038 297.973 160.299 294.595 160.299C291.217 160.299 288.479 163.038 288.479 166.416C288.479 169.794 291.217 172.532 294.595 172.532Z" fill="#B98B8B"/>
<path d="M353.187 190.143L329.905 180.649L318.715 193.937L327.028 200.786L349.69 206.676L349.706 206.735C351.298 212.601 361.532 216.584 369.838 218.892C372.577 219.651 375.502 219.342 378.022 218.026C380.542 216.711 382.468 214.488 383.412 211.806C384.094 209.824 384.209 207.69 383.742 205.645C383.275 203.601 382.246 201.728 380.77 200.238L373.228 192.676L353.187 190.143Z" fill="#C7C7C7"/>
<path d="M288.812 428.747L280.652 425.642L288.745 392.693L300.787 397.276L288.812 428.747Z" fill="#B98B8B"/>
<path d="M291.903 426.874L289.606 426L282.027 418.942L275.834 420.76L275.834 420.76C273.118 419.727 270.102 419.815 267.451 421.004C264.8 422.194 262.73 424.388 261.697 427.104L261.57 427.437L287.88 437.448L291.903 426.874Z" fill="#2F2E41"/>
<path d="M371.291 442.427L362.562 442.426L358.408 408.753L371.293 408.754L371.291 442.427Z" fill="#B98B8B"/>
<path d="M373.519 439.577L371.062 439.577L361.468 435.675L356.327 439.576H356.326C353.42 439.576 350.633 440.731 348.578 442.785C346.524 444.84 345.369 447.627 345.369 450.533V450.889L373.519 450.89L373.519 439.577Z" fill="#2F2E41"/>
<path d="M384.604 297.382C384.604 297.382 385.624 309.615 383.075 321.338C381.478 328.687 380.882 344.403 380.659 355.108C380.527 361.481 377.661 362.496 377.661 362.496L379.562 377.151L374.92 430.415L358.1 428.886L353.512 321.338L323.28 345.244L324.119 348.039C324.527 349.398 321.519 349.224 320.316 349.977L317.35 356.858C317.408 357.996 317.116 359.124 316.514 360.09C315.911 361.057 315.027 361.816 313.98 362.264L298.225 409.132L285.941 401.762L290.036 359.178L295.768 339.524L318.853 311.144L319.362 302.989L321.656 303.083L322.824 299.676L324.969 293.814L384.604 297.382Z" fill="#2F2E41"/>
<path d="M385.489 299.953L385.579 299.825C390.431 293.033 383.134 276.711 382.034 274.345C383.34 273.921 384.46 273.057 385.201 271.9C385.943 270.743 386.26 269.365 386.1 268.001L385.625 263.968L385.131 260.012L388.673 256.47L388.683 256.381L390.722 238.542L393.687 226.693C394.803 222.213 394.708 217.518 393.411 213.087C392.113 208.657 389.66 204.652 386.303 201.483L379.451 195.022L371.123 182.7H357.694L353.09 191.398C348.626 192.429 344.665 194.994 341.898 198.646C339.13 202.298 337.732 206.805 337.946 211.381L338.989 234.192L334.904 262.593L334.901 267.733L332.774 270.098C332.007 270.949 331.45 271.968 331.147 273.074C330.844 274.179 330.803 275.339 331.028 276.463L331.308 277.862C330.226 278.325 329.272 279.041 328.524 279.95C327.777 280.859 327.258 281.933 327.011 283.084L326.264 286.571C325.625 287.415 321.404 293.042 321.404 294.58C321.404 294.811 321.575 295.034 321.941 295.282C324.817 297.229 340.713 301.2 347.749 298.384C355.243 295.388 385.034 299.883 385.334 299.929L385.489 299.953Z" fill="#E0E0E0"/>
<path d="M362.672 178.721C372.494 178.721 380.457 170.758 380.457 160.936C380.457 151.114 372.494 143.151 362.672 143.151C352.849 143.151 344.887 151.114 344.887 160.936C344.887 170.758 352.849 178.721 362.672 178.721Z" fill="#B98B8B"/>
<path d="M356.871 239.063L344.516 261.77L308.466 286.884L301.33 279.238L327.738 254.841C327.738 254.841 337.777 236.74 345.205 231.603L356.871 239.063Z" fill="#B98B8B"/>
<path d="M303.37 290.453C306.748 290.453 309.487 287.714 309.487 284.336C309.487 280.958 306.748 278.22 303.37 278.22C299.992 278.22 297.254 280.958 297.254 284.336C297.254 287.714 299.992 290.453 303.37 290.453Z" fill="#B98B8B"/>
<path d="M355.76 242.091L363.529 223.444L360.719 213.14C360.16 211.119 359.047 209.294 357.506 207.873C355.964 206.451 354.056 205.489 351.996 205.095C349.201 204.58 346.314 205.146 343.92 206.678C341.525 208.21 339.802 210.594 339.098 213.348C336.97 221.701 335.336 232.561 339.634 236.859L339.678 236.903L326.889 253.581L345.724 264.227L355.76 242.091Z" fill="#C7C7C7"/>
<path d="M380.242 148.681C378.796 146.732 376.718 145.346 375.128 143.513C374.327 142.449 373.467 141.432 372.551 140.466C370.63 138.869 368.206 138.003 365.708 138.021C362.999 137.952 360.311 138.521 357.862 139.683C355.413 140.845 353.272 142.568 351.613 144.711C350.321 143.953 349.028 143.195 347.736 142.438C347.225 143.781 346.715 145.125 346.204 146.469C345.785 146.105 345.251 145.901 344.696 145.893C344.14 145.885 343.6 146.074 343.171 146.426C342.742 146.779 342.452 147.272 342.351 147.818C342.251 148.364 342.347 148.928 342.623 149.41C342.315 148.459 340.906 148.258 340.129 148.885C339.769 149.234 339.502 149.666 339.353 150.144C339.203 150.622 339.175 151.13 339.271 151.621C339.43 152.708 339.911 153.723 340.651 154.534C341.391 155.346 342.357 155.918 343.425 156.176C345.111 156.552 347.074 156.157 348.424 157.236C349.506 158.1 349.833 159.675 350.937 160.511C352.298 161.541 354.222 161.065 355.913 161.293C357.388 161.546 358.714 162.342 359.63 163.525C360.546 164.708 360.985 166.192 360.861 167.683C361.067 166.729 361.461 165.826 362.018 165.025C362.303 164.629 362.697 164.324 363.152 164.148C363.607 163.971 364.103 163.93 364.581 164.03C366.122 164.492 366.374 166.592 366 168.157C365.01 172.306 361.257 179.013 361.257 179.013C366.13 180.936 371.937 179.118 375.697 175.47C379.457 171.822 381.416 166.656 382.269 161.487C382.992 157.104 382.89 152.249 380.242 148.681Z" fill="#422F09"/>
<path d="M508.48 451.561C508.48 451.689 508.455 451.816 508.406 451.934C508.358 452.052 508.286 452.16 508.195 452.251C508.105 452.341 507.997 452.413 507.879 452.462C507.76 452.511 507.633 452.536 507.505 452.535H277.971C277.712 452.535 277.464 452.433 277.282 452.25C277.099 452.067 276.996 451.819 276.996 451.561C276.996 451.302 277.099 451.054 277.282 450.872C277.464 450.689 277.712 450.586 277.971 450.586H507.505C507.633 450.586 507.76 450.611 507.879 450.66C507.997 450.708 508.105 450.78 508.195 450.871C508.286 450.961 508.358 451.069 508.406 451.187C508.455 451.306 508.48 451.433 508.48 451.561Z" fill="#CCA723"/>
<g filter="url(#filter2_ddi_3400_9834)">
<path d="M519.181 382.916C543.8 382.916 563.758 362.958 563.758 338.339C563.758 313.72 543.8 293.762 519.181 293.762C494.561 293.762 474.604 313.72 474.604 338.339C474.604 362.958 494.561 382.916 519.181 382.916Z" fill="#5396B3"/>
</g>
<path d="M500.988 320.904C500.376 324.191 499.373 327.393 498 330.441C490.136 347.077 512.53 341.654 520.533 341.654C529.283 341.654 537.655 346.255 536.376 325.811C535.83 317.078 529.283 309.968 520.533 309.968C513.059 309.968 502.551 313.29 500.988 320.904Z" fill="#6C3A1D"/>
<path d="M519.216 341.652C526.326 341.652 532.09 335.888 532.09 328.778C532.09 321.667 526.326 315.903 519.216 315.903C512.106 315.903 506.342 321.667 506.342 328.778C506.342 335.888 512.106 341.652 519.216 341.652Z" fill="#FFB6B6"/>
<path d="M510.474 315.652C512.73 314.277 515.314 313.533 517.956 313.498C520.598 313.464 523.201 314.139 525.492 315.454C527.784 316.77 529.68 318.677 530.982 320.976C532.284 323.275 532.945 325.881 532.895 328.523C526.335 330.17 519.443 331.43 512.447 328.917L510.795 324.873L509.821 328.92C507.69 329.791 505.554 330.527 503.418 328.911C503.331 326.277 503.937 323.666 505.175 321.339C506.413 319.013 508.24 317.052 510.474 315.652Z" fill="#6C3A1D"/>
<path d="M553.837 367.98C546.114 376.768 535.246 382.166 523.577 383.009C511.909 383.852 500.377 380.073 491.471 372.487L495.294 361.818C496.158 359.924 497.522 358.3 499.239 357.121C500.955 355.942 502.961 355.252 505.04 355.126L507.472 354.977L513.272 349.975C513.272 349.975 528.9 349.417 528.668 349.149L538.135 354.843L538.127 354.804L541.848 355.032C543.927 355.157 545.933 355.847 547.65 357.026C549.367 358.205 550.73 359.829 551.594 361.724L553.837 367.98Z" fill="#CCA723"/>
<defs>
<filter id="filter0_f_3400_9834" x="257.898" y="29.1597" width="399.323" height="397.805" filterUnits="userSpaceOnUse" color-interpolation-filters="sRGB">
<feFlood flood-opacity="0" result="BackgroundImageFix"/>
<feBlend mode="normal" in="SourceGraphic" in2="BackgroundImageFix" result="shape"/>
<feGaussianBlur stdDeviation="2.08616" result="effect1_foregroundBlur_3400_9834"/>
</filter>
<filter id="filter1_ddi_3400_9834" x="257.935" y="156.885" width="78.3871" height="153.248" filterUnits="userSpaceOnUse" color-interpolation-filters="sRGB">
<feFlood flood-opacity="0" result="BackgroundImageFix"/>
<feColorMatrix in="SourceAlpha" type="matrix" values="0 0 0 0 0 0 0 0 0 0 0 0 0 0 0 0 0 0 127 0" result="hardAlpha"/>
<feOffset dy="4.52168"/>
<feGaussianBlur stdDeviation="2.26084"/>
<feComposite in2="hardAlpha" operator="out"/>
<feColorMatrix type="matrix" values="0 0 0 0 0 0 0 0 0 0 0 0 0 0 0 0 0 0 0.25 0"/>
<feBlend mode="normal" in2="BackgroundImageFix" result="effect1_dropShadow_3400_9834"/>
<feColorMatrix in="SourceAlpha" type="matrix" values="0 0 0 0 0 0 0 0 0 0 0 0 0 0 0 0 0 0 127 0" result="hardAlpha"/>
<feOffset dy="4.52168"/>
<feGaussianBlur stdDeviation="2.26084"/>
<feComposite in2="hardAlpha" operator="out"/>
<feColorMatrix type="matrix" values="0 0 0 0 0 0 0 0 0 0 0 0 0 0 0 0 0 0 0.25 0"/>
<feBlend mode="normal" in2="effect1_dropShadow_3400_9834" result="effect2_dropShadow_3400_9834"/>
<feBlend mode="normal" in="SourceGraphic" in2="effect2_dropShadow_3400_9834" result="shape"/>
<feColorMatrix in="SourceAlpha" type="matrix" values="0 0 0 0 0 0 0 0 0 0 0 0 0 0 0 0 0 0 127 0" result="hardAlpha"/>
<feOffset/>
<feGaussianBlur stdDeviation="39.5647"/>
<feComposite in2="hardAlpha" operator="arithmetic" k2="-1" k3="1"/>
<feColorMatrix type="matrix" values="0 0 0 0 1 0 0 0 0 1 0 0 0 0 1 0 0 0 0.38 0"/>
<feBlend mode="normal" in2="shape" result="effect3_innerShadow_3400_9834"/>
</filter>
<filter id="filter2_ddi_3400_9834" x="470.082" y="293.762" width="98.1977" height="98.1982" filterUnits="userSpaceOnUse" color-interpolation-filters="sRGB">
<feFlood flood-opacity="0" result="BackgroundImageFix"/>
<feColorMatrix in="SourceAlpha" type="matrix" values="0 0 0 0 0 0 0 0 0 0 0 0 0 0 0 0 0 0 127 0" result="hardAlpha"/>
<feOffset dy="4.52168"/>
<feGaussianBlur stdDeviation="2.26084"/>
<feComposite in2="hardAlpha" operator="out"/>
<feColorMatrix type="matrix" values="0 0 0 0 0 0 0 0 0 0 0 0 0 0 0 0 0 0 0.25 0"/>
<feBlend mode="normal" in2="BackgroundImageFix" result="effect1_dropShadow_3400_9834"/>
<feColorMatrix in="SourceAlpha" type="matrix" values="0 0 0 0 0 0 0 0 0 0 0 0 0 0 0 0 0 0 127 0" result="hardAlpha"/>
<feOffset dy="4.52168"/>
<feGaussianBlur stdDeviation="2.26084"/>
<feComposite in2="hardAlpha" operator="out"/>
<feColorMatrix type="matrix" values="0 0 0 0 0 0 0 0 0 0 0 0 0 0 0 0 0 0 0.25 0"/>
<feBlend mode="normal" in2="effect1_dropShadow_3400_9834" result="effect2_dropShadow_3400_9834"/>
<feBlend mode="normal" in="SourceGraphic" in2="effect2_dropShadow_3400_9834" result="shape"/>
<feColorMatrix in="SourceAlpha" type="matrix" values="0 0 0 0 0 0 0 0 0 0 0 0 0 0 0 0 0 0 127 0" result="hardAlpha"/>
<feOffset/>
<feGaussianBlur stdDeviation="39.5647"/>
<feComposite in2="hardAlpha" operator="arithmetic" k2="-1" k3="1"/>
<feColorMatrix type="matrix" values="0 0 0 0 1 0 0 0 0 1 0 0 0 0 1 0 0 0 0.38 0"/>
<feBlend mode="normal" in2="shape" result="effect3_innerShadow_3400_9834"/>
</filter>
</defs>
</svg>
