<svg width="35" height="30" viewBox="0 0 35 30" fill="none" xmlns="http://www.w3.org/2000/svg">
<path d="M8.218 29.284C5.70333 29.284 3.79 28.3273 2.478 26.414C1.166 24.5007 0.51 21.8767 0.51 18.542C0.51 14.6607 1.46667 11.244 3.38 8.292C5.29333 5.34 8.218 2.90733 12.154 0.993998L14.778 6.242C12.318 7.44467 10.4593 8.89333 9.202 10.588C7.99933 12.228 7.398 14.2507 7.398 16.656C7.50733 16.6013 7.644 16.574 7.808 16.574C7.972 16.574 8.10867 16.574 8.218 16.574C9.96733 16.574 11.4433 17.1207 12.646 18.214C13.9033 19.2527 14.532 20.7013 14.532 22.56C14.532 24.5827 13.9307 26.2227 12.728 27.48C11.5253 28.6827 10.022 29.284 8.218 29.284ZM27.652 29.284C25.1373 29.284 23.224 28.3273 21.912 26.414C20.6 24.5007 19.944 21.8767 19.944 18.542C19.944 14.6607 20.9007 11.244 22.814 8.292C24.7273 5.34 27.652 2.90733 31.588 0.993998L34.212 6.242C31.752 7.44467 29.8933 8.89333 28.636 10.588C27.4333 12.228 26.832 14.2507 26.832 16.656C26.9413 16.6013 27.078 16.574 27.242 16.574C27.406 16.574 27.5427 16.574 27.652 16.574C29.4013 16.574 30.8773 17.1207 32.08 18.214C33.3373 19.2527 33.966 20.7013 33.966 22.56C33.966 24.5827 33.3647 26.2227 32.162 27.48C30.9593 28.6827 29.456 29.284 27.652 29.284Z" fill="#0084BC"/>
</svg>
