<svg width="563" height="431" viewBox="0 0 563 431" fill="none" xmlns="http://www.w3.org/2000/svg">
<g opacity="0.4" filter="url(#filter0_f_3403_9309)">
<circle cx="422" cy="60" r="33" fill="#C7C7C7"/>
</g>
<g opacity="0.3" filter="url(#filter1_f_3403_9309)">
<path d="M211.809 394.538L22.4993 394.539L184.862 216.24C224.104 172.573 288.149 172.626 327.716 215.889L399.479 291.713C439.263 334.817 467.895 351.111 428.508 394.537L283.352 394.538L283.35 394.538L211.809 394.538Z" fill="#D9D9D9"/>
</g>
<path d="M229.806 238.771C224.454 235.395 217.883 234.289 212.436 237.426C206.99 240.563 203.278 248.603 205.039 255.719C205.837 258.946 207.655 262.119 206.947 265.377C206.402 267.885 204.499 269.541 202.631 270.718C200.763 271.896 198.719 272.886 197.368 274.871C196.017 276.857 195.736 280.276 197.423 281.816C197.979 282.323 198.674 282.564 199.214 283.098C199.673 283.605 200.005 284.293 200.162 285.067C200.319 285.84 200.295 286.662 200.092 287.416C199.642 288.933 198.9 290.258 197.942 291.251C196.026 293.491 193.494 296.055 194.088 299.235C194.309 300.085 194.678 300.851 195.163 301.466C195.649 302.082 196.236 302.529 196.877 302.771C198.206 303.291 199.586 303.538 200.969 303.504L257.506 305.918C259.372 306.108 261.249 305.966 263.088 305.496C263.982 305.274 264.833 304.806 265.587 304.119C266.341 303.432 266.983 302.541 267.472 301.503C268.554 298.785 267.844 295.438 266.507 292.901C265.17 290.364 263.277 288.363 261.714 286.033C260.15 283.703 258.871 280.795 259.147 277.784C259.367 275.373 260.54 273.29 261.381 271.1C262.223 268.91 262.712 266.173 261.622 264.158C260.086 261.319 256.398 261.576 254.651 258.93C253.333 256.934 253.588 254.059 253.457 251.485C253.141 245.292 249.979 239.443 245.477 236.727C243.188 235.395 240.698 234.82 238.213 235.049C235.728 235.279 233.318 236.306 231.184 238.047L229.806 238.771Z" fill="#2F2E41"/>
<path d="M265 352.581L261 318L273.5 322.645L277.41 354.932C277.737 357.638 275.837 360.108 273.137 360.485L241 364.968V357.742L265 352.581Z" fill="#FEB8B8"/>
<path d="M216.166 415.138C216.166 415.138 222.02 405.523 229.537 411.208C237.053 416.893 250.974 426.486 250.974 426.486C250.974 426.486 253.825 432.622 246.445 430.317C239.066 428.012 214.977 424.304 214.977 424.304L216.166 415.138Z" fill="#FEB8B8"/>
<path d="M388.549 294.291C387.386 294.844 386.105 295.1 384.819 295.034C383.534 294.969 382.285 294.585 381.184 293.917C380.621 293.573 380.164 294.491 380.724 294.833C381.943 295.565 383.323 295.988 384.743 296.063C386.163 296.138 387.58 295.864 388.87 295.265C388.996 295.219 389.1 295.126 389.161 295.006C389.221 294.885 389.234 294.747 389.196 294.617C389.153 294.489 389.06 294.382 388.939 294.321C388.818 294.26 388.678 294.249 388.549 294.291Z" fill="white"/>
<path d="M329.663 324.585C329.067 325.727 328.198 326.703 327.132 327.426C326.066 328.148 324.838 328.595 323.558 328.725C322.901 328.789 323.088 329.798 323.741 329.734C325.155 329.583 326.511 329.089 327.69 328.293C328.869 327.497 329.835 326.424 330.505 325.169C330.578 325.055 330.605 324.919 330.581 324.786C330.557 324.654 330.484 324.535 330.376 324.455C330.264 324.378 330.126 324.349 329.993 324.373C329.859 324.398 329.741 324.474 329.663 324.585V324.585Z" fill="white"/>
<path d="M187.405 427.089C181.106 427.089 175.339 426.485 170.757 425.057C165.311 423.359 161.891 420.614 160.592 416.891C159.981 415.31 159.799 413.596 160.063 411.922C160.328 410.248 161.029 408.674 162.097 407.358C170.154 396.849 198.113 393.884 201.865 393.534L209.476 379.107C209.963 375.665 207.659 373.059 211.639 372.994L258.727 372.353C262.637 372.271 261.527 374.695 262.197 378.051L269.371 390.872L238.494 403.917L243.163 415.305L242.858 415.482C233.821 420.73 207.833 427.089 187.405 427.089Z" fill="#022B3D"/>
<path d="M265.097 391.419C265.097 391.419 308.218 386.479 305.406 406.239C302.594 426 269.784 439.996 220.102 406.239L225.726 396.359C225.726 396.359 244.24 395.437 255.489 390.497L265.097 391.419Z" fill="#022B3D"/>
<path d="M204.05 301.898C204.05 301.898 195.854 300.406 193.619 313.086C191.384 325.766 187.803 355.801 187.803 355.801L176.686 394.382C175.375 395.079 174.289 396.135 173.555 397.427C172.821 398.718 172.469 400.193 172.54 401.677C172.612 403.161 173.104 404.595 173.959 405.81C174.813 407.025 175.996 407.971 177.368 408.538C178.74 409.106 180.245 409.27 181.707 409.013C183.169 408.756 184.528 408.088 185.625 407.087C186.722 406.086 187.512 404.793 187.902 403.359C188.293 401.925 188.267 400.41 187.829 398.99L202.705 358.042L205.54 322.785V304.312C205.54 303.81 205.401 303.319 205.137 302.893C204.874 302.467 204.498 302.122 204.05 301.898Z" fill="#FEB8B8"/>
<path d="M254.797 297.912L261.111 291.417C261.111 291.417 274.891 298.673 274.607 322.943L257.224 317.58L254.797 297.912Z" fill="#A3851A"/>
<path d="M209.642 297.912L202.933 291.196C202.933 291.196 191.096 300.362 191.38 324.631L207.214 317.58L209.642 297.912Z" fill="#A3851A"/>
<path d="M261.113 291.417L245.611 285.613L215.563 285.224L202.629 291.417L206.262 312.317C206.262 312.317 198.927 324.75 207.003 337.184L208.815 381.49C208.815 381.49 237.785 398.307 262.238 378.112L256.711 336.919C256.711 336.919 265.955 317.806 258.79 310.706L261.113 291.417Z" fill="#CCA723"/>
<rect x="214.5" y="339.5" width="36" height="22" rx="1.5" fill="white" stroke="#CACACA"/>
<path d="M215 340L233.5 353.5L250 340" stroke="#CACACA"/>
<path d="M232.97 347.177C232.981 347.187 232.99 347.198 233 347.208C234.589 345.61 237.148 345.596 238.755 347.177C240.366 348.764 240.421 351.369 238.877 353.024L238.878 353.025L238.839 353.065L233.153 359L227.26 353.197L227.276 353.18C227.266 353.17 227.256 353.162 227.246 353.152C225.618 351.549 225.58 348.913 227.161 347.263C228.742 345.613 231.343 345.575 232.97 347.177H232.97Z" fill="#0084BC"/>
<path d="M253.373 410.337C253.373 410.337 248.544 400.166 240.48 405.042C232.416 409.918 217.578 418.016 217.578 418.016C217.578 418.016 214.108 423.823 221.686 422.296C229.264 420.768 253.608 419.577 253.608 419.577L253.373 410.337Z" fill="#FEB8B8"/>
<path d="M245.086 273.648C253.391 265.334 253.391 251.854 245.086 243.54C236.781 235.226 223.316 235.226 215.011 243.54C206.705 251.854 206.705 265.334 215.011 273.648C223.316 281.962 236.781 281.962 245.086 273.648Z" fill="#FFB6B6"/>
<path d="M211.002 257.457C217.337 256.901 222.596 249.989 221.937 243.084C221.863 245.93 222.749 248.706 224.427 250.885C226.104 253.064 228.456 254.493 231.036 254.901C233.941 255.251 237.127 254.29 239.656 255.892C242.457 257.665 243.354 261.972 246.272 263.504C249.091 264.984 252.673 262.966 254.066 259.906C255.459 256.846 255.117 253.17 254.194 249.905C252.877 245.248 250.48 241.044 247.235 237.699C243.99 234.355 240.008 231.984 235.676 230.819C231.345 229.654 226.811 229.733 222.515 231.049C218.22 232.365 214.309 234.873 211.164 238.329C208.5 241.256 206.386 244.986 206.043 249.096C205.7 253.206 207.445 257.665 210.823 259.511L211.002 257.457Z" fill="#2F2E41"/>
<path d="M236 366C241.523 366 246 363.985 246 361.5C246 359.015 241.523 357 236 357C230.477 357 226 359.015 226 361.5C226 363.985 230.477 366 236 366Z" fill="#FEB8B8"/>
<path d="M241.746 357.68L264.881 353L266 361L241 365L241.746 357.68Z" fill="#FEB8B8"/>
<path d="M465.872 398H310.191C310.14 398 310.092 398.105 310.056 398.293C310.02 398.48 310 398.735 310 399C310 399.265 310.02 399.52 310.056 399.707C310.092 399.895 310.14 400 310.191 400H465.809C465.86 400 465.908 399.895 465.944 399.707C465.98 399.52 466 399.265 466 399C466 398.448 465.977 398 465.872 398Z" fill="#CACACA"/>
<path d="M163.867 398H3.19682C3.14462 398 3.09456 398.105 3.05765 398.293C3.02074 398.48 3 398.735 3 399C3 399.265 3.02074 399.52 3.05765 399.707C3.09456 399.895 3.14462 400 3.19682 400H163.803C163.855 400 163.905 399.895 163.942 399.707C163.979 399.52 164 399.265 164 399C164 398.448 163.976 398 163.867 398Z" fill="#CACACA"/>
<g opacity="0.4" filter="url(#filter2_f_3403_9309)">
<circle cx="526.346" cy="291.345" r="17.8419" fill="#535A62"/>
</g>
<circle opacity="0.4" cx="526.345" cy="291.345" r="36.0945" stroke="#464C53" stroke-width="0.5"/>
<circle opacity="0.4" cx="421" cy="60" r="59.75" stroke="#464C53" stroke-opacity="0.6" stroke-width="0.5"/>
<g opacity="0.1" filter="url(#filter3_f_3403_9309)">
<circle cx="295.842" cy="137.842" r="17.8419" fill="#B0BAC7"/>
</g>
<g opacity="0.1" filter="url(#filter4_f_3403_9309)">
<circle cx="454.842" cy="200.842" r="17.8419" fill="#B0BAC7"/>
</g>
<defs>
<filter id="filter0_f_3403_9309" x="368" y="6" width="108" height="108" filterUnits="userSpaceOnUse" color-interpolation-filters="sRGB">
<feFlood flood-opacity="0" result="BackgroundImageFix"/>
<feBlend mode="normal" in="SourceGraphic" in2="BackgroundImageFix" result="shape"/>
<feGaussianBlur stdDeviation="10.5" result="effect1_foregroundBlur_3403_9309"/>
</filter>
<filter id="filter1_f_3403_9309" x="18.5" y="179.466" width="432.83" height="219.073" filterUnits="userSpaceOnUse" color-interpolation-filters="sRGB">
<feFlood flood-opacity="0" result="BackgroundImageFix"/>
<feBlend mode="normal" in="SourceGraphic" in2="BackgroundImageFix" result="shape"/>
<feGaussianBlur stdDeviation="2" result="effect1_foregroundBlur_3403_9309"/>
</filter>
<filter id="filter2_f_3403_9309" x="502.504" y="267.503" width="47.6836" height="47.6837" filterUnits="userSpaceOnUse" color-interpolation-filters="sRGB">
<feFlood flood-opacity="0" result="BackgroundImageFix"/>
<feBlend mode="normal" in="SourceGraphic" in2="BackgroundImageFix" result="shape"/>
<feGaussianBlur stdDeviation="3" result="effect1_foregroundBlur_3403_9309"/>
</filter>
<filter id="filter3_f_3403_9309" x="272" y="114" width="47.6836" height="47.6837" filterUnits="userSpaceOnUse" color-interpolation-filters="sRGB">
<feFlood flood-opacity="0" result="BackgroundImageFix"/>
<feBlend mode="normal" in="SourceGraphic" in2="BackgroundImageFix" result="shape"/>
<feGaussianBlur stdDeviation="3" result="effect1_foregroundBlur_3403_9309"/>
</filter>
<filter id="filter4_f_3403_9309" x="431" y="177" width="47.6836" height="47.6837" filterUnits="userSpaceOnUse" color-interpolation-filters="sRGB">
<feFlood flood-opacity="0" result="BackgroundImageFix"/>
<feBlend mode="normal" in="SourceGraphic" in2="BackgroundImageFix" result="shape"/>
<feGaussianBlur stdDeviation="3" result="effect1_foregroundBlur_3403_9309"/>
</filter>
</defs>
</svg>
