<svg fill="none" xmlns="http://www.w3.org/2000/svg" viewBox="0 0 62 43">
  <path d="M14.781 43c-5.018 0-8.759-1.607-11.223-4.821C1.187 34.965 0 31.229 0 26.973c0-3.91.867-7.645 2.6-11.206 1.825-3.649 4.152-6.82 6.98-9.512C12.5 3.475 15.649 1.39 19.025 0l9.444 6.645c-3.741 1.477-7.117 3.475-10.128 5.994-2.92 2.433-4.973 5.039-6.159 7.819l.684.39a6.467 6.467 0 0 1 1.78-.781c.73-.174 1.688-.26 2.874-.26 2.463 0 4.881.868 7.254 2.605 2.463 1.738 3.695 4.43 3.695 8.079 0 4.083-1.414 7.21-4.243 9.382C21.488 41.958 18.34 43 14.781 43Zm33.532 0c-5.018 0-8.759-1.607-11.223-4.821-2.372-3.214-3.558-6.95-3.558-11.206 0-3.91.867-7.645 2.6-11.206 1.825-3.649 4.152-6.82 6.98-9.512C46.033 3.475 49.18 1.39 52.557 0L62 6.645c-3.741 1.477-7.117 3.475-10.128 5.994-2.92 2.433-4.973 5.039-6.159 7.819l.684.39a6.465 6.465 0 0 1 1.78-.781c.73-.174 1.688-.26 2.874-.26 2.463 0 4.881.868 7.254 2.605C60.768 24.15 62 26.842 62 30.491c0 4.083-1.414 7.21-4.243 9.382C55.02 41.958 51.872 43 48.313 43Z" fill="currentColor"/>
</svg>
