<svg viewBox="0 0 1130 223" fill="none" xmlns="http://www.w3.org/2000/svg">
<path d="M254.484 94.6702L207.945 111.161C206.88 111.538 206.339 112.72 206.749 113.772L218.207 143.178C218.601 144.191 219.733 144.703 220.754 144.332L266.142 127.826C267.172 127.451 267.708 126.318 267.346 125.284L257.039 95.8935C256.673 94.8487 255.527 94.3004 254.484 94.6702Z" fill="#D1E1FF"/>
<path d="M245.987 166.016L137.495 165.606C136.366 165.601 135.457 166.532 135.488 167.661L135.684 174.769C135.833 180.183 140.266 184.494 145.682 184.493L245.442 184.477C246.518 184.477 247.4 183.626 247.44 182.551L247.978 168.09C248.02 166.96 247.117 166.02 245.987 166.016Z" fill="#E9F1FF"/>
<path d="M144.957 144.602L115.415 118.81C114.561 118.065 113.258 118.178 112.545 119.059L94.6309 141.211C93.9504 142.053 94.0626 143.283 94.8842 143.987L123.922 168.884C124.758 169.6 126.015 169.507 126.736 168.675L145.154 147.418C145.875 146.585 145.787 145.326 144.957 144.602Z" fill="#D1E1FF"/>
<g opacity="0.2" filter="url(#filter0_d_8_23)">
<circle cx="169" cy="24" r="24" fill="#6C6B8F"/>
</g>
<g opacity="0.2" filter="url(#filter1_d_8_23)">
<circle cx="101" cy="193" r="13" fill="#776082"/>
</g>
<g opacity="0.2" filter="url(#filter2_d_8_23)">
<circle cx="56" cy="63" r="9" fill="#776082"/>
</g>
<circle opacity="0.2" cx="13" cy="176" r="11" stroke="#E6DFEA" stroke-width="4" stroke-dasharray="2 2"/>
<circle opacity="0.2" r="11" transform="matrix(-1 0 0 1 1117 43)" stroke="#E6DFEA" stroke-width="4" stroke-dasharray="2 2"/>
<g opacity="0.2" filter="url(#filter3_d_8_23)">
<circle r="19" transform="matrix(-1 0 0 1 1065 73)" fill="#6C6B8F"/>
</g>
<mask id="path-10-inside-1_8_23" fill="white">
<path d="M879 81C879 69.8739 888.08 60.8867 899.206 61.0011L1065.77 62.7138C1070.08 62.7581 1073.58 66.2127 1073.68 70.524L1076.52 190.297C1076.62 194.788 1073.01 198.486 1068.52 198.486H887C882.582 198.486 879 194.904 879 190.486V81Z"/>
<path d="M883.414 89.4736C883.189 77.9783 892.68 68.661 904.169 69.0975L1052.6 74.7361C1056.67 74.8906 1059.97 78.0721 1060.27 82.1293L1067.87 182.924C1068.21 187.48 1064.68 191.398 1060.11 191.523L893.56 196.073C889.119 196.194 885.429 192.674 885.343 188.232L883.414 89.4736Z"/>
<path d="M852 216.638C852 213.37 854.615 210.703 857.883 210.639L950.592 208.828C953.016 208.781 955.356 209.723 957.071 211.438C958.743 213.111 961.011 214.05 963.376 214.05H1005.31C1007.74 214.05 1010.08 213.082 1011.8 211.36C1013.47 209.688 1015.73 208.725 1018.09 208.672L1094.28 206.98C1099.85 206.856 1104.44 211.34 1104.44 216.914C1104.44 220.207 1101.77 222.877 1098.47 222.877H858C854.686 222.877 852 220.19 852 216.877V216.638Z"/>
</mask>
<path d="M1076.52 190.297L1078.52 190.249L1076.52 190.297ZM1065.77 62.7138L1065.79 60.7139L1065.77 62.7138ZM1073.68 70.524L1071.68 70.5714L1073.68 70.524ZM899.206 61.0011L899.185 63.001L899.206 61.0011ZM893.56 196.073L893.505 194.074L893.56 196.073ZM885.343 188.232L887.342 188.193L885.343 188.232ZM1067.87 182.924L1065.88 183.075L1067.87 182.924ZM1060.11 191.523L1060.17 193.522L1060.11 191.523ZM1052.6 74.7361L1052.68 72.7376L1052.6 74.7361ZM1060.27 82.1293L1062.27 81.979L1060.27 82.1293ZM904.169 69.0975L904.245 67.0989L904.169 69.0975ZM883.414 89.4736L881.414 89.5127L883.414 89.4736ZM957.071 211.438L958.485 210.024L957.071 211.438ZM1011.8 211.36L1013.21 212.774L1011.8 211.36ZM1018.09 208.672L1018.05 206.673L1018.09 208.672ZM950.592 208.828L950.631 210.828L950.592 208.828ZM1094.28 206.98L1094.32 208.979L1094.28 206.98ZM857.883 210.639L857.844 208.64L857.883 210.639ZM899.185 63.001L1065.75 64.7137L1065.79 60.7139L899.226 59.0012L899.185 63.001ZM1071.68 70.5714L1074.52 190.344L1078.52 190.249L1075.68 70.4767L1071.68 70.5714ZM1068.52 196.486H887V200.486H1068.52V196.486ZM881 190.486V81H877V190.486H881ZM887 196.486C883.686 196.486 881 193.8 881 190.486H877C877 196.009 881.477 200.486 887 200.486V196.486ZM1074.52 190.344C1074.6 193.712 1071.89 196.486 1068.52 196.486V200.486C1074.14 200.486 1078.65 195.863 1078.52 190.249L1074.52 190.344ZM1065.75 64.7137C1068.98 64.747 1071.61 67.3378 1071.68 70.5714L1075.68 70.4767C1075.55 65.0875 1071.18 60.7693 1065.79 60.7139L1065.75 64.7137ZM899.226 59.0012C886.988 58.8753 877 68.7613 877 81H881C881 70.9865 889.172 62.898 899.185 63.001L899.226 59.0012ZM904.093 71.096L1052.52 76.7347L1052.68 72.7376L904.245 67.0989L904.093 71.096ZM1058.28 82.2796L1065.88 183.075L1069.86 182.774L1062.27 81.979L1058.28 82.2796ZM1060.06 189.523L893.505 194.074L893.614 198.072L1060.17 193.522L1060.06 189.523ZM887.342 188.193L885.413 89.4346L881.414 89.5127L883.343 188.271L887.342 188.193ZM893.505 194.074C890.174 194.165 887.407 191.525 887.342 188.193L883.343 188.271C883.451 193.824 888.063 198.224 893.614 198.072L893.505 194.074ZM1065.88 183.075C1066.13 186.491 1063.48 189.43 1060.06 189.523L1060.17 193.522C1065.87 193.366 1070.29 188.469 1069.86 182.774L1065.88 183.075ZM1052.52 76.7347C1055.57 76.8505 1058.05 79.2367 1058.28 82.2796L1062.27 81.979C1061.89 76.9075 1057.76 72.9306 1052.68 72.7376L1052.52 76.7347ZM904.245 67.0989C891.607 66.6188 881.167 76.8678 881.414 89.5127L885.413 89.4346C885.211 79.0888 893.753 70.7032 904.093 71.096L904.245 67.0989ZM1098.47 220.877H858V224.877H1098.47V220.877ZM854 216.877V216.638H850V216.877H854ZM857.922 212.639L950.631 210.828L950.552 206.829L857.844 208.64L857.922 212.639ZM1018.14 210.672L1094.32 208.979L1094.23 204.98L1018.05 206.673L1018.14 210.672ZM963.376 216.05H1005.31V212.05H963.376V216.05ZM955.657 212.853C957.704 214.9 960.481 216.05 963.376 216.05V212.05C961.542 212.05 959.782 211.321 958.485 210.024L955.657 212.853ZM1010.39 209.946C1009.04 211.293 1007.21 212.05 1005.31 212.05V216.05C1008.27 216.05 1011.12 214.872 1013.21 212.774L1010.39 209.946ZM1018.05 206.673C1015.17 206.737 1012.42 207.909 1010.39 209.946L1013.21 212.774C1014.52 211.466 1016.29 210.713 1018.14 210.672L1018.05 206.673ZM950.631 210.828C952.512 210.791 954.326 211.522 955.657 212.853L958.485 210.024C956.386 207.925 953.521 206.771 950.552 206.829L950.631 210.828ZM858 220.877C855.791 220.877 854 219.086 854 216.877H850C850 221.295 853.582 224.877 858 224.877V220.877ZM1102.44 216.914C1102.44 219.103 1100.66 220.877 1098.47 220.877V224.877C1102.87 224.877 1106.44 221.312 1106.44 216.914H1102.44ZM1106.44 216.914C1106.44 210.218 1100.93 204.832 1094.23 204.98L1094.32 208.979C1098.77 208.881 1102.44 212.462 1102.44 216.914H1106.44ZM854 216.638C854 214.459 855.744 212.682 857.922 212.639L857.844 208.64C853.487 208.725 850 212.281 850 216.638H854Z" fill="black" mask="url(#path-10-inside-1_8_23)"/>
<path d="M281.266 131.33L290.092 131.33" stroke="#3B7FFF" stroke-width="3" stroke-linecap="round"/>
<g filter="url(#filter4_d_8_23)">
<path d="M638 83.0526C638 115.608 618.723 142 585.733 142C552.744 142 526 103.819 526 71.2632C526 38.7074 552.744 30 585.733 30C618.723 30 638 50.4969 638 83.0526Z" fill="white"/>
</g>
<path d="M617 78.125C617 60.4041 599.595 55.8364 587.239 68.6913C585.525 70.4754 582.633 70.7221 580.75 69.1167C564.895 55.5996 550.019 59.2093 549.031 78.1249C547.971 98.4161 574.045 118 584.079 118C594.113 118 617 97.348 617 78.125Z" fill="white" stroke="#D8B84A" stroke-width="2" stroke-linecap="round"/>
<path d="M589.774 98.37C589.774 99.206 589.635 99.9787 589.356 100.688C589.078 101.397 588.672 102.018 588.14 102.55C587.608 103.057 586.975 103.475 586.24 103.804C585.506 104.133 584.682 104.361 583.77 104.488V107.338C583.77 107.667 583.732 107.946 583.656 108.174C583.58 108.427 583.441 108.605 583.238 108.706C583.036 108.833 582.732 108.896 582.326 108.896C581.921 108.896 581.617 108.833 581.414 108.706C581.212 108.579 581.072 108.389 580.996 108.136C580.946 107.908 580.92 107.629 580.92 107.3V104.45C580.211 104.349 579.514 104.159 578.83 103.88C578.172 103.576 577.576 103.209 577.044 102.778C576.538 102.347 576.107 101.879 575.752 101.372C575.474 100.916 575.322 100.523 575.296 100.194C575.271 99.8647 575.499 99.4973 575.98 99.092C576.36 98.8133 576.69 98.674 576.968 98.674C577.247 98.674 577.513 98.7753 577.766 98.978C578.02 99.1807 578.248 99.434 578.45 99.738C578.856 100.346 579.388 100.815 580.046 101.144C580.73 101.473 581.465 101.638 582.25 101.638C583.188 101.638 583.986 101.511 584.644 101.258C585.303 101.005 585.797 100.65 586.126 100.194C586.481 99.7127 586.658 99.13 586.658 98.446C586.658 97.6607 586.405 97.04 585.898 96.584C585.392 96.128 584.72 95.748 583.884 95.444C583.074 95.1147 582.212 94.7853 581.3 94.456C580.616 94.2027 579.945 93.924 579.286 93.62C578.628 93.316 578.032 92.9487 577.5 92.518C576.968 92.062 576.55 91.5173 576.246 90.884C575.942 90.2507 575.79 89.4653 575.79 88.528C575.79 87.768 575.904 87.0713 576.132 86.438C576.36 85.8046 576.702 85.2473 577.158 84.766C577.614 84.2846 578.159 83.892 578.792 83.588C579.426 83.2587 580.135 83.0433 580.92 82.942V80.282C580.92 79.9526 580.946 79.674 580.996 79.446C581.072 79.1926 581.212 79.0027 581.414 78.876C581.617 78.7493 581.921 78.686 582.326 78.686C582.732 78.686 583.036 78.7493 583.238 78.876C583.441 79.0027 583.58 79.18 583.656 79.408C583.732 79.636 583.77 79.9147 583.77 80.244V82.904C584.733 83.0307 585.569 83.3093 586.278 83.74C587.013 84.1453 587.608 84.576 588.064 85.032C588.47 85.412 588.685 85.754 588.71 86.058C588.736 86.3367 588.571 86.6913 588.216 87.122C588.014 87.4006 587.786 87.6033 587.532 87.73C587.304 87.8313 587.064 87.8566 586.81 87.806C586.582 87.73 586.329 87.5653 586.05 87.312C585.772 87.0333 585.43 86.78 585.024 86.552C584.619 86.324 584.188 86.1467 583.732 86.02C583.276 85.868 582.795 85.792 582.288 85.792C581.756 85.792 581.275 85.8553 580.844 85.982C580.414 86.1086 580.046 86.2986 579.742 86.552C579.464 86.78 579.236 87.0713 579.058 87.426C578.906 87.7553 578.83 88.1353 578.83 88.566C578.83 89.2246 579.046 89.7566 579.476 90.162C579.932 90.5673 580.515 90.9093 581.224 91.188C581.934 91.4667 582.694 91.7327 583.504 91.986C584.239 92.2393 584.974 92.518 585.708 92.822C586.443 93.126 587.114 93.506 587.722 93.962C588.356 94.418 588.85 95.0007 589.204 95.71C589.584 96.4193 589.774 97.306 589.774 98.37Z" fill="#3B7FFF"/>
<path fill-rule="evenodd" clip-rule="evenodd" d="M509.403 82.6164C507.802 83.5859 506.595 84.5379 505.645 85.7055C504.352 87.2949 503.64 89.158 502.895 91.6281C502.656 92.4212 503.105 93.2581 503.898 93.4973C504.691 93.7365 505.528 93.2875 505.767 92.4944C506.496 90.078 507.074 88.7029 507.972 87.5988C508.872 86.4925 510.199 85.5323 512.697 84.2011C513.395 83.8291 514.363 83.4462 515.425 83.038L515.699 82.9327L515.699 82.9326C516.63 82.5757 517.62 82.1957 518.364 81.8247C518.76 81.6272 519.213 81.3719 519.563 81.0485C519.855 80.7782 520.57 79.9708 520.138 78.8909C519.962 78.4491 519.651 78.1632 519.409 77.9903C519.16 77.8131 518.885 77.684 518.624 77.5847C518.104 77.3863 517.43 77.2274 516.619 77.0899C513.384 76.5414 509.916 75.5716 507.207 74.1744C506.184 73.6463 504.28 72.1623 502.733 70.9018C502.337 70.5787 501.895 70.214 501.553 69.9305L501.55 69.9283C501.323 69.7409 501.14 69.5893 501.041 69.5089C500.962 69.445 500.881 69.3798 500.816 69.3311L500.814 69.3292C500.795 69.3153 500.711 69.252 500.611 69.1957C500.582 69.1793 500.507 69.1377 500.405 69.099C500.355 69.0798 500.261 69.0467 500.138 69.0244C500.037 69.006 499.778 68.9674 499.464 69.0556C499.073 69.1649 498.667 69.4565 498.472 69.9498C498.315 70.3483 498.373 70.6916 498.403 70.8243C498.459 71.0824 498.574 71.2634 498.596 71.2979L498.598 71.3011C498.662 71.4034 498.727 71.4785 498.742 71.4961L498.743 71.4977C498.769 71.5276 498.793 71.5531 498.809 71.5705C498.843 71.606 498.88 71.6428 498.914 71.6765C498.984 71.7457 499.079 71.8367 499.196 71.9479C500.11 72.8134 500.867 73.5698 501.584 74.2858L501.585 74.2865L501.586 74.2876C502.088 74.7893 502.571 75.271 503.073 75.7566C504.233 76.8774 505.368 77.8838 506.677 78.7128C507.201 79.0444 507.744 79.3424 508.318 79.608C508.274 79.6074 508.23 79.6068 508.186 79.6062C507.836 79.6015 507.495 79.5952 507.191 79.5896L507.191 79.5896C506.667 79.58 506.255 79.5725 506.1 79.5781C504.1 79.6502 501.699 79.6527 499.041 79.6555C498.321 79.6563 497.582 79.6571 496.827 79.6593C493.306 79.6695 489.47 79.7108 485.711 79.9305C481.957 80.15 478.237 80.5495 474.951 81.2885C471.69 82.022 468.717 83.1196 466.568 84.825C464.755 86.2638 464.268 88.2842 464.315 90.0927C464.316 90.1264 464.317 90.1601 464.318 90.1938C462.449 88.0092 460.258 85.6949 457.724 83.9595C454.02 81.423 449.481 80.052 444.092 81.9899C432.853 86.0312 426.448 93.5235 419.868 101.221L419.868 101.222C419.611 101.522 419.353 101.824 419.095 102.125C412.225 110.146 404.84 118.422 391.22 124.14C377.549 129.878 358.478 131.418 342.673 131.488C334.799 131.522 327.791 131.193 322.752 130.854C320.233 130.685 318.208 130.514 316.814 130.385C316.118 130.321 315.579 130.267 315.215 130.23C315.034 130.211 314.896 130.196 314.804 130.186L314.701 130.175L314.676 130.172L314.67 130.172L314.669 130.172C314.669 130.172 314.669 130.172 314.631 130.502L314.669 130.172C313.845 130.079 313.103 130.67 313.01 131.494C312.917 132.317 313.508 133.06 314.332 133.153L314.5 131.662C314.332 133.153 314.332 133.153 314.333 133.153L314.335 133.153L314.342 133.154L314.371 133.157L314.481 133.169C314.578 133.179 314.721 133.195 314.908 133.214C315.281 133.253 315.83 133.307 316.538 133.373C317.954 133.503 320.005 133.677 322.551 133.848C327.643 134.189 334.724 134.523 342.686 134.487C358.549 134.418 378.129 132.888 392.381 126.906C406.683 120.902 414.449 112.163 421.374 104.076C421.592 103.821 421.809 103.567 422.026 103.314C428.69 95.5233 434.629 88.5807 445.107 84.8129C449.374 83.2784 452.911 84.2993 456.029 86.4347C459.108 88.5436 461.674 91.6689 463.965 94.4594L464.232 94.7848L464.599 95.2318C465.177 95.9358 465.605 96.457 465.904 96.8079C466.079 97.013 466.24 97.1968 466.375 97.3321C466.434 97.3907 466.545 97.4992 466.684 97.5961C466.746 97.6395 466.9 97.7433 467.119 97.8131C467.317 97.8762 467.889 98.0071 468.453 97.6136C468.992 97.238 469.078 96.6888 469.096 96.517C469.117 96.3077 469.091 96.139 469.078 96.0681C469.051 95.9119 469.004 95.7757 468.98 95.7073C468.925 95.551 468.845 95.3613 468.772 95.1895L468.698 95.016L468.698 95.015C468.551 94.6725 468.375 94.2612 468.193 93.7839C467.757 92.6445 467.347 91.2788 467.314 90.015C467.282 88.7823 467.605 87.832 468.433 87.1749C470.064 85.8806 472.524 84.9094 475.609 84.2154C478.67 83.5269 482.209 83.1403 485.886 82.9254C489.557 82.7108 493.324 82.6695 496.835 82.6593C497.572 82.6571 498.298 82.6564 499.011 82.6556C501.677 82.6529 504.15 82.6503 506.208 82.5761L506.209 82.5761C506.211 82.5761 506.226 82.5758 506.257 82.5757C506.291 82.5757 506.335 82.576 506.391 82.5766C506.503 82.5778 506.647 82.5803 506.823 82.5835L507.025 82.5872C507.341 82.5931 507.724 82.6002 508.145 82.606C508.535 82.6113 508.961 82.6155 509.403 82.6164ZM499.018 71.7322L499.022 71.7354C499.01 71.7269 499.008 71.7247 499.018 71.7322Z" fill="#3B7FFF"/>
<path fill-rule="evenodd" clip-rule="evenodd" d="M644.446 82.5772C643.618 82.5473 642.971 81.852 643.001 81.0241C643.031 80.1962 643.726 79.5493 644.554 79.5791C646.558 79.6514 649.26 79.6537 652.399 79.6565C653.242 79.6573 654.116 79.6581 655.017 79.6602C659.252 79.6704 664.033 79.7116 668.735 79.9303C673.431 80.1487 678.09 80.5457 682.074 81.2771C685.995 81.9968 689.507 83.0802 691.706 84.8254C693.519 86.2642 694.006 88.2846 693.959 90.0931C693.958 90.1268 693.957 90.1605 693.956 90.1942C695.825 88.0095 698.017 85.6953 700.55 83.9599C704.254 81.4234 708.793 80.0523 714.182 81.9903C725.124 85.9248 730.615 92.6289 736.484 99.7947L736.486 99.7969C736.89 100.29 737.296 100.785 737.705 101.282C744.036 108.965 751.434 117.271 767.078 124.15C782.715 131.025 804.693 132.571 822.932 132.353C832.019 132.244 840.117 131.699 845.943 131.182C847.049 131.083 848.073 130.986 849.006 130.893C848.593 130.684 848.196 130.458 847.81 130.213C846.5 129.384 845.365 128.377 844.206 127.257C843.703 126.771 843.22 126.289 842.717 125.787C842 125.07 841.243 124.314 840.329 123.448C840.211 123.337 840.116 123.246 840.046 123.177C840.012 123.143 839.975 123.106 839.942 123.07C839.925 123.053 839.902 123.028 839.876 122.998L839.875 122.996C839.859 122.978 839.794 122.903 839.73 122.801L839.728 122.798C839.706 122.763 839.592 122.582 839.535 122.324C839.506 122.192 839.447 121.848 839.605 121.45C839.799 120.957 840.206 120.665 840.596 120.556C840.911 120.467 841.17 120.506 841.271 120.524C841.393 120.547 841.487 120.58 841.538 120.599C841.639 120.638 841.715 120.679 841.744 120.696C841.844 120.752 841.928 120.815 841.946 120.829L841.949 120.831C842.014 120.88 842.095 120.945 842.174 121.009C842.273 121.09 842.457 121.242 842.685 121.43L842.686 121.431C843.029 121.714 843.469 122.079 843.866 122.402C845.412 123.662 847.316 125.146 848.34 125.674C851.049 127.072 854.517 128.041 857.752 128.59C858.562 128.727 859.237 128.886 859.757 129.085C860.017 129.184 860.293 129.313 860.541 129.49C860.784 129.663 861.094 129.949 861.271 130.391C861.702 131.471 860.987 132.278 860.695 132.549C860.346 132.872 859.893 133.127 859.497 133.325C858.753 133.696 857.762 134.076 856.832 134.433L856.832 134.433L856.557 134.538C855.496 134.946 854.527 135.329 853.829 135.701C851.331 137.032 850.005 137.993 849.105 139.099C848.207 140.203 847.629 141.578 846.9 143.994C846.661 144.788 845.824 145.237 845.031 144.997C844.238 144.758 843.789 143.921 844.028 143.128C844.773 140.658 845.485 138.795 846.778 137.206C847.872 135.86 849.308 134.801 851.293 133.672C849.886 133.823 848.175 133.995 846.209 134.17C840.327 134.692 832.15 135.243 822.968 135.353C804.67 135.571 782.135 134.047 765.87 126.896C749.613 119.748 741.858 111.039 735.39 103.19C734.997 102.714 734.61 102.242 734.227 101.775L734.226 101.773C728.32 94.5704 723.309 88.4603 713.167 84.8133C708.9 83.2788 705.364 84.2997 702.246 86.435C699.166 88.5439 696.601 91.6691 694.309 94.4596L694.309 94.4597L694.042 94.7852L693.675 95.2322C693.097 95.9362 692.669 96.4573 692.37 96.8082C692.195 97.0133 692.034 97.1972 691.899 97.3324C691.84 97.3911 691.729 97.4995 691.59 97.5965C691.528 97.6398 691.374 97.7437 691.155 97.8134C690.957 97.8765 690.385 98.0075 689.821 97.614C689.282 97.2384 689.196 96.6892 689.178 96.5174C689.157 96.308 689.183 96.1394 689.196 96.0685C689.223 95.9123 689.27 95.776 689.294 95.7076C689.349 95.5513 689.429 95.3617 689.502 95.1898L689.576 95.0164L689.576 95.0163C689.723 94.6736 689.899 94.2619 690.082 93.7843C690.517 92.6449 690.927 91.2792 690.96 90.0154C690.992 88.7826 690.67 87.8324 689.842 87.1753C688.261 85.9208 685.387 84.9354 681.533 84.2278C677.741 83.5318 673.236 83.1429 668.596 82.9271C663.963 82.7116 659.237 82.6703 655.01 82.6602C654.129 82.6581 653.268 82.6573 652.433 82.6566C649.284 82.6539 646.508 82.6515 644.446 82.5772ZM840.154 123.235L840.15 123.232C840.145 123.228 840.143 123.227 840.144 123.228C840.145 123.229 840.149 123.231 840.154 123.235Z" fill="#3B7FFF"/>
<g filter="url(#filter5_d_8_23)">
<path d="M477 99.6842C477 119.741 465.124 136 444.8 136C424.476 136 408 112.478 408 92.4211C408 72.3644 424.476 67 444.8 67C465.124 67 477 79.6276 477 99.6842Z" fill="white"/>
</g>
<path d="M441.048 103.435C441.048 102.691 441.16 102.027 441.384 101.443C441.616 100.851 441.908 100.319 442.26 99.8469C442.612 99.3669 442.968 98.9149 443.328 98.4909C443.616 98.1549 443.884 97.8229 444.132 97.4949C444.38 97.1589 444.58 96.8109 444.732 96.4509C444.884 96.0909 444.96 95.7069 444.96 95.2989C444.96 94.5549 444.768 93.9949 444.384 93.6189C444 93.2429 443.44 93.0549 442.704 93.0549C441.92 93.0549 441.312 93.3069 440.88 93.8109C440.448 94.3069 440.232 95.0669 440.232 96.0909H436.956C436.956 94.7709 437.212 93.6989 437.724 92.8749C438.236 92.0429 438.924 91.4349 439.788 91.0509C440.652 90.6589 441.608 90.4629 442.656 90.4629C443.712 90.4629 444.656 90.6509 445.488 91.0269C446.328 91.4029 446.988 91.9629 447.468 92.7069C447.956 93.4509 448.2 94.3869 448.2 95.5149C448.2 96.2109 448.084 96.8269 447.852 97.3629C447.62 97.8989 447.32 98.3789 446.952 98.8029C446.592 99.2269 446.22 99.6309 445.836 100.015C445.316 100.527 444.856 101.047 444.456 101.575C444.064 102.095 443.868 102.715 443.868 103.435H441.048ZM442.632 108.655C442.08 108.655 441.612 108.463 441.228 108.079C440.844 107.695 440.652 107.227 440.652 106.675C440.652 106.131 440.844 105.667 441.228 105.283C441.612 104.899 442.08 104.707 442.632 104.707C443.168 104.707 443.628 104.899 444.012 105.283C444.404 105.667 444.6 106.131 444.6 106.675C444.6 107.227 444.404 107.695 444.012 108.079C443.628 108.463 443.168 108.655 442.632 108.655Z" fill="#3B7FFF"/>
<g filter="url(#filter6_d_8_23)">
<path d="M745 95.6842C745 115.741 733.124 132 712.8 132C692.476 132 676 108.478 676 88.4211C676 68.3644 692.476 63 712.8 63C733.124 63 745 75.6276 745 95.6842Z" fill="white"/>
</g>
<path d="M703 97.4132L707.589 102.002C707.979 102.393 708.612 102.393 709.003 102.002L718.005 93" stroke="#3B7FFF" stroke-width="4" stroke-linecap="round"/>
<path d="M1021.09 105.739L943.621 112.173C942.503 112.265 941.68 113.26 941.798 114.376L947.16 165.072C947.275 166.16 948.242 166.953 949.331 166.854L1025.03 159.931C1026.12 159.832 1026.92 158.883 1026.85 157.797L1023.25 107.59C1023.17 106.479 1022.2 105.647 1021.09 105.739Z" fill="#A3C3FF"/>
<path fill-rule="evenodd" clip-rule="evenodd" d="M934.154 101.797L1016.41 95.6346C1016.68 95.6144 1016.93 95.7027 1017.12 95.8626L933.72 101.933C933.848 101.857 933.996 101.809 934.154 101.797ZM932.229 102.822C932.23 102.862 932.231 102.903 932.234 102.944L936.649 161.869C936.732 162.97 937.692 163.797 938.793 163.714L1021.05 157.552C1022.15 157.469 1022.97 156.509 1022.89 155.408L1018.48 96.4823C1018.39 95.3809 1017.43 94.5548 1016.33 94.6374L934.079 100.8C933.278 100.86 932.623 101.384 932.357 102.09C932.113 102.242 932.046 102.591 932.229 102.822ZM933.279 103.499L976.633 129.949C977.37 130.398 978.313 130.324 978.971 129.764L1017.51 96.9712L1021.89 155.482C1021.93 156.033 1021.52 156.513 1020.97 156.554L938.718 162.717C938.168 162.758 937.688 162.345 937.646 161.794L933.279 103.499ZM977.154 129.095L934.217 102.899L1015.99 96.9472L978.323 129.003C977.994 129.283 977.522 129.32 977.154 129.095Z" fill="black"/>
<path d="M279.508 117.505C282.789 117.505 286.073 117.543 289.354 117.505C293.326 117.459 304.977 117.725 301.223 116.426C299.207 115.728 296.999 115.226 294.951 114.605C294.58 114.492 292.518 112.717 293.839 112.717C295.431 112.717 297.14 114.524 298.661 115.077C300.23 115.648 301.652 116.037 299.874 117.168C297.329 118.788 292.783 119.138 291.04 121.754" stroke="#3B7FFF" stroke-width="3" stroke-linecap="round"/>
<path d="M278.902 150.888C286.187 150.718 293.577 150.573 300.888 150.281C302.704 150.208 297.088 148.876 296.571 148.73C294.912 148.26 290.173 146.171 291.716 146.943C293.299 147.734 301.209 148.939 300.112 150.584C298.437 153.096 292.211 153.405 291.041 155.744" stroke="#3B7FFF" stroke-width="3" stroke-linecap="round"/>
<path fill-rule="evenodd" clip-rule="evenodd" d="M893.846 115.769C895.202 115.552 899.565 115.304 904.232 115.11C908.852 114.919 913.599 114.787 915.632 114.787C916.46 114.787 917.132 114.116 917.132 113.287C917.132 112.459 916.461 111.787 915.632 111.787C913.533 111.787 908.734 111.921 904.108 112.113C899.528 112.303 894.946 112.555 893.372 112.807C892.554 112.938 891.997 113.707 892.128 114.525C892.259 115.343 893.028 115.9 893.846 115.769ZM876 128.5C875.172 128.5 874.5 129.172 874.5 130C874.5 130.828 875.172 131.5 876 131.5H896.021C896.849 131.5 897.521 130.828 897.521 130C897.521 129.172 896.849 128.5 896.021 128.5H876ZM903.5 130C903.5 129.172 904.172 128.5 905 128.5H914.009C914.838 128.5 915.509 129.172 915.509 130C915.509 130.828 914.838 131.5 914.009 131.5H905C904.172 131.5 903.5 130.828 903.5 130ZM903.032 148.001L903.032 148.001L903.08 147.998C907.066 147.747 911.008 147.5 915.025 147.5C915.853 147.5 916.525 146.828 916.525 146C916.525 145.172 915.853 144.5 915.025 144.5C910.898 144.5 906.864 144.754 902.892 145.003L902.889 145.004H902.889C898.903 145.254 894.981 145.501 891 145.501C890.172 145.501 889.5 146.173 889.5 147.001C889.5 147.829 890.172 148.501 891 148.501C895.075 148.501 899.076 148.249 903.032 148.001Z" fill="#3B7FFF"/>
<path d="M109.213 78.3894C92.3985 78.3894 75.6039 78.7527 58.7853 78.7527M109.933 87.834C97.778 87.834 85.5729 86.7905 73.4131 86.4012C68.8996 86.2567 55.35 86.381 59.8658 86.381M107.051 95.8256C91.8012 95.8256 46.0565 95.0991 61.3066 95.0991M63.1362 62.9132C93.1106 53.9513 138.895 66.1725 123.135 92.6175C122.864 93.0718 122.863 93.6698 123.171 94.0994L129.876 103.463C130.234 103.963 129.759 104.636 129.173 104.459L118.811 101.324C118.415 101.204 117.984 101.288 117.654 101.539C90.2847 122.319 49.6543 109.242 44.5748 87.5859C41.3508 73.8403 52.2554 66.1664 63.1362 62.9132Z" stroke="black" stroke-width="2" stroke-linecap="round"/>
<path fill-rule="evenodd" clip-rule="evenodd" d="M201.114 108.153L213.135 142.508L262.51 125.232L250.448 90.7582L250.431 90.7838L250.184 91.1411L232.971 116.088C232.481 116.799 231.589 117.115 230.761 116.871L201.178 108.171L201.114 108.153ZM199.001 108.17C198.636 107.127 199.186 105.986 200.228 105.621L249.604 88.3451C250.647 87.9803 251.787 88.5298 252.152 89.5724L264.398 124.571C264.763 125.614 264.214 126.755 263.171 127.12L213.795 144.396C212.753 144.761 211.612 144.211 211.247 143.169L199.001 108.17ZM231.325 114.952L204.427 107.042L246.988 92.2518L231.325 114.952Z" fill="black"/>
<path fill-rule="evenodd" clip-rule="evenodd" d="M112.331 116.072L94.4407 136.861L124.478 162.711L142.429 141.853L142.298 141.842L141.865 141.807L119.542 140.009C118.682 139.94 117.963 139.326 117.759 138.486L112.395 116.336L112.331 116.072ZM111.077 114.463C111.798 113.626 113.06 113.532 113.898 114.252L143.935 140.102C144.772 140.823 144.867 142.086 144.146 142.923L125.994 164.015C125.273 164.853 124.011 164.947 123.173 164.227L93.1361 138.376C92.2988 137.656 92.2042 136.393 92.9247 135.556L111.077 114.463ZM119.703 138.016L114.998 118.585L139.305 139.595L119.703 138.016Z" fill="black"/>
<path d="M251.584 71.3003L221.315 71.3003C216.588 71.3003 211.911 70.5018 207.172 70.5018M298.126 65.0168L235.831 65.0168C226.103 65.0168 216.478 63.7207 206.724 63.7207M303.855 54L206.724 54C202.458 54 199 57.4817 199 61.7766L199 70.2012C199 74.4961 202.458 77.9778 206.724 77.9778H209.548C211.386 77.9778 213.084 78.9636 214.005 80.5646L218.484 88.3533C218.979 89.2156 220.216 89.2156 220.712 88.3533L225.191 80.5646C226.111 78.9636 227.81 77.9778 229.647 77.9778L294.329 77.9778C303.536 77.9778 311 70.4632 311 61.1933C311 57.2206 307.801 54 303.855 54Z" stroke="black" stroke-width="2" stroke-linecap="round"/>
<path d="M144.874 168.155L175.143 168.155C179.87 168.155 184.546 168.936 189.286 168.936M144.874 173.031L207.169 173.031C216.897 173.031 226.522 174.298 236.276 174.298M146 180L238.851 180C241.695 180 244 177.731 244 174.932V166.696C244 163.897 241.695 161.627 238.851 161.627L217.644 161.627C216.004 161.627 214.461 160.858 213.491 159.556L208.992 153.518C208.478 152.827 207.43 152.827 206.916 153.518L202.417 159.556C201.447 160.858 199.904 161.627 198.264 161.627L136.667 161.627C134.089 161.627 132 163.684 132 166.221C132 173.831 138.268 180 146 180Z" stroke="black" stroke-width="2" stroke-linecap="round"/>
<path d="M156.407 110.703C156.407 110.352 156.689 110.068 157.037 110.068H167.111C167.459 110.068 167.741 110.352 167.741 110.703C167.741 111.053 167.459 111.338 167.111 111.338H157.037C156.689 111.338 156.407 111.053 156.407 110.703Z" fill="black"/>
<path d="M163.54 125.951C162.488 125.822 161.156 125.824 160.005 125.855C159.397 125.871 158.854 125.894 158.411 125.913C157.983 125.932 157.65 125.946 157.441 125.946C157.093 125.946 156.812 126.23 156.812 126.581C156.812 126.932 157.093 127.216 157.441 127.216C157.659 127.216 158.04 127.2 158.507 127.18L158.508 127.18C158.961 127.161 159.495 127.139 160.038 127.124C161.183 127.094 162.435 127.095 163.39 127.212C168.658 127.853 173.941 127.852 179.161 127.851L179.704 127.851C180.051 127.851 180.333 127.567 180.333 127.216C180.333 126.865 180.051 126.581 179.704 126.581L179.188 126.581C173.948 126.582 168.732 126.582 163.54 125.951Z" fill="black"/>
<path d="M156.407 133.568C156.407 133.217 156.689 132.932 157.037 132.932C158.331 132.932 161.232 133.038 164.654 133.163C165.435 133.192 166.243 133.221 167.065 133.25C171.505 133.409 176.373 133.568 179.704 133.568C180.051 133.568 180.333 133.852 180.333 134.203C180.333 134.553 180.051 134.838 179.704 134.838C176.347 134.838 171.456 134.679 167.021 134.52C166.192 134.49 165.38 134.461 164.597 134.432L164.593 134.432C161.173 134.307 158.305 134.203 157.037 134.203C156.689 134.203 156.407 133.918 156.407 133.568Z" fill="black"/>
<path d="M157.037 117.689C156.689 117.689 156.407 117.974 156.407 118.324C156.407 118.675 156.689 118.959 157.037 118.959C158.305 118.959 161.173 119.064 164.593 119.189L164.597 119.189C165.38 119.217 166.192 119.247 167.021 119.277C171.456 119.435 176.347 119.595 179.704 119.595C180.051 119.595 180.333 119.31 180.333 118.959C180.333 118.609 180.051 118.324 179.704 118.324C176.373 118.324 171.505 118.166 167.065 118.007C166.244 117.978 165.438 117.948 164.658 117.92L164.654 117.92C161.232 117.795 158.331 117.689 157.037 117.689Z" fill="black"/>
<path fill-rule="evenodd" clip-rule="evenodd" d="M152 99.2703C152 98.5687 152.564 98 153.259 98H173.27C173.606 98 173.928 98.1353 174.164 98.3758L185.635 110.044C185.869 110.282 186 110.603 186 110.938V143.73C186 144.431 185.436 145 184.741 145H153.259C152.564 145 152 144.431 152 143.73V99.2703ZM184.741 143.73H153.259L153.259 99.2703L171.544 99.2703C171.527 99.354 171.519 99.4418 171.519 99.5334V110.703C171.519 111.755 172.364 112.608 173.407 112.608H184.48C184.571 112.608 184.658 112.599 184.741 112.582V143.73ZM172.778 99.5334L184.48 111.338L173.407 111.338C173.06 111.338 172.778 111.053 172.778 110.703V99.5334Z" fill="black"/>
<path d="M156.407 110.703C156.407 110.352 156.689 110.068 157.037 110.068H167.111C167.459 110.068 167.741 110.352 167.741 110.703C167.741 111.053 167.459 111.338 167.111 111.338H157.037C156.689 111.338 156.407 111.053 156.407 110.703Z" stroke="black" stroke-linecap="round"/>
<path d="M163.54 125.951C162.488 125.822 161.156 125.824 160.005 125.855C159.397 125.871 158.854 125.894 158.411 125.913C157.983 125.932 157.65 125.946 157.441 125.946C157.093 125.946 156.812 126.23 156.812 126.581C156.812 126.932 157.093 127.216 157.441 127.216C157.659 127.216 158.04 127.2 158.507 127.18L158.508 127.18C158.961 127.161 159.495 127.139 160.038 127.124C161.183 127.094 162.435 127.095 163.39 127.212C168.658 127.853 173.941 127.852 179.161 127.851L179.704 127.851C180.051 127.851 180.333 127.567 180.333 127.216C180.333 126.865 180.051 126.581 179.704 126.581L179.188 126.581C173.948 126.582 168.732 126.582 163.54 125.951Z" stroke="black" stroke-linecap="round"/>
<path d="M156.407 133.568C156.407 133.217 156.689 132.932 157.037 132.932C158.331 132.932 161.232 133.038 164.654 133.163C165.435 133.192 166.243 133.221 167.065 133.25C171.505 133.409 176.373 133.568 179.704 133.568C180.051 133.568 180.333 133.852 180.333 134.203C180.333 134.553 180.051 134.838 179.704 134.838C176.347 134.838 171.456 134.679 167.021 134.52C166.192 134.49 165.38 134.461 164.597 134.432L164.593 134.432C161.173 134.307 158.305 134.203 157.037 134.203C156.689 134.203 156.407 133.918 156.407 133.568Z" stroke="black" stroke-linecap="round"/>
<path d="M157.037 117.689C156.689 117.689 156.407 117.974 156.407 118.324C156.407 118.675 156.689 118.959 157.037 118.959C158.305 118.959 161.173 119.064 164.593 119.189L164.597 119.189C165.38 119.217 166.192 119.247 167.021 119.277C171.456 119.435 176.347 119.595 179.704 119.595C180.051 119.595 180.333 119.31 180.333 118.959C180.333 118.609 180.051 118.324 179.704 118.324C176.373 118.324 171.505 118.166 167.065 118.007C166.244 117.978 165.438 117.948 164.658 117.92L164.654 117.92C161.232 117.795 158.331 117.689 157.037 117.689Z" stroke="black" stroke-linecap="round"/>
<path fill-rule="evenodd" clip-rule="evenodd" d="M152 99.2703C152 98.5687 152.564 98 153.259 98H173.27C173.606 98 173.928 98.1353 174.164 98.3758L185.635 110.044C185.869 110.282 186 110.603 186 110.938V143.73C186 144.431 185.436 145 184.741 145H153.259C152.564 145 152 144.431 152 143.73V99.2703ZM184.741 143.73H153.259L153.259 99.2703L171.544 99.2703C171.527 99.354 171.519 99.4418 171.519 99.5334V110.703C171.519 111.755 172.364 112.608 173.407 112.608H184.48C184.571 112.608 184.658 112.599 184.741 112.582V143.73ZM172.778 99.5334L184.48 111.338L173.407 111.338C173.06 111.338 172.778 111.053 172.778 110.703V99.5334Z" stroke="black" stroke-linecap="round"/>
<defs>
<filter id="filter0_d_8_23" x="145" y="0" width="60" height="60" filterUnits="userSpaceOnUse" color-interpolation-filters="sRGB">
<feFlood flood-opacity="0" result="BackgroundImageFix"/>
<feColorMatrix in="SourceAlpha" type="matrix" values="0 0 0 0 0 0 0 0 0 0 0 0 0 0 0 0 0 0 127 0" result="hardAlpha"/>
<feOffset dx="8" dy="8"/>
<feGaussianBlur stdDeviation="2"/>
<feComposite in2="hardAlpha" operator="out"/>
<feColorMatrix type="matrix" values="0 0 0 0 0 0 0 0 0 0 0 0 0 0 0 0 0 0 0.25 0"/>
<feBlend mode="normal" in2="BackgroundImageFix" result="effect1_dropShadow_8_23"/>
<feBlend mode="normal" in="SourceGraphic" in2="effect1_dropShadow_8_23" result="shape"/>
</filter>
<filter id="filter1_d_8_23" x="88" y="180" width="38" height="38" filterUnits="userSpaceOnUse" color-interpolation-filters="sRGB">
<feFlood flood-opacity="0" result="BackgroundImageFix"/>
<feColorMatrix in="SourceAlpha" type="matrix" values="0 0 0 0 0 0 0 0 0 0 0 0 0 0 0 0 0 0 127 0" result="hardAlpha"/>
<feOffset dx="8" dy="8"/>
<feGaussianBlur stdDeviation="2"/>
<feComposite in2="hardAlpha" operator="out"/>
<feColorMatrix type="matrix" values="0 0 0 0 0 0 0 0 0 0 0 0 0 0 0 0 0 0 0.25 0"/>
<feBlend mode="normal" in2="BackgroundImageFix" result="effect1_dropShadow_8_23"/>
<feBlend mode="normal" in="SourceGraphic" in2="effect1_dropShadow_8_23" result="shape"/>
</filter>
<filter id="filter2_d_8_23" x="47" y="54" width="29" height="29" filterUnits="userSpaceOnUse" color-interpolation-filters="sRGB">
<feFlood flood-opacity="0" result="BackgroundImageFix"/>
<feColorMatrix in="SourceAlpha" type="matrix" values="0 0 0 0 0 0 0 0 0 0 0 0 0 0 0 0 0 0 127 0" result="hardAlpha"/>
<feMorphology radius="3" operator="dilate" in="SourceAlpha" result="effect1_dropShadow_8_23"/>
<feOffset dx="6" dy="6"/>
<feGaussianBlur stdDeviation="1"/>
<feComposite in2="hardAlpha" operator="out"/>
<feColorMatrix type="matrix" values="0 0 0 0 0 0 0 0 0 0 0 0 0 0 0 0 0 0 0.25 0"/>
<feBlend mode="normal" in2="BackgroundImageFix" result="effect1_dropShadow_8_23"/>
<feBlend mode="normal" in="SourceGraphic" in2="effect1_dropShadow_8_23" result="shape"/>
</filter>
<filter id="filter3_d_8_23" x="1046" y="54" width="50" height="50" filterUnits="userSpaceOnUse" color-interpolation-filters="sRGB">
<feFlood flood-opacity="0" result="BackgroundImageFix"/>
<feColorMatrix in="SourceAlpha" type="matrix" values="0 0 0 0 0 0 0 0 0 0 0 0 0 0 0 0 0 0 127 0" result="hardAlpha"/>
<feOffset dx="8" dy="8"/>
<feGaussianBlur stdDeviation="2"/>
<feComposite in2="hardAlpha" operator="out"/>
<feColorMatrix type="matrix" values="0 0 0 0 0 0 0 0 0 0 0 0 0 0 0 0 0 0 0.25 0"/>
<feBlend mode="normal" in2="BackgroundImageFix" result="effect1_dropShadow_8_23"/>
<feBlend mode="normal" in="SourceGraphic" in2="effect1_dropShadow_8_23" result="shape"/>
</filter>
<filter id="filter4_d_8_23" x="524" y="28" width="124" height="124" filterUnits="userSpaceOnUse" color-interpolation-filters="sRGB">
<feFlood flood-opacity="0" result="BackgroundImageFix"/>
<feColorMatrix in="SourceAlpha" type="matrix" values="0 0 0 0 0 0 0 0 0 0 0 0 0 0 0 0 0 0 127 0" result="hardAlpha"/>
<feOffset dx="4" dy="4"/>
<feGaussianBlur stdDeviation="3"/>
<feComposite in2="hardAlpha" operator="out"/>
<feColorMatrix type="matrix" values="0 0 0 0 0.193791 0 0 0 0 0.190642 0 0 0 0 0.329167 0 0 0 0.2 0"/>
<feBlend mode="normal" in2="BackgroundImageFix" result="effect1_dropShadow_8_23"/>
<feBlend mode="normal" in="SourceGraphic" in2="effect1_dropShadow_8_23" result="shape"/>
</filter>
<filter id="filter5_d_8_23" x="404" y="67" width="97" height="97" filterUnits="userSpaceOnUse" color-interpolation-filters="sRGB">
<feFlood flood-opacity="0" result="BackgroundImageFix"/>
<feColorMatrix in="SourceAlpha" type="matrix" values="0 0 0 0 0 0 0 0 0 0 0 0 0 0 0 0 0 0 127 0" result="hardAlpha"/>
<feOffset dx="10" dy="14"/>
<feGaussianBlur stdDeviation="7"/>
<feComposite in2="hardAlpha" operator="out"/>
<feColorMatrix type="matrix" values="0 0 0 0 0.203922 0 0 0 0 0.2 0 0 0 0 0.309804 0 0 0 0.25 0"/>
<feBlend mode="normal" in2="BackgroundImageFix" result="effect1_dropShadow_8_23"/>
<feBlend mode="normal" in="SourceGraphic" in2="effect1_dropShadow_8_23" result="shape"/>
</filter>
<filter id="filter6_d_8_23" x="672" y="63" width="97" height="97" filterUnits="userSpaceOnUse" color-interpolation-filters="sRGB">
<feFlood flood-opacity="0" result="BackgroundImageFix"/>
<feColorMatrix in="SourceAlpha" type="matrix" values="0 0 0 0 0 0 0 0 0 0 0 0 0 0 0 0 0 0 127 0" result="hardAlpha"/>
<feOffset dx="10" dy="14"/>
<feGaussianBlur stdDeviation="7"/>
<feComposite in2="hardAlpha" operator="out"/>
<feColorMatrix type="matrix" values="0 0 0 0 0.203922 0 0 0 0 0.2 0 0 0 0 0.309804 0 0 0 0.25 0"/>
<feBlend mode="normal" in2="BackgroundImageFix" result="effect1_dropShadow_8_23"/>
<feBlend mode="normal" in="SourceGraphic" in2="effect1_dropShadow_8_23" result="shape"/>
</filter>
</defs>
</svg>
