<svg width="924" height="254" viewBox="0 0 924 254" fill="none" xmlns="http://www.w3.org/2000/svg">
<g clip-path="url(#clip0_104_2)">
<path fill-rule="evenodd" clip-rule="evenodd" d="M37.6324 -0.000488281H886.368C906.898 -0.000488281 923.538 16.6397 923.538 37.1704V216.83C923.538 237.36 906.898 254.001 886.368 254.001H37.6324C17.1017 254.001 0.461548 237.36 0.461548 216.83V37.1704C0.461548 16.6397 17.1017 -0.000488281 37.6324 -0.000488281Z" fill="#32364E"/>
<path fill-rule="evenodd" clip-rule="evenodd" d="M442.814 164.945H433.756L440.769 147.624L426.812 112.404H436.383L445.155 136.373L453.996 112.404H463.567L442.814 164.945ZM408.028 149.817C404.887 149.817 401.672 148.652 398.748 146.385V148.943H389.399V96.4021H398.748V114.895C401.672 112.702 404.887 111.531 408.028 111.531C417.822 111.531 424.544 119.423 424.544 130.674C424.544 141.924 417.822 149.817 408.028 149.817V149.817ZM406.058 119.566C403.499 119.566 400.941 120.662 398.748 122.855V138.492C400.941 140.685 403.499 141.782 406.058 141.782C411.317 141.782 414.973 137.253 414.973 130.674C414.973 124.101 411.317 119.566 406.058 119.566ZM351.541 146.385C348.691 148.652 345.475 149.817 342.26 149.817C332.54 149.817 325.75 141.924 325.75 130.674C325.75 119.423 332.54 111.531 342.26 111.531C345.475 111.531 348.691 112.702 351.541 114.895V96.4021H360.97V148.943H351.541V146.385ZM351.541 122.855C349.422 120.662 346.863 119.566 344.305 119.566C338.971 119.566 335.322 124.101 335.322 130.674C335.322 137.253 338.971 141.782 344.305 141.782C346.863 141.782 349.422 140.685 351.541 138.492V122.855ZM295.859 133.232C296.441 138.783 300.827 142.587 306.966 142.587C310.324 142.587 314.054 141.342 317.851 139.149V146.967C313.688 148.869 309.525 149.817 305.43 149.817C294.396 149.817 286.653 141.782 286.653 130.383C286.653 119.349 294.254 111.531 304.699 111.531C314.271 111.531 320.775 119.058 320.775 129.8C320.775 130.822 320.775 131.987 320.627 133.232H295.859ZM304.333 118.767C299.805 118.767 296.298 122.124 295.859 127.167H311.786C311.495 122.199 308.497 118.767 304.333 118.767V118.767ZM271.233 124.534V148.943H261.878V112.404H271.233V116.059C273.86 113.135 277.075 111.531 280.216 111.531C281.244 111.531 282.266 111.605 283.289 111.896V120.229C282.266 119.931 281.096 119.789 279.999 119.789C276.932 119.789 273.643 121.468 271.233 124.534V124.534ZM229.502 133.232C230.091 138.783 234.471 142.587 240.61 142.587C243.974 142.587 247.697 141.342 251.501 139.149V146.967C247.332 148.869 243.169 149.817 239.074 149.817C228.04 149.817 220.296 141.782 220.296 130.383C220.296 119.349 227.898 111.531 238.343 111.531C247.92 111.531 254.419 119.058 254.419 129.8C254.419 130.822 254.419 131.987 254.277 133.232H229.502ZM237.977 118.767C233.449 118.767 229.942 122.124 229.502 127.167H245.436C245.139 122.199 242.147 118.767 237.977 118.767ZM196.835 148.943L189.383 124.101L182.004 148.943H173.597L161.034 112.404H170.382L177.767 137.253L185.145 112.404H193.62L200.998 137.253L208.383 112.404H217.732L205.236 148.943H196.835ZM139.691 149.817C128.658 149.817 120.839 141.856 120.839 130.674C120.839 119.423 128.658 111.531 139.691 111.531C150.725 111.531 158.469 119.423 158.469 130.674C158.469 141.856 150.725 149.817 139.691 149.817ZM139.691 119.349C134.209 119.349 130.411 123.952 130.411 130.674C130.411 137.395 134.209 141.998 139.691 141.998C145.1 141.998 148.897 137.395 148.897 130.674C148.897 123.952 145.1 119.349 139.691 119.349ZM98.6236 130.897H90.2168V148.943H80.8683V98.6695H98.6236C108.852 98.6695 116.156 105.317 116.156 114.82C116.156 124.317 108.852 130.897 98.6236 130.897ZM97.3041 106.271H90.2168V123.295H97.3041C102.712 123.295 106.51 119.863 106.51 114.82C106.51 109.703 102.712 106.271 97.3041 106.271V106.271ZM848.125 135.475H803.21C804.232 146.23 812.113 149.395 821.052 149.395C830.165 149.395 837.339 147.481 843.596 144.322V162.808C837.358 166.259 829.131 168.755 818.159 168.755C795.813 168.755 780.152 154.76 780.152 127.087C780.152 103.719 793.434 85.1579 815.266 85.1579C837.06 85.1579 848.435 103.712 848.435 127.211C848.435 129.428 848.23 134.236 848.125 135.475ZM815.117 103.867C809.38 103.867 803.006 108.198 803.006 118.537H826.727C826.727 108.21 820.755 103.867 815.117 103.867ZM743.761 168.755C735.733 168.755 730.826 165.366 727.53 162.95L727.481 188.914L704.54 193.796L704.528 86.6881H724.736L725.926 92.3567C729.104 89.3892 734.909 85.1579 743.904 85.1579C760.017 85.1579 775.196 99.6732 775.196 126.387C775.196 155.547 760.179 168.755 743.761 168.755V168.755ZM738.421 105.484C733.149 105.484 729.853 107.411 727.462 110.031L727.598 144.13C729.822 146.539 733.038 148.485 738.421 148.485C746.902 148.485 752.59 139.248 752.59 126.895C752.59 114.888 746.816 105.484 738.421 105.484ZM672.121 86.6881H695.154V167.114H672.121V86.6881ZM672.121 61.0092L695.154 56.1089V74.7996L672.121 79.6938V61.0092ZM648.325 112.59V167.114H625.391V86.6881H645.228L646.671 93.4718C652.036 83.5968 662.766 85.5978 665.82 86.6943V107.783C662.902 106.841 653.746 105.466 648.325 112.59ZM599.898 138.895C599.898 152.419 614.376 148.212 617.318 147.035V165.713C614.258 167.392 608.713 168.755 601.211 168.755C587.594 168.755 577.378 158.725 577.378 145.139L577.478 71.5224L599.879 66.7645L599.898 86.6881H617.325V106.252H599.898V138.895ZM572.057 142.81C572.057 159.326 558.911 168.755 539.83 168.755C531.918 168.755 523.27 167.219 514.739 163.545V141.639C522.44 145.827 532.253 148.968 539.854 148.968C544.972 148.968 548.658 147.593 548.658 143.355C548.658 132.402 513.773 136.528 513.773 111.122C513.773 94.8781 526.182 85.1579 544.792 85.1579C552.393 85.1579 559.995 86.3288 567.596 89.3582V110.967C560.614 107.2 551.755 105.063 544.773 105.063C539.966 105.063 536.98 106.451 536.98 110.038C536.98 120.359 572.057 115.452 572.057 142.81V142.81Z" fill="white"/>
</g>
<defs>
<clipPath id="clip0_104_2">
<rect width="924" height="254.001" fill="white" transform="translate(0 -0.000488281)"/>
</clipPath>
</defs>
</svg>
