<svg width="94" height="416" fill="none" xmlns="http://www.w3.org/2000/svg"><path d="M32.592 3.325C23.5 17 15.75 35.617 12.124 51.571 4.888 83.41 2.02 116.449 3.791 149.232 5.724 185 17.252 239.792 32 281c10.762 30.072 22 60 33.5 84.5 6.565 13.988 12.863 25.495 19.723 37.5 4.995 8.741 2.776 5.305 2.776 0 0-6.131-2.776-11.868-2.776-18.094C85.224 384 90 406.5 90 406.5c.5 2 3.076 9.877-5.946 4.722-4.415-2.524-9.757-6.064-11.988-10.527" stroke="#E2B71F" stroke-width="6" stroke-linecap="round"/></svg>
