<svg width="50" height="122" fill="none" xmlns="http://www.w3.org/2000/svg"><path fill-rule="evenodd" clip-rule="evenodd" d="M11.806 3.144a2 2 0 1 0-3.612-1.717C5.72 6.628 3.044 13.243 1.702 18.99-1.383 32.212-.415 46.682 5.76 59.3c1.904 3.893 4.422 7.545 7.336 10.532.085 2.726.553 5.495 1.306 8.246 1.662 6.068 4.746 12.188 8.393 17.832 5.304 8.21 11.922 15.605 17.425 20.563a21.104 21.104 0 0 0-1.424.012 5.506 5.506 0 0 0-.163.009l-.048.003-.016.002h-.01l.16 1.994-.16-1.994a2 2 0 0 0 .317 3.988h.002l.001-.001h.001l.014-.001.098-.005c.092-.005.237-.01.429-.013.384-.005.956.001 1.67.05 1.433.099 3.416.369 5.601 1.05.133.041.301.087.486.116.158.025.482.064.864-.021a2.077 2.077 0 0 0 1.597-2.431c-.072-.389-.252-.719-.292-.794l-.006-.011c-.047-.088-.07-.129-.087-.158-.016-.03-.026-.047-.046-.087-.811-1.623-1.24-2.912-1.464-3.765a10.221 10.221 0 0 1-.205-.943 4.754 4.754 0 0 1-.029-.204l-.003-.03a2 2 0 0 0-3.989.301l1.995-.142-1.995.143v.005l.001.006.002.016.003.04.013.12a8.825 8.825 0 0 0 .055.391c-5.303-4.653-12.055-12.047-17.438-20.38-3.508-5.43-6.375-11.17-7.894-16.718a35.727 35.727 0 0 1-.766-3.428c.49.341.986.662 1.489.963 5.469 3.267 11.837 4.078 17.649.093 3.773-2.587 4.897-7.366 4.307-11.551-.592-4.203-3.001-8.547-7.244-10.365-3.472-1.489-7.518-1.37-11-.06-3.486 1.311-6.619 3.901-8.058 7.602a22.297 22.297 0 0 0-1.126 3.95 38.42 38.42 0 0 1-4.158-6.683C3.635 45.857 2.694 32.345 5.598 19.9 6.846 14.55 9.39 8.23 11.806 3.144Zm9.227 67.978c-1.35-.807-2.672-1.812-3.938-2.978.078-2.256.486-4.407 1.269-6.42.944-2.428 3.084-4.309 5.739-5.307 2.66-1.001 5.626-1.032 8.016-.008 2.582 1.107 4.397 3.97 4.858 7.247.464 3.295-.528 6.268-2.608 7.694-4.188 2.872-8.82 2.47-13.336-.228Z" fill="#CCA723"/></svg>
